<?xml version="1.0" encoding="UTF-8"?>
<svg id="Layer_2" data-name="Layer 2" xmlns="http://www.w3.org/2000/svg" viewBox="0 0 97.28 85.74">
  <defs>
    <style>
      .cls-1 {
        fill: #ff2a17;
      }
    </style>
  </defs>
  <g id="Layer_1-2" data-name="Layer 1">
    <g>
      <path class="cls-1" d="m53.2,35.15l26-5.41c1.46-.3,2.98,0,4.22.83l11.43,7.73c3.24,2.19,3.24,6.96,0,9.15l-11.84,8.02c-1.26.85-2.81,1.15-4.29.82l-25.59-5.66c-2.53-.56-4.33-2.8-4.33-5.4v-4.68c0-2.62,1.84-4.88,4.4-5.41Z"/>
      <path class="cls-1" d="m44.23,35.06l8.31-25.22c.47-1.42,1.49-2.59,2.83-3.24l12.4-6.03c3.52-1.71,7.65.67,7.93,4.57l1.02,14.26c.11,1.51-.41,3.01-1.44,4.13l-17.69,19.33c-1.75,1.91-4.59,2.35-6.84,1.05l-4.05-2.34c-2.27-1.31-3.3-4.03-2.49-6.52Z"/>
      <path class="cls-1" d="m39.67,42.78l-17.68-19.81c-.99-1.11-1.5-2.58-1.39-4.07l.98-13.76c.28-3.9,4.41-6.29,7.93-4.58l12.86,6.24c1.37.66,2.4,1.86,2.86,3.31l7.89,24.99c.78,2.47-.26,5.15-2.51,6.45l-4.05,2.34c-2.27,1.31-5.14.85-6.89-1.11Z"/>
      <path class="cls-1" d="m44.08,50.59l-26,5.41c-1.46.3-2.98,0-4.22-.83l-11.43-7.73c-3.24-2.19-3.24-6.96,0-9.15l11.84-8.02c1.26-.85,2.81-1.15,4.29-.82l25.59,5.66c2.53.56,4.33,2.8,4.33,5.4v4.68c0,2.62-1.84,4.88-4.4,5.41Z"/>
      <path class="cls-1" d="m53.04,50.68l-8.31,25.22c-.47,1.42-1.49,2.59-2.83,3.24l-12.4,6.03c-3.52,1.71-7.65-.67-7.93-4.57l-1.02-14.26c-.11-1.51.41-3.01,1.44-4.13l17.69-19.33c1.75-1.91,4.59-2.35,6.84-1.05l4.05,2.34c2.27,1.31,3.3,4.03,2.49,6.52Z"/>
      <path class="cls-1" d="m57.6,42.96l17.68,19.81c.99,1.11,1.5,2.58,1.39,4.07l-.98,13.76c-.28,3.9-4.41,6.29-7.93,4.58l-12.86-6.24c-1.37-.66-2.4-1.86-2.86-3.31l-7.89-24.99c-.78-2.47.26-5.15,2.51-6.45l4.05-2.34c2.27-1.31,5.14-.85,6.89,1.11Z"/>
    </g>
  </g>
</svg>