<svg id="Layer_2" data-name="Layer 2" xmlns="http://www.w3.org/2000/svg" viewBox="0 0 114.8 119.01">
  <g id="Layer_1-2" data-name="Layer 1">
    <g>
      <g class="cls-5">
        <path class="cls-3" d="m110.5,79.78c5.7,3.29,5.73,8.68.07,11.97l-42.67,24.79c-5.66,3.29-14.97,3.29-20.66,0L4.29,91.75c-5.7-3.29-5.73-8.68-.07-11.97l42.67-24.79c5.66-3.29,14.96-3.29,20.66,0l42.94,24.79Z"/>
      </g>
      <g class="cls-4">
        <path class="cls-3" d="m110.5,61.76c5.7,3.29,5.73,8.68.07,11.97l-42.67,24.79c-5.66,3.29-14.97,3.29-20.66,0L4.29,73.73c-5.7-3.29-5.73-8.68-.07-11.97l42.67-24.79c5.66-3.29,14.96-3.29,20.66,0l42.94,24.79Z"/>
      </g>
      <g class="cls-2">
        <path class="cls-3" d="m110.5,45.28c5.7,3.29,5.73,8.68.07,11.97l-42.67,24.79c-5.66,3.29-14.97,3.29-20.66,0L4.29,57.25c-5.7-3.29-5.73-8.68-.07-11.97l42.67-24.79c5.66-3.29,14.96-3.29,20.66,0l42.94,24.79Z"/>
      </g>
      <path class="cls-3" d="m110.5,27.26c5.7,3.29,5.73,8.68.07,11.97l-42.67,24.79c-5.66,3.29-14.97,3.29-20.66,0L4.29,39.23c-5.7-3.29-5.73-8.68-.07-11.97L46.89,2.47c5.66-3.29,14.96-3.29,20.66,0l42.94,24.79Z"/>
      <g>
        <path class="cls-1" d="m60.55,18.81c5.83,3.37,6.58,7.57,1.98,10.39l-4.17-2.41c2.49-1.73,1.86-4.01-1.47-5.93-3.33-1.92-7.28-2.26-9.71-.85-1.94,1.13-1.63,2.63,1.06,5.19l2.3,2.19c4.33,4.04,4.42,6.72.41,9.05-5.13,2.98-12.46,2.47-19-1.3-6.12-3.53-7.12-7.74-2.43-10.78l4.23,2.44c-2.42,1.76-1.54,4.33,2.1,6.43,3.48,2.01,7.77,2.42,10.23,1,2.13-1.24,1.89-2.85-.81-5.42l-2.72-2.56c-3.85-3.63-3.85-6.36-.03-8.58,4.73-2.75,12.13-2.24,18.03,1.16Z"/>
        <polygon class="cls-1" points="91.59 37.25 87.92 39.39 74.96 31.91 66.28 36.95 78.14 43.8 74.55 45.89 62.69 39.04 51.2 45.71 46.92 43.24 74.35 27.3 91.59 37.25"/>
      </g>
    </g>
  </g>
</svg>