<svg id="Layer_2" data-name="Layer 2" xmlns="http://www.w3.org/2000/svg" viewBox="0 0 114.8 119.01"><defs><style>.cls-3{fill:#33efc2}</style></defs><g id="Layer_1-2" data-name="Layer 1"><path class="cls-3" d="M110.5 79.78c5.7 3.29 5.73 8.68.07 11.97L67.9 116.54c-5.66 3.29-14.97 3.29-20.66 0L4.29 91.75c-5.7-3.29-5.73-8.68-.07-11.97l42.67-24.79c5.66-3.29 14.96-3.29 20.66 0l42.94 24.79Z" style="opacity:.27"/><path class="cls-3" d="M110.5 61.76c5.7 3.29 5.73 8.68.07 11.97L67.9 98.52c-5.66 3.29-14.97 3.29-20.66 0L4.29 73.73c-5.7-3.29-5.73-8.68-.07-11.97l42.67-24.79c5.66-3.29 14.96-3.29 20.66 0l42.94 24.79Z" style="opacity:.4"/><path class="cls-3" d="M110.5 45.28c5.7 3.29 5.73 8.68.07 11.97L67.9 82.04c-5.66 3.29-14.97 3.29-20.66 0L4.29 57.25c-5.7-3.29-5.73-8.68-.07-11.97l42.67-24.79c5.66-3.29 14.96-3.29 20.66 0l42.94 24.79Z" style="opacity:.6"/><path class="cls-3" d="M110.5 27.26c5.7 3.29 5.73 8.68.07 11.97L67.9 64.02c-5.66 3.29-14.97 3.29-20.66 0L4.29 39.23c-5.7-3.29-5.73-8.68-.07-11.97L46.89 2.47c5.66-3.29 14.96-3.29 20.66 0l42.94 24.79Z"/><path d="M60.55 18.81c5.83 3.37 6.58 7.57 1.98 10.39l-4.17-2.41c2.49-1.73 1.86-4.01-1.47-5.93s-7.28-2.26-9.71-.85c-1.94 1.13-1.63 2.63 1.06 5.19l2.3 2.19c4.33 4.04 4.42 6.72.41 9.05-5.13 2.98-12.46 2.47-19-1.3-6.12-3.53-7.12-7.74-2.43-10.78l4.23 2.44c-2.42 1.76-1.54 4.33 2.1 6.43 3.48 2.01 7.77 2.42 10.23 1 2.13-1.24 1.89-2.85-.81-5.42l-2.72-2.56c-3.85-3.63-3.85-6.36-.03-8.58 4.73-2.75 12.13-2.24 18.03 1.16Zm31.04 18.44-3.67 2.14-12.96-7.48-8.68 5.04 11.86 6.85-3.59 2.09-11.86-6.85-11.49 6.67-4.28-2.47L74.35 27.3l17.24 9.95z" style="fill:#fff"/></g></svg>