<svg width="29" height="28" viewBox="0 0 29 28" fill="none" xmlns="http://www.w3.org/2000/svg">
<g clipPath="url(#clip0_2201_1415)">
<path d="M4.57031 23.2656H16.8164C19.6758 23.2656 21.3867 21.6016 21.3867 18.7422V8.51172C21.3867 5.66406 19.6758 4 16.8164 4H4.57031C1.83984 4 0 5.66406 0 8.51172V18.7422C0 21.6016 1.71094 23.2656 4.57031 23.2656ZM4.89844 21.4961C2.97656 21.4961 1.88672 20.5 1.88672 18.4727V8.79297C1.88672 6.75391 2.97656 5.75781 4.89844 5.75781H16.4883C18.3984 5.75781 19.5 6.75391 19.5 8.79297V18.4727C19.5 20.5 18.3984 21.4961 16.4883 21.4961H4.89844ZM21.1172 10.3516V12.5781L26.6953 7.97266C26.8008 7.89062 26.8711 7.83203 26.9766 7.83203C27.1172 7.83203 27.1758 7.94922 27.1758 8.11328V19.1523C27.1758 19.3164 27.1172 19.4219 26.9766 19.4219C26.8711 19.4219 26.8008 19.3633 26.6953 19.293L21.1172 14.6875V16.9023L25.8164 20.8867C26.2852 21.2734 26.8008 21.543 27.2812 21.543C28.3125 21.543 28.9922 20.7812 28.9922 19.6914V7.57422C28.9922 6.48438 28.3125 5.72266 27.2812 5.72266C26.8008 5.72266 26.2852 5.99219 25.8164 6.37891L21.1172 10.3516Z" fill="black" fillOpacity="0.85"/>
<path d="M6.78516 18.4492C7.04297 18.4492 7.23047 18.3672 7.39453 18.1914L12.1992 13.3867L14.0156 11.418L13.8047 14.7695V16.3516C13.8047 16.8086 14.1445 17.1836 14.6016 17.1836C15.082 17.1836 15.4688 16.832 15.4688 16.3516V9.83594C15.4688 9.21484 15.1758 8.91016 14.5547 8.91016H8.01562C7.53516 8.91016 7.18359 9.29688 7.18359 9.77734C7.18359 10.2344 7.55859 10.5742 8.01562 10.5742H9.62109L12.9844 10.3633L10.9922 12.1797L6.19922 16.9961C6.01172 17.1836 5.91797 17.3828 5.91797 17.6406C5.91797 18.0977 6.29297 18.4492 6.78516 18.4492Z" fill="black" fillOpacity="0.85"/>
</g>
<defs>
<clipPath id="clip0_2201_1415">
<rect width="28.9922" height="19.2773" fill="white" transform="translate(0 4)"/>
</clipPath>
</defs>
</svg>
