<svg width="29" height="28" viewBox="0 0 29 28" fill="none" xmlns="http://www.w3.org/2000/svg">
<g clipPath="url(#clip0_2201_1416)">
<path d="M3.76172 23.0312H16.3477C18.7031 23.0312 20.1094 21.6719 20.1094 19.3164V7.70312C20.1094 5.35938 18.8203 4 16.4648 4H3.76172C1.51172 4 0 5.35938 0 7.70312V19.3164C0 21.6719 1.40625 23.0312 3.76172 23.0312ZM21.7031 16.9727L25.9688 20.6641C26.3672 21.0156 26.8359 21.2383 27.2578 21.2383C28.1719 21.2383 28.7695 20.5703 28.7695 19.6094V7.42188C28.7695 6.46094 28.1719 5.79297 27.2578 5.79297C26.8359 5.79297 26.3672 6.01562 25.9688 6.36719L21.7031 10.0469V16.9727Z" fill="black" fillOpacity="0.85"/>
<path d="M6.03516 18.4844C5.51953 18.4844 5.13281 18.1211 5.13281 17.6406C5.13281 17.3828 5.22656 17.1719 5.42578 16.9727L10.3594 12.0156L12.4102 10.1523L8.94141 10.3633H7.30078C6.83203 10.3633 6.43359 10.0117 6.43359 9.54297C6.43359 9.03906 6.80859 8.64062 7.30078 8.64062H14.0391C14.6836 8.64062 14.9883 8.95703 14.9883 9.60156V16.3164C14.9883 16.8086 14.5898 17.1836 14.0859 17.1836C13.6172 17.1836 13.2656 16.7852 13.2656 16.3164V14.6992L13.4766 11.2422L11.6133 13.2695L6.67969 18.2148C6.49219 18.4023 6.30469 18.4844 6.03516 18.4844Z" fill="white"/>
</g>
<defs>
<clipPath id="clip0_2201_1416">
<rect width="28.7695" height="19.043" fill="white" transform="translate(0 4)"/>
</clipPath>
</defs>
</svg>
