<svg width="28" height="28" viewBox="0 0 28 28" fill="none" xmlns="http://www.w3.org/2000/svg">
<g clipPath="url(#clip0_2201_1301)">
<path d="M5.64062 26.4336C7.04688 26.4336 10.5508 24.8984 12.543 23.4688C12.7422 23.3281 12.9062 23.2695 13.0703 23.2695C13.2227 23.2812 13.375 23.293 13.5273 23.293C21.9766 23.293 27.5781 18.4883 27.5781 12.6523C27.5781 6.75781 21.6719 2 14.2891 2C6.90625 2 1 6.75781 1 12.6523C1 16.4023 3.30859 19.6953 7.07031 21.7109C7.24609 21.8047 7.30469 21.9805 7.21094 22.1562C6.55469 23.2344 5.38281 24.5234 4.9375 25.1094C4.48047 25.6953 4.73828 26.4336 5.64062 26.4336Z" fill="black" fillOpacity="0.85"/>
<path d="M14.3008 6.60547C14.8398 6.60547 15.2148 6.99219 15.2148 7.51953V13.543L15.1094 16.1094L16.3398 14.6445L17.7578 13.2148C17.9219 13.0273 18.1445 12.9453 18.4023 12.9453C18.9062 12.9453 19.293 13.3203 19.293 13.8242C19.293 14.0703 19.1992 14.2812 19.0352 14.4453L15.0156 18.4648C14.7812 18.6992 14.582 18.8047 14.3008 18.8047C14.043 18.8047 13.8438 18.7109 13.5977 18.4648L9.56641 14.4453C9.40234 14.2812 9.33203 14.0703 9.33203 13.8242C9.33203 13.3203 9.70703 12.9453 10.2109 12.9453C10.457 12.9453 10.6914 13.0391 10.8555 13.2148L12.2852 14.6445L13.4922 16.0977L13.3867 13.543V7.51953C13.3867 6.99219 13.7734 6.60547 14.3008 6.60547Z" fill="white"/>
</g>
<defs>
<clipPath id="clip0_2201_1301">
<rect width="26.5781" height="24.4336" fill="white" transform="translate(1 2)"/>
</clipPath>
</defs>
</svg>
