<svg width="29" height="28" viewBox="0 0 29 28" fill="none" xmlns="http://www.w3.org/2000/svg">
<g clipPath="url(#clip0_2201_1418)">
<path d="M3.76172 23.0312H16.3477C18.7031 23.0312 20.1094 21.6719 20.1094 19.3164V7.70312C20.1094 5.35938 18.8203 4 16.4648 4H3.76172C1.51172 4 0 5.35938 0 7.70312V19.3164C0 21.6719 1.40625 23.0312 3.76172 23.0312ZM21.7031 16.9727L25.9688 20.6641C26.3672 21.0156 26.8359 21.2383 27.2578 21.2383C28.1719 21.2383 28.7695 20.5703 28.7695 19.6094V7.42188C28.7695 6.46094 28.1719 5.79297 27.2578 5.79297C26.8359 5.79297 26.3672 6.01562 25.9688 6.36719L21.7031 10.0469V16.9727Z" fill="black" fillOpacity="0.85"/>
<path d="M14.0859 8.64062C14.6016 8.64062 14.9883 9.00391 14.9883 9.48438C14.9883 9.74219 14.9062 9.95312 14.6953 10.1523L9.76172 15.1094L7.72266 16.9609L11.1797 16.7617H12.8203C13.2891 16.7617 13.6992 17.1016 13.6992 17.582C13.6992 18.0859 13.3125 18.4844 12.8203 18.4844H6.09375C5.44922 18.4844 5.13281 18.168 5.13281 17.5234V10.8086C5.13281 10.3164 5.54297 9.94141 6.03516 9.94141C6.50391 9.94141 6.85547 10.3398 6.85547 10.8086V12.4258L6.65625 15.8828L8.51953 13.8555L13.4531 8.91016C13.6406 8.72266 13.8281 8.64062 14.0859 8.64062Z" fill="white"/>
</g>
<defs>
<clipPath id="clip0_2201_1418">
<rect width="28.7695" height="19.043" fill="white" transform="translate(0 4)"/>
</clipPath>
</defs>
</svg>
