<svg width="28" height="28" viewBox="0 0 28 28" fill="none" xmlns="http://www.w3.org/2000/svg">
<g clipPath="url(#clip0_2201_1298)">
<path d="M6.08594 26.5508C7.66797 26.5508 10.9023 24.957 13.2812 23.2578C21.4492 23.4805 27.5781 18.793 27.5781 12.6523C27.5781 6.75781 21.6719 2 14.2891 2C6.90625 2 1 6.75781 1 12.6523C1 16.4961 3.46094 19.9062 7.16406 21.6172C6.63672 22.6367 5.65234 24.0195 5.125 24.7109C4.50391 25.5312 4.87891 26.5508 6.08594 26.5508ZM7.31641 24.6055C7.22266 24.6406 7.1875 24.5703 7.24609 24.4883C7.90234 23.6797 8.83984 22.4609 9.23828 21.7109C9.56641 21.1016 9.48438 20.5625 8.73438 20.2109C5.05469 18.5 2.94531 15.7695 2.94531 12.6523C2.94531 7.84766 7.97266 3.93359 14.2891 3.93359C20.6172 3.93359 25.6445 7.84766 25.6445 12.6523C25.6445 17.4453 20.6172 21.3594 14.2891 21.3594C14.0547 21.3594 13.6914 21.3477 13.2227 21.3359C12.7305 21.3359 12.3555 21.4883 11.9102 21.8398C10.4688 22.8828 8.38281 24.1719 7.31641 24.6055Z" fill="black" fillOpacity="0.85"/>
<path d="M14.3008 18.6172C14.8164 18.6172 15.1797 18.2539 15.1797 17.75V11.8789L15.0859 9.39453L16.2812 10.8125L17.6641 12.2188C17.8164 12.3945 18.0273 12.4766 18.2852 12.4766C18.7656 12.4766 19.1406 12.1133 19.1406 11.6328C19.1406 11.3984 19.0469 11.1875 18.8945 11.0234L14.9922 7.13281C14.7695 6.91016 14.5703 6.79297 14.3008 6.79297C14.0547 6.79297 13.8555 6.89844 13.6211 7.13281L9.70703 11.0234C9.55469 11.1875 9.48438 11.3984 9.48438 11.6328C9.48438 12.1133 9.84766 12.4766 10.3281 12.4766C10.5742 12.4766 10.7969 12.3828 10.9492 12.2188L12.3438 10.8125L13.5156 9.41797L13.4219 11.8789V17.75C13.4219 18.2539 13.7969 18.6172 14.3008 18.6172Z" fill="black" fillOpacity="0.85"/>
</g>
<defs>
<clipPath id="clip0_2201_1298">
<rect width="26.5781" height="24.5508" fill="white" transform="translate(1 2)"/>
</clipPath>
</defs>
</svg>
