<svg width="28" height="28" viewBox="0 0 28 28" fill="none" xmlns="http://www.w3.org/2000/svg">
<g clipPath="url(#clip0_2201_1299)">
<path d="M5.64062 26.4336C7.04688 26.4336 10.5508 24.8984 12.543 23.4688C12.7422 23.3281 12.9062 23.2695 13.0703 23.2695C13.2227 23.2812 13.375 23.293 13.5273 23.293C21.9766 23.293 27.5781 18.4883 27.5781 12.6523C27.5781 6.75781 21.6719 2 14.2891 2C6.90625 2 1 6.75781 1 12.6523C1 16.4023 3.30859 19.6953 7.07031 21.7109C7.24609 21.8047 7.30469 21.9805 7.21094 22.1562C6.55469 23.2344 5.38281 24.5234 4.9375 25.1094C4.48047 25.6953 4.73828 26.4336 5.64062 26.4336Z" fill="black" fillOpacity="0.85"/>
<path d="M14.3008 18.8047C13.7734 18.8047 13.3867 18.4297 13.3867 17.9023V11.8789L13.4922 9.32422L12.2852 10.7656L10.8555 12.207C10.6914 12.3828 10.457 12.4766 10.2109 12.4766C9.70703 12.4766 9.33203 12.1016 9.33203 11.5977C9.33203 11.3516 9.40234 11.1406 9.56641 10.9648L13.5977 6.95703C13.8438 6.71094 14.043 6.60547 14.3008 6.60547C14.582 6.60547 14.7812 6.72266 15.0156 6.95703L19.0352 10.9648C19.1992 11.1406 19.293 11.3516 19.293 11.5977C19.293 12.1016 18.9062 12.4766 18.4023 12.4766C18.1445 12.4766 17.9219 12.3945 17.7578 12.207L16.3398 10.7656L15.1094 9.30078L15.2148 11.8789V17.9023C15.2148 18.4297 14.8398 18.8047 14.3008 18.8047Z" fill="white"/>
</g>
<defs>
<clipPath id="clip0_2201_1299">
<rect width="26.5781" height="24.4336" fill="white" transform="translate(1 2)"/>
</clipPath>
</defs>
</svg>
