<svg width="28" height="28" viewBox="0 0 28 28" fill="none" xmlns="http://www.w3.org/2000/svg">
<g clipPath="url(#clip0_2201_1300)">
<path d="M6.08594 26.5508C7.66797 26.5508 10.9023 24.957 13.2812 23.2578C21.4492 23.4805 27.5781 18.793 27.5781 12.6523C27.5781 6.75781 21.6719 2 14.2891 2C6.90625 2 1 6.75781 1 12.6523C1 16.4961 3.46094 19.9062 7.16406 21.6172C6.63672 22.6367 5.65234 24.0195 5.125 24.7109C4.50391 25.5312 4.87891 26.5508 6.08594 26.5508ZM7.31641 24.6055C7.22266 24.6406 7.1875 24.5703 7.24609 24.4883C7.90234 23.6797 8.83984 22.4609 9.23828 21.7109C9.56641 21.1016 9.48438 20.5625 8.73438 20.2109C5.05469 18.5 2.94531 15.7695 2.94531 12.6523C2.94531 7.84766 7.97266 3.93359 14.2891 3.93359C20.6172 3.93359 25.6445 7.84766 25.6445 12.6523C25.6445 17.4453 20.6172 21.3594 14.2891 21.3594C14.0547 21.3594 13.6914 21.3477 13.2227 21.3359C12.7305 21.3359 12.3555 21.4883 11.9102 21.8398C10.4688 22.8828 8.38281 24.1719 7.31641 24.6055Z" fill="black" fillOpacity="0.85"/>
<path d="M14.3008 6.79297C13.7969 6.79297 13.4219 7.16797 13.4219 7.67188V13.543L13.5156 16.0039L12.3438 14.5977L10.9492 13.2031C10.7969 13.0391 10.5742 12.9453 10.3281 12.9453C9.84766 12.9453 9.48438 13.3086 9.48438 13.7891C9.48438 14.0234 9.55469 14.2344 9.70703 14.3867L13.6211 18.2891C13.8555 18.5234 14.0547 18.6172 14.3008 18.6172C14.5703 18.6172 14.7695 18.5117 14.9922 18.2891L18.8945 14.3867C19.0469 14.2344 19.1406 14.0234 19.1406 13.7891C19.1406 13.3086 18.7656 12.9453 18.2852 12.9453C18.0273 12.9453 17.8164 13.0273 17.6641 13.2031L16.2812 14.5977L15.0859 16.0273L15.1797 13.543V7.67188C15.1797 7.16797 14.8164 6.79297 14.3008 6.79297Z" fill="black" fillOpacity="0.85"/>
</g>
<defs>
<clipPath id="clip0_2201_1300">
<rect width="26.5781" height="24.5508" fill="white" transform="translate(1 2)"/>
</clipPath>
</defs>
</svg>
