<svg width="28" height="28" viewBox="0 0 28 28" fill="none" xmlns="http://www.w3.org/2000/svg">
<g clipPath="url(#clip0_2201_1309)">
<path d="M19.6211 26.7461C20.4414 26.7461 20.8984 26.1602 20.8984 25.2578V22.2109H21.4609C24.9531 22.2109 26.8281 20.2891 26.8281 16.8438V7.86719C26.8281 4.42188 24.9531 2.5 21.4609 2.5H6.36719C2.875 2.5 1 4.43359 1 7.86719V16.8438C1 20.2773 2.875 22.2109 6.36719 22.2109H13.8906L17.9336 25.8086C18.6484 26.4414 19.0469 26.7461 19.6211 26.7461ZM19.1406 24.6016L15.3906 20.875C14.9453 20.418 14.6172 20.3242 13.9609 20.3242H6.36719C4.01172 20.3242 2.88672 19.1172 2.88672 16.832V7.86719C2.88672 5.58203 4.01172 4.38672 6.36719 4.38672H21.4609C23.8281 4.38672 24.9414 5.58203 24.9414 7.86719V16.832C24.9414 19.1172 23.8281 20.3242 21.4609 20.3242H20.0195C19.3867 20.3242 19.1406 20.5703 19.1406 21.2031V24.6016Z" fill="black" fillOpacity="0.85"/>
</g>
<defs>
<clipPath id="clip0_2201_1309">
<rect width="25.8281" height="25.7461" fill="white" transform="translate(1 1)"/>
</clipPath>
</defs>
</svg>
