<svg width="28" height="28" viewBox="0 0 28 28" fill="none" xmlns="http://www.w3.org/2000/svg">
<g clipPath="url(#clip0_2201_1317)">
<path d="M13.9531 25.918C20.4922 25.918 25.9062 20.5039 25.9062 13.9648C25.9062 7.4375 20.4805 2.01172 13.9414 2.01172C7.41406 2.01172 2 7.4375 2 13.9648C2 20.5039 7.42578 25.918 13.9531 25.918Z" fill="black" fillOpacity="0.85"/>
<path d="M10.9297 20.9258C10.6016 20.9258 10.4023 20.6797 10.4023 20.3164V18.5938H10.1094C8.36328 18.5938 7.39062 17.6094 7.39062 15.8633V11.3047C7.39062 9.58203 8.36328 8.59766 10.1094 8.59766H17.7969C19.543 8.59766 20.5156 9.58203 20.5156 11.3047V15.8633C20.5156 17.6094 19.543 18.5938 17.7969 18.5938H13.7656L11.6094 20.5508C11.3281 20.8203 11.1641 20.9258 10.9297 20.9258Z" fill="white"/>
</g>
<defs>
<clipPath id="clip0_2201_1317">
<rect width="23.9062" height="23.918" fill="white" transform="translate(2 2)"/>
</clipPath>
</defs>
</svg>
