<svg width="28" height="28" viewBox="0 0 28 28" fill="none" xmlns="http://www.w3.org/2000/svg">
<g clipPath="url(#clip0_2201_1313)">
<path d="M13.9531 25.918C20.4922 25.918 25.9062 20.5039 25.9062 13.9648C25.9062 7.4375 20.4805 2.01172 13.9414 2.01172C7.41406 2.01172 2 7.4375 2 13.9648C2 20.5039 7.42578 25.918 13.9531 25.918Z" fill="black" fillOpacity="0.85"/>
<path d="M16.9766 20.9258C16.7422 20.9258 16.5781 20.8203 16.3086 20.5508L14.1523 18.5938H10.1094C8.36328 18.5938 7.39062 17.6094 7.39062 15.8633V11.3047C7.39062 9.58203 8.36328 8.59766 10.1094 8.59766H17.7969C19.543 8.59766 20.5156 9.58203 20.5156 11.3047V15.8633C20.5156 17.6094 19.543 18.5938 17.7969 18.5938H17.5039V20.3164C17.5039 20.6797 17.3047 20.9258 16.9766 20.9258Z" fill="white"/>
</g>
<defs>
<clipPath id="clip0_2201_1313">
<rect width="23.9062" height="23.918" fill="white" transform="translate(2 2)"/>
</clipPath>
</defs>
</svg>
