<svg width="28" height="28" viewBox="0 0 28 28" fill="none" xmlns="http://www.w3.org/2000/svg">
<g clipPath="url(#clip0_2201_1358)">
<path d="M13.8906 1C13.3633 1 12.8711 1.22266 12.4023 2.03125L10.2344 5.65234H6.36719C2.875 5.65234 1 7.57422 1 11.0195V19.9961C1 23.4414 2.875 25.3633 6.36719 25.3633H21.4609C24.9531 25.3633 26.8281 23.4297 26.8281 19.9961V11.0195C26.8281 7.58594 24.9531 5.65234 21.4609 5.65234H17.5469L15.3789 2.03125C14.9102 1.22266 14.418 1 13.8906 1ZM13.8906 2.92188L15.8477 6.58984C16.2344 7.35156 16.5156 7.53906 17.3477 7.53906H21.4609C23.8164 7.53906 24.9414 8.73438 24.9414 11.0195V19.9844C24.9414 22.2695 23.8164 23.4766 21.4609 23.4766H6.36719C4 23.4766 2.88672 22.2695 2.88672 19.9844V11.0195C2.88672 8.73438 4 7.53906 6.36719 7.53906H10.4336C11.2656 7.53906 11.5469 7.35156 11.9336 6.58984L13.8906 2.92188Z" fill="black" fillOpacity="0.85"/>
</g>
<defs>
<clipPath id="clip0_2201_1358">
<rect width="25.8281" height="26.168" fill="white" transform="translate(1 1)"/>
</clipPath>
</defs>
</svg>
