<svg width="28" height="28" viewBox="0 0 28 28" fill="none" xmlns="http://www.w3.org/2000/svg">
<g clipPath="url(#clip0_2201_1356)">
<path d="M13.8906 26.9805C14.418 26.9805 14.9102 26.7578 15.3789 25.9492L17.5469 22.3281H21.4609C24.9531 22.3281 26.8281 20.3945 26.8281 16.9609V7.98438C26.8281 4.55078 24.9531 2.61719 21.4609 2.61719H6.36719C2.875 2.61719 1 4.53906 1 7.98438V16.9609C1 20.4062 2.875 22.3281 6.36719 22.3281H10.2344L12.4023 25.9492C12.8711 26.7578 13.3633 26.9805 13.8906 26.9805ZM13.8906 25.0586L11.9336 21.3906C11.5469 20.6289 11.2656 20.4414 10.4336 20.4414H6.36719C4 20.4414 2.88672 19.2344 2.88672 16.9492V7.98438C2.88672 5.69922 4 4.50391 6.36719 4.50391H21.4609C23.8164 4.50391 24.9414 5.69922 24.9414 7.98438V16.9492C24.9414 19.2344 23.8164 20.4414 21.4609 20.4414H17.3477C16.5156 20.4414 16.2344 20.6289 15.8477 21.3906L13.8906 25.0586Z" fill="black" fillOpacity="0.85"/>
</g>
<defs>
<clipPath id="clip0_2201_1356">
<rect width="25.8281" height="25.9805" fill="white" transform="translate(1 1)"/>
</clipPath>
</defs>
</svg>
