<svg width="34" height="28" viewBox="0 0 34 28" fill="none" xmlns="http://www.w3.org/2000/svg">
<g clipPath="url(#clip0_2201_1362)">
<path d="M5.36719 20.7461H5.92969V23.8047C5.92969 24.707 6.38672 25.2812 7.20703 25.2812C7.78125 25.2812 8.17969 24.9766 8.89453 24.3555L12.9375 20.7461H20.4609C23.9531 20.7461 25.8281 18.8242 25.8281 15.3906V6.40234C25.8281 2.96875 23.9531 1.03516 20.4609 1.03516H5.36719C1.875 1.03516 0 2.96875 0 6.40234V15.3906C0 18.8242 1.875 20.7461 5.36719 20.7461ZM5.36719 18.8594C3 18.8594 1.88672 17.6641 1.88672 15.3789V6.41406C1.88672 4.12891 3 2.92188 5.36719 2.92188H20.4609C22.8164 2.92188 23.9414 4.12891 23.9414 6.41406V15.3789C23.9414 17.6641 22.8164 18.8594 20.4609 18.8594H12.8672C12.2109 18.8594 11.8828 18.9648 11.4375 19.4219L7.6875 23.1367V19.75C7.6875 19.1055 7.44141 18.8594 6.80859 18.8594H5.36719Z" fill="black" fillOpacity="0.85"/>
<path d="M17.625 23.5703H21.4219L25.3359 26.9219C26.0508 27.5312 26.4375 27.8477 27 27.8477C27.8086 27.8477 28.2656 27.2734 28.2656 26.3828V23.5703H28.5117C31.8867 23.5703 33.6562 21.7539 33.6562 18.4375V12.0977C33.6562 8.76953 31.8867 6.95312 28.5117 6.95312H17.625C14.25 6.95312 12.4805 8.76953 12.4805 12.0977V18.4375C12.4805 21.7656 14.25 23.5703 17.625 23.5703Z" fill="white"/>
<path d="M17.625 23.5703H21.4219L25.3359 26.9219C26.0508 27.5312 26.4375 27.8477 27 27.8477C27.8086 27.8477 28.2656 27.2734 28.2656 26.3828V23.5703H28.5117C31.8867 23.5703 33.6562 21.7539 33.6562 18.4375V12.0977C33.6562 8.76953 31.8867 6.95312 28.5117 6.95312H17.625C14.25 6.95312 12.4805 8.76953 12.4805 12.0977V18.4375C12.4805 21.7656 14.25 23.5703 17.625 23.5703ZM17.6602 21.6836C15.3633 21.6836 14.3789 20.6055 14.3789 18.4141V12.1211C14.3789 9.9297 15.3633 8.83984 17.6602 8.83984H28.4883C30.7734 8.83984 31.7695 9.9297 31.7695 12.1211V18.4023C31.7695 20.6055 30.7734 21.6836 28.4883 21.6836H27.4102C26.9062 21.6836 26.5078 21.9883 26.5078 22.6445V25.7148L22.5469 22.1758C22.1602 21.8125 21.832 21.6836 21.3516 21.6836H17.6602Z" fill="black" fillOpacity="0.85"/>
<path d="M23.0859 16.6445C23.6133 16.6445 23.918 16.3398 23.9414 15.7656L24.0938 11.6641C24.1172 11.0547 23.6602 10.6328 23.0742 10.6328C22.4766 10.6328 22.0312 11.043 22.0547 11.6641L22.207 15.7656C22.2305 16.3281 22.5234 16.6445 23.0859 16.6445ZM23.0742 20.207C23.7188 20.207 24.2812 19.7031 24.2812 19.0469C24.2812 18.4023 23.7305 17.8984 23.0742 17.8984C22.418 17.8984 21.8672 18.4141 21.8672 19.0469C21.8672 19.6914 22.4297 20.207 23.0742 20.207Z" fill="black" fillOpacity="0.85"/>
</g>
<defs>
<clipPath id="clip0_2201_1362">
<rect width="33.6562" height="26.8477" fill="white" transform="translate(0 1)"/>
</clipPath>
</defs>
</svg>
