<svg width="28" height="28" viewBox="0 0 28 28" fill="none" xmlns="http://www.w3.org/2000/svg">
<g clipPath="url(#clip0_2201_1312)">
<path d="M13.9531 25.9062C20.4922 25.9062 25.9062 20.4805 25.9062 13.9531C25.9062 7.41406 20.4805 2 13.9414 2C7.41406 2 2 7.41406 2 13.9531C2 20.4805 7.42578 25.9062 13.9531 25.9062ZM13.9531 23.9141C8.42188 23.9141 4.00391 19.4844 4.00391 13.9531C4.00391 8.42188 8.41016 3.99219 13.9414 3.99219C19.4727 3.99219 23.9141 8.42188 23.9141 13.9531C23.9141 19.4844 19.4844 23.9141 13.9531 23.9141Z" fill="black" fillOpacity="0.85"/>
<path d="M16.8945 20.7148C17.2109 20.7148 17.3984 20.4922 17.3984 20.1406V18.4648H17.6797C19.3789 18.4648 20.3164 17.5156 20.3164 15.8164V11.3984C20.3164 9.71094 19.3789 8.76172 17.6797 8.76172H10.2266C8.52734 8.76172 7.58984 9.72266 7.58984 11.3984V15.8164C7.58984 17.5156 8.52734 18.4648 10.2266 18.4648H14.1523L16.25 20.3633C16.5078 20.6094 16.6602 20.7148 16.8945 20.7148Z" fill="black" fillOpacity="0.85"/>
</g>
<defs>
<clipPath id="clip0_2201_1312">
<rect width="23.9062" height="23.918" fill="white" transform="translate(2 2)"/>
</clipPath>
</defs>
</svg>
