<svg width="36" height="31" viewBox="0 0 36 31" fill="none" xmlns="http://www.w3.org/2000/svg">
<g clipPath="url(#clip0_2201_1363)">
<path d="M5.36719 21.3398H5.92969V24.3984C5.92969 25.3008 6.39844 25.875 7.20703 25.875C7.79297 25.875 8.19141 25.5703 8.89453 24.9492L12.9492 21.3398H20.4609C23.9531 21.3398 25.8281 19.418 25.8281 15.9844V6.99609C25.8281 3.5625 23.9531 1.62891 20.4609 1.62891H5.36719C1.88672 1.62891 0 3.5625 0 6.99609V15.9844C0 19.418 1.88672 21.3398 5.36719 21.3398Z" fill="black" fillOpacity="0.85"/>
<path d="M17.6367 25.7695H20.8359L24.3047 28.7227C25.3008 29.5898 25.9688 30.0352 27.0117 30.0352C28.6758 30.0352 29.8711 28.793 29.8711 26.9766V25.6523H29.8945C33.3164 25.1602 35.2617 22.7461 35.2617 19.0312V12.6914C35.2617 8.49609 32.7891 5.95312 28.5117 5.95312H17.6367C13.3477 5.95312 10.8867 8.49609 10.8867 12.6914V19.0312C10.8867 23.2266 13.3477 25.7695 17.6367 25.7695Z" fill="white"/>
<path d="M17.6367 24.1641H21.4219L25.3359 27.5156C26.0508 28.125 26.4375 28.4414 27.0117 28.4414C27.8203 28.4414 28.2773 27.8672 28.2773 26.9766V24.1641H28.5117C31.8867 24.1641 33.6562 22.3477 33.6562 19.0312V12.6914C33.6562 9.36327 31.8867 7.54688 28.5117 7.54688H17.6367C14.2617 7.54688 12.4922 9.36327 12.4922 12.6914V19.0312C12.4922 22.3594 14.2617 24.1641 17.6367 24.1641Z" fill="black" fillOpacity="0.85"/>
<path d="M23.0742 17.1562C22.5469 17.1562 22.2656 16.8633 22.2539 16.3242L22.1133 12.4922C22.0898 11.918 22.5 11.5195 23.0625 11.5195C23.625 11.5195 24.0469 11.9297 24.0234 12.5039L23.8828 16.3242C23.8594 16.875 23.5781 17.1562 23.0742 17.1562ZM23.0625 20.4961C22.4648 20.4961 21.9375 20.0039 21.9375 19.4062C21.9375 18.8086 22.4531 18.3164 23.0625 18.3164C23.6836 18.3164 24.1992 18.7969 24.1992 19.4062C24.1992 20.0156 23.6719 20.4961 23.0625 20.4961Z" fill="white"/>
</g>
<defs>
<clipPath id="clip0_2201_1363">
<rect width="35.2617" height="30.0352" fill="white"/>
</clipPath>
</defs>
</svg>
