<svg width="28" height="28" viewBox="0 0 28 28" fill="none" xmlns="http://www.w3.org/2000/svg">
<g clipPath="url(#clip0_2201_1332)">
<path d="M8.20703 26.7461C8.78125 26.7461 9.17969 26.4414 9.89453 25.8086L13.9375 22.2109H21.4609C24.9531 22.2109 26.8281 20.2773 26.8281 16.8438V7.86719C26.8281 4.43359 24.9531 2.5 21.4609 2.5H6.36719C2.875 2.5 1 4.42188 1 7.86719V16.8438C1 20.2891 2.875 22.2109 6.36719 22.2109H6.92969V25.2578C6.92969 26.1602 7.38672 26.7461 8.20703 26.7461ZM8.6875 24.6016V21.2031C8.6875 20.5703 8.44141 20.3242 7.80859 20.3242H6.36719C4 20.3242 2.88672 19.1172 2.88672 16.832V7.86719C2.88672 5.58203 4 4.38672 6.36719 4.38672H21.4609C23.8164 4.38672 24.9414 5.58203 24.9414 7.86719V16.832C24.9414 19.1172 23.8164 20.3242 21.4609 20.3242H13.8672C13.2109 20.3242 12.8828 20.418 12.4375 20.875L8.6875 24.6016Z" fill="black" fillOpacity="0.85"/>
<path d="M6.50781 13.7148H11.3359C11.7109 13.7148 12.0156 13.4102 12.0156 13.0234C12.0156 12.6602 11.7109 12.3555 11.3359 12.3555H6.50781C6.13281 12.3555 5.82812 12.6602 5.82812 13.0234C5.82812 13.4102 6.13281 13.7148 6.50781 13.7148ZM13.7617 13.7148H21.3438C21.7188 13.7148 22.0117 13.4102 22.0117 13.0234C22.0117 12.6602 21.7188 12.3555 21.3438 12.3555H13.7617C13.3867 12.3555 13.082 12.6602 13.082 13.0234C13.082 13.4102 13.3867 13.7148 13.7617 13.7148ZM6.50781 16.7734H8.5C8.875 16.7734 9.16797 16.4805 9.16797 16.1055C9.16797 15.7188 8.875 15.4141 8.5 15.4141H6.50781C6.13281 15.4141 5.82812 15.7188 5.82812 16.1055C5.82812 16.4805 6.13281 16.7734 6.50781 16.7734ZM10.9141 16.7734H16.7852C17.1602 16.7734 17.4648 16.4805 17.4648 16.1055C17.4648 15.7188 17.1602 15.4141 16.7852 15.4141H10.9141C10.5391 15.4141 10.2461 15.7188 10.2461 16.1055C10.2461 16.4805 10.5391 16.7734 10.9141 16.7734ZM19.2109 16.7734H21.3438C21.7188 16.7734 22.0117 16.4805 22.0117 16.1055C22.0117 15.7188 21.7188 15.4141 21.3438 15.4141H19.2109C18.8359 15.4141 18.5312 15.7188 18.5312 16.1055C18.5312 16.4805 18.8359 16.7734 19.2109 16.7734Z" fill="black" fillOpacity="0.85"/>
</g>
<defs>
<clipPath id="clip0_2201_1332">
<rect width="25.8281" height="25.7461" fill="white" transform="translate(1 1)"/>
</clipPath>
</defs>
</svg>
