<svg width="28" height="28" viewBox="0 0 28 28" fill="none" xmlns="http://www.w3.org/2000/svg">
<g clipPath="url(#clip0_2201_1333)">
<path d="M7.96094 26.8867C8.41797 26.8867 8.75781 26.6523 9.30859 26.1367L13.5391 22.2695H21.4609C24.9531 22.2695 26.8281 20.3477 26.8281 16.9141V7.9375C26.8281 4.50391 24.9531 2.57031 21.4609 2.57031H6.36719C2.875 2.57031 1 4.49219 1 7.9375V16.9141C1 20.3594 2.875 22.2695 6.36719 22.2695H6.91797V25.6797C6.91797 26.4062 7.29297 26.8867 7.96094 26.8867Z" fill="black" fillOpacity="0.85"/>
<path d="M6.28516 13.75C5.89844 13.75 5.58203 13.4336 5.58203 13.0352C5.58203 12.6602 5.89844 12.3438 6.28516 12.3438H11.2539C11.6406 12.3438 11.957 12.6602 11.957 13.0352C11.957 13.4336 11.6406 13.75 11.2539 13.75H6.28516ZM13.75 13.75C13.3633 13.75 13.0469 13.4336 13.0469 13.0352C13.0469 12.6602 13.3633 12.3438 13.75 12.3438H21.5664C21.9531 12.3438 22.2578 12.6602 22.2578 13.0352C22.2578 13.4336 21.9531 13.75 21.5664 13.75H13.75ZM6.28516 16.9023C5.89844 16.9023 5.58203 16.5977 5.58203 16.2109C5.58203 15.8125 5.89844 15.4961 6.28516 15.4961H8.33594C8.72266 15.4961 9.02734 15.8125 9.02734 16.2109C9.02734 16.5977 8.72266 16.9023 8.33594 16.9023H6.28516ZM10.8203 16.9023C10.4336 16.9023 10.1289 16.5977 10.1289 16.2109C10.1289 15.8125 10.4336 15.4961 10.8203 15.4961H16.8789C17.2656 15.4961 17.582 15.8125 17.582 16.2109C17.582 16.5977 17.2656 16.9023 16.8789 16.9023H10.8203ZM19.375 16.9023C18.9883 16.9023 18.6719 16.5977 18.6719 16.2109C18.6719 15.8125 18.9883 15.4961 19.375 15.4961H21.5664C21.9531 15.4961 22.2578 15.8125 22.2578 16.2109C22.2578 16.5977 21.9531 16.9023 21.5664 16.9023H19.375Z" fill="white"/>
</g>
<defs>
<clipPath id="clip0_2201_1333">
<rect width="25.8281" height="25.8867" fill="white" transform="translate(1 1)"/>
</clipPath>
</defs>
</svg>
