<svg width="28" height="28" viewBox="0 0 28 28" fill="none" xmlns="http://www.w3.org/2000/svg">
<g clipPath="url(#clip0_2201_1328)">
<path d="M8.20703 26.7461C8.78125 26.7461 9.17969 26.4414 9.89453 25.8086L13.9375 22.2109H21.4609C24.9531 22.2109 26.8281 20.2773 26.8281 16.8438V7.86719C26.8281 4.43359 24.9531 2.5 21.4609 2.5H6.36719C2.875 2.5 1 4.42188 1 7.86719V16.8438C1 20.2891 2.875 22.2109 6.36719 22.2109H6.92969V25.2578C6.92969 26.1602 7.38672 26.7461 8.20703 26.7461ZM8.6875 24.6016V21.2031C8.6875 20.5703 8.44141 20.3242 7.80859 20.3242H6.36719C4 20.3242 2.88672 19.1172 2.88672 16.832V7.86719C2.88672 5.58203 4 4.38672 6.36719 4.38672H21.4609C23.8164 4.38672 24.9414 5.58203 24.9414 7.86719V16.832C24.9414 19.1172 23.8164 20.3242 21.4609 20.3242H13.8672C13.2109 20.3242 12.8828 20.418 12.4375 20.875L8.6875 24.6016Z" fill="black" fillOpacity="0.85"/>
<path d="M10.0703 17.875C10.4922 17.875 10.7852 17.6758 10.9727 17.125L11.8281 14.6289H16.0117L16.8672 17.125C17.0547 17.6641 17.3477 17.875 17.7812 17.875C18.2969 17.875 18.6367 17.5469 18.6367 17.0664C18.6367 16.8789 18.6016 16.7148 18.5078 16.457L15.2266 7.60938C15.0039 7 14.5469 6.68359 13.9141 6.68359C13.2812 6.68359 12.8359 7 12.6133 7.60938L9.33204 16.457C9.23829 16.7148 9.20312 16.8789 9.20312 17.0547C9.20312 17.5469 9.54297 17.875 10.0703 17.875ZM12.2969 13.2227L13.8555 8.6875H13.9844L15.543 13.2227H12.2969Z" fill="black" fillOpacity="0.85"/>
</g>
<defs>
<clipPath id="clip0_2201_1328">
<rect width="25.8281" height="25.7461" fill="white" transform="translate(1 1)"/>
</clipPath>
</defs>
</svg>
