<svg width="28" height="28" viewBox="0 0 28 28" fill="none" xmlns="http://www.w3.org/2000/svg">
<g clipPath="url(#clip0_2201_1329)">
<path d="M7.96094 26.8867C8.41797 26.8867 8.75781 26.6523 9.30859 26.1367L13.5391 22.2695H21.4609C24.9531 22.2695 26.8281 20.3477 26.8281 16.9141V7.9375C26.8281 4.50391 24.9531 2.57031 21.4609 2.57031H6.36719C2.875 2.57031 1 4.49219 1 7.9375V16.9141C1 20.3594 2.875 22.2695 6.36719 22.2695H6.91797V25.6797C6.91797 26.4062 7.29297 26.8867 7.96094 26.8867Z" fill="black" fillOpacity="0.85"/>
<path d="M9.95312 18.0742C9.40234 18.0742 9.05078 17.7344 9.05078 17.2422C9.05078 17.0547 9.07422 16.8789 9.17969 16.6094L12.5664 7.49219C12.8008 6.85938 13.2578 6.54297 13.9141 6.54297C14.5703 6.54297 15.0391 6.85938 15.2734 7.49219L18.6602 16.6094C18.7656 16.8789 18.7891 17.0547 18.7891 17.2422C18.7891 17.7344 18.4375 18.0742 17.8984 18.0742C17.4531 18.0742 17.1484 17.875 16.9492 17.3008L16.0703 14.7344H11.7695L10.8906 17.3008C10.6914 17.875 10.3867 18.0742 9.95312 18.0742ZM12.25 13.2695H15.5898L13.9844 8.60547H13.8555L12.25 13.2695Z" fill="white"/>
</g>
<defs>
<clipPath id="clip0_2201_1329">
<rect width="25.8281" height="25.8867" fill="white" transform="translate(1 1)"/>
</clipPath>
</defs>
</svg>
