<svg width="28" height="28" viewBox="0 0 28 28" fill="none" xmlns="http://www.w3.org/2000/svg">
<g clipPath="url(#clip0_2201_1297)">
<path d="M5.64062 26.4336C7.04688 26.4336 10.5508 24.8984 12.543 23.4688C12.7422 23.3281 12.9062 23.2695 13.0703 23.2695C13.2227 23.2812 13.375 23.293 13.5273 23.293C21.9766 23.293 27.5781 18.4883 27.5781 12.6523C27.5781 6.75781 21.6719 2 14.2891 2C6.90625 2 1 6.75781 1 12.6523C1 16.4023 3.30859 19.6953 7.07031 21.7109C7.24609 21.8047 7.30469 21.9805 7.21094 22.1562C6.55469 23.2344 5.38281 24.5234 4.9375 25.1094C4.48047 25.6953 4.73828 26.4336 5.64062 26.4336Z" fill="black" fillOpacity="0.85"/>
<path d="M12.9766 18.4883C12.5781 18.4883 12.25 18.3359 11.9453 17.9258L9.00391 14.3164C8.82812 14.082 8.72266 13.8125 8.72266 13.5547C8.72266 13.0156 9.13281 12.582 9.67188 12.582C10 12.582 10.2578 12.6992 10.5508 13.0859L12.9297 16.1445L17.9336 8.11719C18.1562 7.75391 18.4609 7.57812 18.7773 7.57812C19.2812 7.57812 19.7617 7.92969 19.7617 8.46875C19.7617 8.72656 19.6094 9.00781 19.4688 9.24219L13.9609 17.9258C13.7148 18.3008 13.375 18.4883 12.9766 18.4883Z" fill="white"/>
</g>
<defs>
<clipPath id="clip0_2201_1297">
<rect width="26.5781" height="24.4336" fill="white" transform="translate(1 2)"/>
</clipPath>
</defs>
</svg>
