<svg width="28" height="28" viewBox="0 0 28 28" fill="none" xmlns="http://www.w3.org/2000/svg">
<g clipPath="url(#clip0_2201_1340)">
<path d="M8.20703 26.7461C8.78125 26.7461 9.17969 26.4414 9.89453 25.8086L13.9375 22.2109H21.4609C24.9531 22.2109 26.8281 20.2773 26.8281 16.8438V7.86719C26.8281 4.43359 24.9531 2.5 21.4609 2.5H6.36719C2.875 2.5 1 4.42188 1 7.86719V16.8438C1 20.2891 2.875 22.2109 6.36719 22.2109H6.92969V25.2578C6.92969 26.1602 7.38672 26.7461 8.20703 26.7461ZM8.6875 24.6016V21.2031C8.6875 20.5703 8.44141 20.3242 7.80859 20.3242H6.36719C4 20.3242 2.88672 19.1172 2.88672 16.832V7.86719C2.88672 5.58203 4 4.38672 6.36719 4.38672H21.4609C23.8164 4.38672 24.9414 5.58203 24.9414 7.86719V16.832C24.9414 19.1172 23.8164 20.3242 21.4609 20.3242H13.8672C13.2109 20.3242 12.8828 20.418 12.4375 20.875L8.6875 24.6016Z" fill="black" fillOpacity="0.85"/>
<path d="M12.6484 17.9219C13.0352 17.9219 13.3633 17.7344 13.5859 17.3711L18.9414 8.94531C19.082 8.72266 19.2344 8.45312 19.2344 8.19531C19.2344 7.66797 18.7656 7.32812 18.2734 7.32812C17.9688 7.32812 17.6758 7.51562 17.4648 7.85547L12.5898 15.6602L10.2812 12.6719C10.0117 12.2969 9.74219 12.2031 9.42578 12.2031C8.91016 12.2031 8.52344 12.6133 8.52344 13.1289C8.52344 13.3867 8.61719 13.6328 8.78125 13.8555L11.6406 17.3711C11.9453 17.7578 12.25 17.9219 12.6484 17.9219Z" fill="black" fillOpacity="0.85"/>
</g>
<defs>
<clipPath id="clip0_2201_1340">
<rect width="25.8281" height="25.7461" fill="white" transform="translate(1 1)"/>
</clipPath>
</defs>
</svg>
