<svg width="28" height="28" viewBox="0 0 28 28" fill="none" xmlns="http://www.w3.org/2000/svg">
<g clipPath="url(#clip0_2201_1341)">
<path d="M7.96094 26.8867C8.41797 26.8867 8.75781 26.6523 9.30859 26.1367L13.5391 22.2695H21.4609C24.9531 22.2695 26.8281 20.3477 26.8281 16.9141V7.9375C26.8281 4.50391 24.9531 2.57031 21.4609 2.57031H6.36719C2.875 2.57031 1 4.49219 1 7.9375V16.9141C1 20.3594 2.875 22.2695 6.36719 22.2695H6.91797V25.6797C6.91797 26.4062 7.29297 26.8867 7.96094 26.8867Z" fill="black" fillOpacity="0.85"/>
<path d="M12.6133 18.1445C12.2031 18.1445 11.8867 17.9805 11.5703 17.5703L8.62891 13.9609C8.45312 13.7266 8.35938 13.4688 8.35938 13.1992C8.35938 12.6719 8.7578 12.2383 9.29688 12.2383C9.62499 12.2383 9.89453 12.3438 10.1758 12.7305L12.5547 15.8008L17.5703 7.76172C17.7812 7.41016 18.0859 7.22266 18.4023 7.22266C18.918 7.22266 19.3984 7.57422 19.3984 8.125C19.3984 8.38281 19.2461 8.66406 19.0938 8.89844L13.5859 17.5703C13.3516 17.957 13.0117 18.1445 12.6133 18.1445Z" fill="white"/>
</g>
<defs>
<clipPath id="clip0_2201_1341">
<rect width="25.8281" height="25.8867" fill="white" transform="translate(1 1)"/>
</clipPath>
</defs>
</svg>
