<svg width="28" height="29" viewBox="0 0 28 29" fill="none" xmlns="http://www.w3.org/2000/svg">
<g clipPath="url(#clip0_2201_1421)">
<path d="M2.96094 28.3945H25.1094C25.6602 28.3945 26.0938 27.9609 26.0938 27.4219C26.0938 26.8711 25.6602 26.4492 25.1094 26.4492H2.96094C2.42188 26.4492 2 26.8711 2 27.4219C2 27.9609 2.42188 28.3945 2.96094 28.3945Z" fill="black" fillOpacity="0.85"/>
<path d="M10.6484 14.6133H17.4219C19.6133 14.6133 20.9141 13.2773 20.9141 11.0859V3.52734C20.9141 1.45312 19.6367 0 17.4219 0H10.6484C8.48047 0 7.15625 1.34766 7.15625 3.52734V11.0859C7.15625 13.2773 8.48047 14.6133 10.6484 14.6133ZM10.8477 12.7266C9.5 12.7266 8.94922 12.1172 8.94922 10.8633V3.77344C8.94922 2.49609 9.5 1.88672 10.8477 1.88672H17.2227C18.5703 1.88672 19.1328 2.49609 19.1328 3.77344V10.8633C19.1328 12.1172 18.5703 12.7266 17.2227 12.7266H10.8477ZM9.69922 20.0859H18.3711C19.2969 20.0859 19.9531 19.4531 19.9531 18.5625C19.9531 18.1875 19.7305 17.707 19.4141 17.3438L16.8477 14.3086H14.5625L17.5391 17.8945C17.6562 18.0469 17.5625 18.1992 17.3984 18.1992H10.6836C10.5078 18.1992 10.4141 18.0469 10.543 17.8945L13.5195 14.3086H11.2227L8.66797 17.3438C8.33984 17.7188 8.12891 18.1992 8.12891 18.5625C8.12891 19.4531 8.77344 20.0859 9.69922 20.0859Z" fill="black" fillOpacity="0.85"/>
</g>
<defs>
<clipPath id="clip0_2201_1421">
<rect width="24.0938" height="28.4883" fill="white" transform="translate(2)"/>
</clipPath>
</defs>
</svg>
