<svg width="28" height="29" viewBox="0 0 28 29" fill="none" xmlns="http://www.w3.org/2000/svg">
<g clipPath="url(#clip0_2201_1422)">
<path d="M2.96094 28.3945H25.1094C25.6602 28.3945 26.0938 27.9609 26.0938 27.4219C26.0938 26.8711 25.6602 26.4492 25.1094 26.4492H2.96094C2.42188 26.4492 2 26.8711 2 27.4219C2 27.9609 2.42188 28.3945 2.96094 28.3945Z" fill="black" fillOpacity="0.85"/>
<path d="M9.86328 13.5938H18.2305C19.9062 13.5938 20.9141 12.6445 20.9141 10.9688V2.71875C20.9141 1.07812 19.9062 0 18.2305 0H9.86328C8.19922 0 7.17969 0.996094 7.17969 2.71875V10.8867C7.17969 12.5742 8.19922 13.5938 9.86328 13.5938ZM9.48828 20.0859H18.6055C19.2852 20.0859 19.7539 19.6406 19.7539 18.9844C19.7539 18.6914 19.6133 18.3281 19.3789 18.0352L16.707 14.9531H11.375L8.76172 18.0352C8.50391 18.3398 8.33984 18.6914 8.33984 18.9844C8.33984 19.6406 8.80859 20.0859 9.48828 20.0859Z" fill="black" fillOpacity="0.85"/>
</g>
<defs>
<clipPath id="clip0_2201_1422">
<rect width="24.0938" height="28.4883" fill="white" transform="translate(2)"/>
</clipPath>
</defs>
</svg>
