<svg width="28" height="28" viewBox="0 0 28 28" fill="none" xmlns="http://www.w3.org/2000/svg">
<g clipPath="url(#clip0_2201_1344)">
<path d="M8.20703 26.7461C8.78125 26.7461 9.17969 26.4414 9.89453 25.8086L13.9375 22.2109H21.4609C24.9531 22.2109 26.8281 20.2773 26.8281 16.8438V7.86719C26.8281 4.43359 24.9531 2.5 21.4609 2.5H6.36719C2.875 2.5 1 4.42188 1 7.86719V16.8438C1 20.2891 2.875 22.2109 6.36719 22.2109H6.92969V25.2578C6.92969 26.1602 7.38672 26.7461 8.20703 26.7461ZM8.6875 24.6016V21.2031C8.6875 20.5703 8.44141 20.3242 7.80859 20.3242H6.36719C4 20.3242 2.88672 19.1172 2.88672 16.832V7.86719C2.88672 5.58203 4 4.38672 6.36719 4.38672H21.4609C23.8164 4.38672 24.9414 5.58203 24.9414 7.86719V16.832C24.9414 19.1172 23.8164 20.3242 21.4609 20.3242H13.8672C13.2109 20.3242 12.8828 20.418 12.4375 20.875L8.6875 24.6016Z" fill="black" fillOpacity="0.85"/>
<path d="M19.6562 14.0312C20.582 14.0312 21.332 13.2812 21.332 12.3555C21.332 11.4297 20.582 10.6797 19.6562 10.6797C18.7305 10.6797 17.9805 11.4297 17.9805 12.3555C17.9805 13.2812 18.7305 14.0312 19.6562 14.0312Z" fill="black" fillOpacity="0.85"/>
<path d="M13.9258 14.0312C14.8398 14.0312 15.6016 13.2812 15.6016 12.3555C15.6016 11.4297 14.8398 10.6797 13.9258 10.6797C13 10.6797 12.2383 11.4297 12.2383 12.3555C12.2383 13.2812 13 14.0312 13.9258 14.0312Z" fill="black" fillOpacity="0.85"/>
<path d="M8.18359 14.0312C9.10938 14.0312 9.85938 13.2812 9.85938 12.3555C9.85938 11.4297 9.10938 10.6797 8.18359 10.6797C7.25781 10.6797 6.50781 11.4297 6.50781 12.3555C6.50781 13.2812 7.25781 14.0312 8.18359 14.0312Z" fill="black" fillOpacity="0.85"/>
</g>
<defs>
<clipPath id="clip0_2201_1344">
<rect width="25.8281" height="25.7461" fill="white" transform="translate(1 1)"/>
</clipPath>
</defs>
</svg>
