<svg width="28" height="28" viewBox="0 0 28 28" fill="none" xmlns="http://www.w3.org/2000/svg">
<g clipPath="url(#clip0_2201_1347)">
<path d="M7.96094 26.8867C8.41797 26.8867 8.75781 26.6523 9.30859 26.1367L13.5391 22.2695H21.4609C24.9531 22.2695 26.8281 20.3477 26.8281 16.9141V7.9375C26.8281 4.50391 24.9531 2.57031 21.4609 2.57031H6.36719C2.875 2.57031 1 4.49219 1 7.9375V16.9141C1 20.3594 2.875 22.2695 6.36719 22.2695H6.91797V25.6797C6.91797 26.4062 7.29297 26.8867 7.96094 26.8867Z" fill="black" fillOpacity="0.85"/>
<path d="M13.9258 9.09766C13 9.09766 12.2617 8.34766 12.2617 7.43359C12.2617 6.51953 13 5.76953 13.9258 5.76953C14.8516 5.76953 15.5898 6.51953 15.5898 7.43359C15.5898 8.34766 14.8516 9.09766 13.9258 9.09766Z" fill="white"/>
<path d="M13.9258 14.0898C13 14.0898 12.2617 13.3516 12.2617 12.4258C12.2617 11.5 13 10.7617 13.9258 10.7617C14.8516 10.7617 15.5898 11.5 15.5898 12.4258C15.5898 13.3516 14.8516 14.0898 13.9258 14.0898Z" fill="white"/>
<path d="M13.9258 19.0703C13 19.0703 12.2617 18.332 12.2617 17.418C12.2617 16.4922 13 15.7539 13.9258 15.7539C14.8516 15.7539 15.5898 16.4922 15.5898 17.418C15.5898 18.332 14.8516 19.0703 13.9258 19.0703Z" fill="white"/>
</g>
<defs>
<clipPath id="clip0_2201_1347">
<rect width="25.8281" height="25.8867" fill="white" transform="translate(1 1)"/>
</clipPath>
</defs>
</svg>
