<svg width="28" height="28" viewBox="0 0 28 28" fill="none" xmlns="http://www.w3.org/2000/svg">
<g clipPath="url(#clip0_2201_1346)">
<path d="M8.20703 26.7461C8.78125 26.7461 9.17969 26.4414 9.89453 25.8086L13.9375 22.2109H21.4609C24.9531 22.2109 26.8281 20.2773 26.8281 16.8438V7.86719C26.8281 4.43359 24.9531 2.5 21.4609 2.5H6.36719C2.875 2.5 1 4.42188 1 7.86719V16.8438C1 20.2891 2.875 22.2109 6.36719 22.2109H6.92969V25.2578C6.92969 26.1602 7.38672 26.7461 8.20703 26.7461ZM8.6875 24.6016V21.2031C8.6875 20.5703 8.44141 20.3242 7.80859 20.3242H6.36719C4 20.3242 2.88672 19.1172 2.88672 16.832V7.86719C2.88672 5.58203 4 4.38672 6.36719 4.38672H21.4609C23.8164 4.38672 24.9414 5.58203 24.9414 7.86719V16.832C24.9414 19.1172 23.8164 20.3242 21.4609 20.3242H13.8672C13.2109 20.3242 12.8828 20.418 12.4375 20.875L8.6875 24.6016Z" fill="black" fillOpacity="0.85"/>
<path d="M13.9258 9.12109C14.8164 9.12109 15.5312 8.39453 15.5312 7.51562C15.5312 6.625 14.8164 5.89844 13.9258 5.89844C13.0352 5.89844 12.3203 6.625 12.3203 7.51562C12.3203 8.39453 13.0352 9.12109 13.9258 9.12109Z" fill="black" fillOpacity="0.85"/>
<path d="M13.9258 13.9609C14.8164 13.9609 15.5312 13.2461 15.5312 12.3555C15.5312 11.4648 14.8164 10.75 13.9258 10.75C13.0352 10.75 12.3203 11.4648 12.3203 12.3555C12.3203 13.2461 13.0352 13.9609 13.9258 13.9609Z" fill="black" fillOpacity="0.85"/>
<path d="M13.9258 18.8008C14.8164 18.8008 15.5312 18.0859 15.5312 17.1953C15.5312 16.3047 14.8164 15.5898 13.9258 15.5898C13.0352 15.5898 12.3203 16.3047 12.3203 17.1953C12.3203 18.0859 13.0352 18.8008 13.9258 18.8008Z" fill="black" fillOpacity="0.85"/>
</g>
<defs>
<clipPath id="clip0_2201_1346">
<rect width="25.8281" height="25.7461" fill="white" transform="translate(1 1)"/>
</clipPath>
</defs>
</svg>
