<svg width="28" height="28" viewBox="0 0 28 28" fill="none" xmlns="http://www.w3.org/2000/svg">
<g clipPath="url(#clip0_2201_1305)">
<path d="M5.64062 26.4336C7.04688 26.4336 10.5508 24.8984 12.543 23.4688C12.7422 23.3281 12.9062 23.2695 13.0703 23.2695C13.2227 23.2812 13.375 23.293 13.5273 23.293C21.9766 23.293 27.5781 18.4883 27.5781 12.6523C27.5781 6.75781 21.6719 2 14.2891 2C6.90625 2 1 6.75781 1 12.6523C1 16.4023 3.30859 19.6953 7.07031 21.7109C7.24609 21.8047 7.30469 21.9805 7.21094 22.1562C6.55469 23.2344 5.38281 24.5234 4.9375 25.1094C4.48047 25.6953 4.73828 26.4336 5.64062 26.4336Z" fill="black" fillOpacity="0.85"/>
<path d="M19.9375 14.5156C18.9648 14.5156 18.1797 13.7305 18.1797 12.7578C18.1797 11.7852 18.9648 11 19.9375 11C20.8867 11 21.6953 11.7852 21.6953 12.7578C21.6953 13.7305 20.8867 14.5156 19.9375 14.5156Z" fill="white"/>
<path d="M14.2891 14.5156C13.3164 14.5156 12.5312 13.7305 12.5312 12.7578C12.5312 11.7852 13.3164 11 14.2891 11C15.2617 11 16.0469 11.7852 16.0469 12.7578C16.0469 13.7305 15.2617 14.5156 14.2891 14.5156Z" fill="white"/>
<path d="M8.65234 14.5156C7.69141 14.5156 6.89453 13.7305 6.89453 12.7578C6.89453 11.7852 7.69141 11 8.65234 11C9.60156 11 10.3984 11.7852 10.3984 12.7578C10.3984 13.7305 9.61328 14.5156 8.65234 14.5156Z" fill="white"/>
</g>
<defs>
<clipPath id="clip0_2201_1305">
<rect width="26.5781" height="24.4336" fill="white" transform="translate(1 2)"/>
</clipPath>
</defs>
</svg>
