<svg width="28" height="28" viewBox="0 0 28 28" fill="none" xmlns="http://www.w3.org/2000/svg">
<g clipPath="url(#clip0_2201_1345)">
<path d="M7.96094 26.8867C8.41797 26.8867 8.75781 26.6523 9.30859 26.1367L13.5391 22.2695H21.4609C24.9531 22.2695 26.8281 20.3477 26.8281 16.9141V7.9375C26.8281 4.50391 24.9531 2.57031 21.4609 2.57031H6.36719C2.875 2.57031 1 4.49219 1 7.9375V16.9141C1 20.3594 2.875 22.2695 6.36719 22.2695H6.91797V25.6797C6.91797 26.4062 7.29297 26.8867 7.96094 26.8867Z" fill="black" fillOpacity="0.85"/>
<path d="M19.8438 14.1484C18.8828 14.1484 18.1094 13.375 18.1094 12.4141C18.1094 11.4531 18.8828 10.6797 19.8438 10.6797C20.8047 10.6797 21.5781 11.4531 21.5781 12.4141C21.5781 13.375 20.8047 14.1484 19.8438 14.1484Z" fill="white"/>
<path d="M13.9258 14.1484C12.9648 14.1484 12.1797 13.375 12.1797 12.4141C12.1797 11.4531 12.9648 10.6797 13.9258 10.6797C14.875 10.6797 15.6602 11.4531 15.6602 12.4141C15.6602 13.375 14.875 14.1484 13.9258 14.1484Z" fill="white"/>
<path d="M7.99609 14.1484C7.04688 14.1484 6.26172 13.375 6.26172 12.4141C6.26172 11.4531 7.04688 10.6797 7.99609 10.6797C8.95703 10.6797 9.73047 11.4531 9.73047 12.4141C9.73047 13.375 8.95703 14.1484 7.99609 14.1484Z" fill="white"/>
</g>
<defs>
<clipPath id="clip0_2201_1345">
<rect width="25.8281" height="25.8867" fill="white" transform="translate(1 1)"/>
</clipPath>
</defs>
</svg>
