<svg width="29" height="28" viewBox="0 0 29 28" fill="none" xmlns="http://www.w3.org/2000/svg">
<g clipPath="url(#clip0_2201_1434)">
<path d="M0.175781 24.9023L8.87109 17.0625L2.47266 10.6758C2.14453 10.3477 2.16797 9.86719 2.57812 9.59766L12.9961 2.41406C13.8281 1.83984 14.4375 1.83984 15.2695 2.41406L25.6875 9.59766C26.0977 9.86719 26.1094 10.3594 25.793 10.6758L19.3945 17.0625L28.0898 24.9023C28.207 24.4805 28.2656 24.0117 28.2656 23.4844V11.6016C28.2656 9.91406 27.9727 9.10547 26.8008 8.28516L16.5234 1.13672C14.7539 -0.105469 13.5117 -0.105469 11.7422 1.13672L1.46484 8.28516C0.304688 9.10547 0 9.91406 0 11.6016V23.4844C0 24.0117 0.0703125 24.4805 0.175781 24.9023ZM3.67969 27.1055H24.5977C25.8633 27.1055 26.6602 26.7891 27.2344 26.2852L15.7148 15.9141C15.1992 15.4453 14.6719 15.2344 14.1328 15.2344C13.5938 15.2344 13.0664 15.4453 12.5508 15.9141L1.04297 26.2734C1.61719 26.7891 2.41406 27.1055 3.67969 27.1055Z" fill="black" fillOpacity="0.85"/>
</g>
<defs>
<clipPath id="clip0_2201_1434">
<rect width="28.2656" height="27.1055" fill="white"/>
</clipPath>
</defs>
</svg>
