<svg width="29" height="28" viewBox="0 0 29 28" fill="none" xmlns="http://www.w3.org/2000/svg">
<g clipPath="url(#clip0_2201_1431)">
<path d="M3.67969 27.8086H24.9492C27.0469 27.8086 28.2773 26.5898 28.2773 24.1758V11.2383C28.2773 8.82422 27.0352 7.60547 24.5977 7.60547H3.32812C1.23047 7.60547 0 8.82422 0 11.2383V24.1758C0 26.5898 1.24219 27.8086 3.67969 27.8086ZM3.60938 26.0156C2.44922 26.0156 1.79297 25.3711 1.79297 24.1641V11.2266C1.79297 10.0312 2.44922 9.39844 3.60938 9.39844H24.6562C25.8164 9.39844 26.4844 10.0312 26.4844 11.2383V24.1758C26.4844 25.3711 25.8164 26.0156 24.6562 26.0156H3.60938ZM14.1328 20.7891C14.8828 20.7891 15.6094 20.4961 16.2773 19.8984L27.3047 9.97266L26.0859 8.74219L15.2578 18.5039C14.8945 18.832 14.5195 18.9844 14.1328 18.9844C13.7461 18.9844 13.3711 18.832 13.0078 18.5039L2.17969 8.74219L0.960938 9.97266L11.9883 19.8984C12.6562 20.4961 13.3828 20.7891 14.1328 20.7891ZM2.35547 26.3086L10.6758 17.9766L9.45703 16.7578L1.13672 25.0781L2.35547 26.3086ZM25.9336 26.3203L27.1523 25.0898L18.8203 16.7578L17.5898 17.9766L25.9336 26.3203Z" fill="black" fillOpacity="0.85"/>
<path d="M14.1328 15.6094C15.5742 15.6094 16.6641 14.4961 16.6641 13.0078V5.84766C16.6641 4.35938 15.5742 3.23438 14.1328 3.23438C12.6914 3.23438 11.6016 4.35938 11.6016 5.84766V13.0078C11.6016 14.4961 12.6914 15.6094 14.1328 15.6094Z" fill="white"/>
<path d="M14.1329 13.9922C14.6837 13.9922 15.0704 13.5938 15.0704 13.0078V7.55864C15.0704 5.74224 16.254 4.24224 18.7384 3.82036L18.9845 5.06255C19.1134 5.76567 19.6524 5.91802 20.1681 5.40239L22.5939 2.87114C22.9923 2.44927 22.8868 1.93364 22.3478 1.69927L19.172 0.281296C18.5157 -0.011673 18.0704 0.328171 18.1993 1.01958L18.4337 2.25005C16.6056 2.61333 14.5899 3.79693 14.1329 5.12114C13.6876 3.79693 11.672 2.61333 9.83209 2.25005L10.0782 1.01958C10.2071 0.328171 9.76178 -0.011673 9.10553 0.281296L5.91803 1.69927C5.39068 1.93364 5.2735 2.44927 5.68365 2.87114L8.10944 5.40239C8.62506 5.91802 9.16412 5.76567 9.29303 5.06255L9.53912 3.82036C12.0235 4.24224 13.2071 5.74224 13.2071 7.55864V13.0078C13.2071 13.5938 13.5821 13.9922 14.1329 13.9922Z" fill="black" fillOpacity="0.85"/>
</g>
<defs>
<clipPath id="clip0_2201_1431">
<rect width="28.2773" height="27.8086" fill="white"/>
</clipPath>
</defs>
</svg>
