<svg width="29" height="28" viewBox="0 0 29 28" fill="none" xmlns="http://www.w3.org/2000/svg">
<g clipPath="url(#clip0_2201_1427)">
<path d="M3.67969 24.2148H24.9492C27.0469 24.2148 28.2773 22.9961 28.2773 20.582V7.64453C28.2773 5.23047 27.0352 4.01172 24.5977 4.01172H3.32812C1.23047 4.01172 0 5.23047 0 7.64453V20.582C0 22.9961 1.24219 24.2148 3.67969 24.2148ZM3.60938 22.4219C2.44922 22.4219 1.79297 21.7773 1.79297 20.5703V7.63281C1.79297 6.4375 2.44922 5.80469 3.60938 5.80469H24.6562C25.8164 5.80469 26.4844 6.4375 26.4844 7.64453V20.582C26.4844 21.7773 25.8164 22.4219 24.6562 22.4219H3.60938ZM14.1328 17.1953C14.8828 17.1953 15.6094 16.9141 16.2773 16.3047L27.3047 6.37891L26.0859 5.14844L15.2578 14.9102C14.8945 15.2383 14.5195 15.3906 14.1328 15.3906C13.7461 15.3906 13.3711 15.2383 13.0078 14.9102L2.17969 5.14844L0.960938 6.37891L11.9883 16.3047C12.6562 16.9141 13.3828 17.1953 14.1328 17.1953ZM2.35547 22.7148L10.6758 14.3828L9.45703 13.1641L1.13672 21.4844L2.35547 22.7148ZM25.9336 22.7266L27.1523 21.4961L18.8203 13.1641L17.5898 14.3828L25.9336 22.7266Z" fill="black" fillOpacity="0.85"/>
</g>
<defs>
<clipPath id="clip0_2201_1427">
<rect width="28.2773" height="20.2148" fill="white" transform="translate(0 4)"/>
</clipPath>
</defs>
</svg>
