<svg width="29" height="28" viewBox="0 0 29 28" fill="none" xmlns="http://www.w3.org/2000/svg">
<g clipPath="url(#clip0_2201_1428)">
<path d="M14.1328 15.4141C14.5195 15.4141 14.8945 15.2617 15.2578 14.9336L26.9648 4.62109C26.332 4.19922 25.6055 4.01172 24.5977 4.01172H3.67969C2.67188 4.01172 1.94531 4.19922 1.30078 4.62109L13.0078 14.9336C13.3828 15.2617 13.7578 15.4141 14.1328 15.4141ZM0.304688 22.3164L8.97656 13.6562L0.28125 5.99219C0.152344 6.23828 0 6.83594 0 7.64453V20.582C0 21.332 0.117188 21.8711 0.304688 22.3164ZM3.32812 24.2148H24.9492C25.8047 24.2148 26.4727 24.0039 26.918 23.6992L18 14.7812L16.2891 16.3047C15.6094 16.9023 14.8711 17.207 14.1328 17.207C13.4062 17.207 12.668 16.9023 11.9883 16.3047L10.2773 14.7812L1.35938 23.6992C1.80469 24.0039 2.46094 24.2148 3.32812 24.2148ZM27.9727 22.3164C28.1484 21.8711 28.2773 21.332 28.2773 20.582V7.64453C28.2773 6.83594 28.125 6.23828 27.9961 5.99219L19.3008 13.6562L27.9727 22.3164Z" fill="black" fillOpacity="0.85"/>
</g>
<defs>
<clipPath id="clip0_2201_1428">
<rect width="28.2773" height="20.2148" fill="white" transform="translate(0 4)"/>
</clipPath>
</defs>
</svg>
