<svg width="28" height="28" viewBox="0 0 28 28" fill="none" xmlns="http://www.w3.org/2000/svg">
<g clipPath="url(#clip0_2201_1430)">
<path d="M13.9531 25.918C20.4922 25.918 25.9062 20.5039 25.9062 13.9648C25.9062 7.4375 20.4805 2.01172 13.9414 2.01172C7.41406 2.01172 2 7.4375 2 13.9648C2 20.5039 7.42578 25.918 13.9531 25.918Z" fill="black" fillOpacity="0.85"/>
<path d="M13.9531 14.5977C13.7773 14.5977 13.5781 14.5273 13.4023 14.3633L7.44922 9.11328C7.77734 8.91406 8.12891 8.83203 8.63281 8.83203H19.2852C19.7656 8.83203 20.1289 8.92578 20.4688 9.125L14.5039 14.3633C14.3281 14.5273 14.1406 14.5977 13.9531 14.5977ZM6.92188 18.125C6.81641 17.8906 6.75781 17.6328 6.75781 17.2578V10.6719C6.75781 10.2852 6.83984 9.98047 6.89844 9.85156L11.293 13.7305L6.92188 18.125ZM8.45703 19.0977C8.03516 19.0977 7.70703 19.0039 7.47266 18.8516L11.9961 14.3398L12.8516 15.1016C13.1914 15.4062 13.5781 15.5586 13.9531 15.5586C14.3281 15.5586 14.7148 15.4062 15.0664 15.1016L15.9102 14.3398L20.4336 18.8516C20.1992 18.9922 19.8711 19.0977 19.4492 19.0977H8.45703ZM20.9961 18.125L16.6016 13.7305L21.0078 9.86328C21.0664 9.98047 21.1367 10.2852 21.1367 10.6719V17.2578C21.1367 17.6211 21.0898 17.8906 20.9961 18.125Z" fill="white"/>
</g>
<defs>
<clipPath id="clip0_2201_1430">
<rect width="23.9062" height="23.918" fill="white" transform="translate(2 2)"/>
</clipPath>
</defs>
</svg>
