<svg width="29" height="28" viewBox="0 0 29 28" fill="none" xmlns="http://www.w3.org/2000/svg">
<g clipPath="url(#clip0_2201_1433)">
<path d="M3.67969 27.1055H24.9492C27.0469 27.1055 28.2773 25.8867 28.2773 23.4844V11.6016C28.2773 9.91406 27.9727 9.09375 26.8008 8.28516L16.4883 1.13672C14.7188 -0.0937503 13.5117 -0.0937503 11.7422 1.13672L1.46484 8.28516C0.304688 9.10547 0 9.91406 0 11.6016V23.4844C0 25.8867 1.24219 27.1055 3.67969 27.1055ZM3.60938 25.3125C2.44922 25.3125 1.79297 24.6797 1.79297 23.4727V11.2852C1.79297 10.4531 1.99219 10.0078 2.57812 9.60938L12.9961 2.41406C13.8281 1.83984 14.4023 1.83984 15.2227 2.41406L25.6992 9.60938C26.2852 9.99609 26.4844 10.4531 26.4844 11.2852V23.4844C26.4844 24.6797 25.8164 25.3125 24.6562 25.3125H3.60938ZM14.1328 14.4023C13.3828 14.4023 12.6562 14.6836 11.9883 15.293L0.960938 25.2188L2.17969 26.4375L13.0078 16.6875C13.3711 16.3594 13.7461 16.207 14.1328 16.207C14.5195 16.207 14.8945 16.3594 15.2578 16.6875L26.0859 26.4375L27.3047 25.2188L16.2773 15.293C15.6094 14.6836 14.8828 14.4023 14.1328 14.4023ZM2.22656 9.01172L1.00781 10.2422L9.32812 18.5625L10.5469 17.3438L2.22656 9.01172ZM26.0625 9L17.7188 17.3438L18.9492 18.5625L27.2812 10.2305L26.0625 9Z" fill="black" fillOpacity="0.85"/>
</g>
<defs>
<clipPath id="clip0_2201_1433">
<rect width="28.2773" height="27.1055" fill="white"/>
</clipPath>
</defs>
</svg>
