<svg width="29" height="28" viewBox="0 0 29 28" fill="none" xmlns="http://www.w3.org/2000/svg">
<g clipPath="url(#clip0_2201_1432)">
<path d="M24.5977 7.60547H15.3398V12.7734C15.3398 13.4062 14.7891 13.9453 14.1328 13.9453C13.4883 13.9453 12.9375 13.4062 12.9375 12.7734V7.60547H3.67969C2.67188 7.60547 1.94531 7.79297 1.30078 8.21484L13.0078 18.5273C13.3828 18.8555 13.7578 19.0078 14.1328 19.0078C14.5195 19.0078 14.8945 18.8555 15.2578 18.5273L26.9648 8.21484C26.332 7.79297 25.6055 7.60547 24.5977 7.60547ZM0.304688 25.8984L8.97656 17.25L0.28125 9.58594C0.152344 9.82031 0 10.418 0 11.2383V24.1758C0 24.9258 0.117188 25.4648 0.304688 25.8984ZM3.32812 27.8086H24.9492C25.8047 27.8086 26.4727 27.5977 26.918 27.293L18 18.375L16.2891 19.8984C15.6094 20.4844 14.8711 20.8008 14.1328 20.8008C13.4062 20.8008 12.668 20.4844 11.9883 19.8984L10.2773 18.375L1.35938 27.293C1.80469 27.5977 2.46094 27.8086 3.32812 27.8086ZM27.9727 25.8984C28.1484 25.4648 28.2773 24.9258 28.2773 24.1758V11.2383C28.2773 10.418 28.125 9.82031 27.9961 9.58594L19.3008 17.25L27.9727 25.8984Z" fill="black" fillOpacity="0.85"/>
<path d="M14.1328 8.77739C14.6484 8.77739 15.082 8.35552 15.082 7.83989V7.5938C15.082 5.74224 16.2539 4.24224 18.7383 3.82036L18.9844 5.06255C19.1133 5.76567 19.6523 5.91802 20.168 5.40239L22.5938 2.87114C22.9922 2.44927 22.8867 1.93364 22.3477 1.69927L19.1719 0.281296C18.5156 -0.011673 18.0703 0.328171 18.1992 1.01958L18.4336 2.25005C16.6055 2.61333 14.5898 3.79693 14.1328 5.12114C13.6875 3.79693 11.6719 2.61333 9.83203 2.25005L10.0781 1.01958C10.207 0.328171 9.76172 -0.011673 9.10547 0.281296L5.91797 1.69927C5.39062 1.93364 5.27344 2.44927 5.68359 2.87114L8.10938 5.40239C8.625 5.91802 9.16406 5.76567 9.29297 5.06255L9.53906 3.82036C12.0234 4.24224 13.1953 5.74224 13.1953 7.5938V7.83989C13.1953 8.35552 13.6172 8.77739 14.1328 8.77739Z" fill="black" fillOpacity="0.85"/>
</g>
<defs>
<clipPath id="clip0_2201_1432">
<rect width="28.2773" height="27.8086" fill="white"/>
</clipPath>
</defs>
</svg>
