<svg width="28" height="28" viewBox="0 0 28 28" fill="none" xmlns="http://www.w3.org/2000/svg">
<g clipPath="url(#clip0_2201_1429)">
<path d="M13.9531 25.9062C20.4922 25.9062 25.9062 20.4805 25.9062 13.9531C25.9062 7.41406 20.4805 2 13.9414 2C7.41406 2 2 7.41406 2 13.9531C2 20.4805 7.42578 25.9062 13.9531 25.9062ZM13.9531 23.9141C8.42188 23.9141 4.00391 19.4844 4.00391 13.9531C4.00391 8.42188 8.41016 3.99219 13.9414 3.99219C19.4727 3.99219 23.9141 8.42188 23.9141 13.9531C23.9141 19.4844 19.4844 23.9141 13.9531 23.9141Z" fill="black" fillOpacity="0.85"/>
<path d="M13.9414 14.5742C14.1289 14.5742 14.3047 14.5039 14.4805 14.3398L20.2578 9.25391C19.9297 9.05469 19.5781 8.97266 19.1094 8.97266H8.78516C8.29297 8.97266 7.95312 9.05469 7.63672 9.25391L13.4023 14.3398C13.5781 14.5039 13.7656 14.5742 13.9414 14.5742ZM7.12109 17.9844L11.3633 13.7188L7.09766 9.95703C7.03906 10.0742 6.96875 10.3789 6.96875 10.7539V17.1523C6.96875 17.5039 7.02734 17.7617 7.12109 17.9844ZM8.60938 18.9336H19.2734C19.6836 18.9336 20 18.8281 20.2227 18.6875L15.8398 14.3164L15.0195 15.0547C14.6797 15.3477 14.3047 15.4883 13.9414 15.4883C13.5781 15.4883 13.2031 15.3477 12.875 15.0547L12.043 14.3164L7.66016 18.6875C7.88281 18.8281 8.19922 18.9336 8.60938 18.9336ZM20.7734 17.9727C20.8555 17.7617 20.9023 17.5039 20.9023 17.1523V10.7539C20.9023 10.3789 20.8438 10.0859 20.7852 9.95703L16.5078 13.7188L20.7734 17.9727Z" fill="black" fillOpacity="0.85"/>
</g>
<defs>
<clipPath id="clip0_2201_1429">
<rect width="23.9062" height="23.918" fill="white" transform="translate(2 2)"/>
</clipPath>
</defs>
</svg>
