<svg width="28" height="28" viewBox="0 0 28 28" fill="none" xmlns="http://www.w3.org/2000/svg">
<g clipPath="url(#clip0_2201_1320)">
<path d="M13.9531 25.9062C20.4922 25.9062 25.9062 20.4805 25.9062 13.9531C25.9062 7.41406 20.4805 2 13.9414 2C7.41406 2 2 7.41406 2 13.9531C2 20.4805 7.42578 25.9062 13.9531 25.9062ZM13.9531 23.9141C8.42188 23.9141 4.00391 19.4844 4.00391 13.9531C4.00391 8.42188 8.41016 3.99219 13.9414 3.99219C19.4727 3.99219 23.9141 8.42188 23.9141 13.9531C23.9141 19.4844 19.4844 23.9141 13.9531 23.9141Z" fill="black" fillOpacity="0.85"/>
<path d="M11.0117 20.7148C11.2461 20.7148 11.3984 20.6094 11.668 20.3633L13.7656 18.4648H17.6797C19.3789 18.4648 20.3164 17.5156 20.3164 15.8164V11.3984C20.3164 9.72266 19.3789 8.76172 17.6797 8.76172H10.2266C8.52734 8.76172 7.58984 9.71094 7.58984 11.3984V15.8164C7.58984 17.5156 8.52734 18.4648 10.2266 18.4648H10.5078V20.1406C10.5078 20.4922 10.6953 20.7148 11.0117 20.7148ZM13.9531 14.7031C13.6484 14.7031 13.4844 14.5273 13.4727 14.2227L13.4023 11.082C13.3906 10.7656 13.625 10.5195 13.9414 10.5195C14.2695 10.5195 14.5156 10.7656 14.5039 11.082L14.4219 14.2227C14.4219 14.5273 14.2461 14.7031 13.9531 14.7031ZM13.9531 16.625C13.6016 16.625 13.2852 16.3438 13.2852 15.9922C13.2852 15.6406 13.5898 15.3477 13.9531 15.3477C14.3164 15.3477 14.6211 15.6289 14.6211 15.9922C14.6211 16.3438 14.3047 16.625 13.9531 16.625Z" fill="black" fillOpacity="0.85"/>
</g>
<defs>
<clipPath id="clip0_2201_1320">
<rect width="23.9062" height="23.918" fill="white" transform="translate(2 2)"/>
</clipPath>
</defs>
</svg>
