<svg width="28" height="28" viewBox="0 0 28 28" fill="none" xmlns="http://www.w3.org/2000/svg">
<g clipPath="url(#clip0_2201_1319)">
<path d="M7.96094 26.8867C8.41797 26.8867 8.75781 26.6523 9.30859 26.1367L13.5391 22.2695H21.4609C24.9531 22.2695 26.8281 20.3477 26.8281 16.9141V7.9375C26.8281 4.50391 24.9531 2.57031 21.4609 2.57031H6.36719C2.875 2.57031 1 4.49219 1 7.9375V16.9141C1 20.3594 2.875 22.2695 6.36719 22.2695H6.91797V25.6797C6.91797 26.4062 7.29297 26.8867 7.96094 26.8867Z" fill="black" fillOpacity="0.85"/>
<path d="M13.9258 14.5938C13.3164 14.5938 12.9766 14.2539 12.9648 13.6328L12.8125 7.25781C12.8008 6.63672 13.2578 6.17969 13.9141 6.17969C14.5586 6.17969 15.0391 6.64844 15.0273 7.26953L14.8516 13.6328C14.8398 14.2656 14.5 14.5938 13.9258 14.5938ZM13.9258 18.5195C13.2227 18.5195 12.6133 17.9688 12.6133 17.2656C12.6133 16.5742 13.2109 16.0117 13.9258 16.0117C14.6289 16.0117 15.2266 16.5625 15.2266 17.2656C15.2266 17.9805 14.6172 18.5195 13.9258 18.5195Z" fill="white"/>
</g>
<defs>
<clipPath id="clip0_2201_1319">
<rect width="25.8281" height="25.8867" fill="white" transform="translate(1 1)"/>
</clipPath>
</defs>
</svg>
