<svg width="28" height="28" viewBox="0 0 28 28" fill="none" xmlns="http://www.w3.org/2000/svg">
<g clipPath="url(#clip0_2201_1318)">
<path d="M8.20703 26.7461C8.78125 26.7461 9.17969 26.4414 9.89453 25.8086L13.9375 22.2109H21.4609C24.9531 22.2109 26.8281 20.2773 26.8281 16.8438V7.86719C26.8281 4.43359 24.9531 2.5 21.4609 2.5H6.36719C2.875 2.5 1 4.42188 1 7.86719V16.8438C1 20.2891 2.875 22.2109 6.36719 22.2109H6.92969V25.2578C6.92969 26.1602 7.38672 26.7461 8.20703 26.7461ZM8.6875 24.6016V21.2031C8.6875 20.5703 8.44141 20.3242 7.80859 20.3242H6.36719C4 20.3242 2.88672 19.1172 2.88672 16.832V7.86719C2.88672 5.58203 4 4.38672 6.36719 4.38672H21.4609C23.8164 4.38672 24.9414 5.58203 24.9414 7.86719V16.832C24.9414 19.1172 23.8164 20.3242 21.4609 20.3242H13.8672C13.2109 20.3242 12.8828 20.418 12.4375 20.875L8.6875 24.6016Z" fill="black" fillOpacity="0.85"/>
<path d="M13.9141 14.4648C14.4766 14.4648 14.8047 14.1484 14.8164 13.5391L14.9805 7.35156C14.9922 6.76562 14.5234 6.30859 13.9023 6.30859C13.2695 6.30859 12.8242 6.75391 12.8359 7.33984L12.9883 13.5391C13 14.1367 13.3281 14.4648 13.9141 14.4648ZM13.9141 18.2734C14.5938 18.2734 15.1797 17.7461 15.1797 17.0547C15.1797 16.375 14.6055 15.8477 13.9141 15.8477C13.2227 15.8477 12.6484 16.3867 12.6484 17.0547C12.6484 17.7344 13.2344 18.2734 13.9141 18.2734Z" fill="black" fillOpacity="0.85"/>
</g>
<defs>
<clipPath id="clip0_2201_1318">
<rect width="25.8281" height="25.7461" fill="white" transform="translate(1 1)"/>
</clipPath>
</defs>
</svg>
