<svg width="35" height="28" viewBox="0 0 35 28" fill="none" xmlns="http://www.w3.org/2000/svg">
<g clipPath="url(#clip0_2201_1423)">
<path d="M1.11241 15.8125L14.8234 23.2305C15.9015 23.8164 16.5812 24.1328 17.3546 24.1328C18.128 24.1328 18.8077 23.8164 19.8859 23.2305L33.5968 15.8125C34.7101 15.2148 35.0616 13.8672 34.3116 12.7773C30.5265 7.44531 24.2687 4 17.3546 4C10.4405 4 4.18273 7.44531 0.397569 12.7773C-0.352431 13.8672 -0.000868559 15.2148 1.11241 15.8125ZM2.29601 14.3359C2.00304 14.1602 1.93273 13.8672 2.1671 13.5508C5.64757 8.79297 11.0734 5.88672 17.3546 5.88672C23.6476 5.88672 29.0968 8.80469 32.5655 13.5742C32.7765 13.8789 32.7062 14.1602 32.4132 14.3359L18.796 21.6836C18.2101 22 17.8116 22.1641 17.3546 22.1641C16.8976 22.1641 16.4991 22 15.9132 21.6836L2.29601 14.3359Z" fill="black" fillOpacity="0.85"/>
</g>
<defs>
<clipPath id="clip0_2201_1423">
<rect width="34.7092" height="20.5898" fill="white" transform="translate(0 4)"/>
</clipPath>
</defs>
</svg>
