<svg width="28" height="28" viewBox="0 0 28 28" fill="none" xmlns="http://www.w3.org/2000/svg">
<g clipPath="url(#clip0_2201_1335)">
<path d="M7.96094 26.8867C8.41797 26.8867 8.75781 26.6523 9.30859 26.1367L13.5391 22.2695H21.4609C24.9531 22.2695 26.8281 20.3477 26.8281 16.9141V7.9375C26.8281 4.50391 24.9531 2.57031 21.4609 2.57031H6.36719C2.875 2.57031 1 4.49219 1 7.9375V16.9141C1 20.3594 2.875 22.2695 6.36719 22.2695H6.91797V25.6797C6.91797 26.4062 7.29297 26.8867 7.96094 26.8867Z" fill="black" fillOpacity="0.85"/>
<path d="M11.9688 18.707C11.5 18.707 11.1484 18.3672 11.1484 17.8984C11.1484 17.4648 11.5 17.1133 11.9688 17.1133H13.3516V12.0039H12.1562C11.6992 12.0039 11.3359 11.6758 11.3359 11.207C11.3359 10.7734 11.6992 10.4219 12.1562 10.4219H14.2656C14.8281 10.4219 15.1328 10.832 15.1328 11.4297V17.1133H16.5156C16.9844 17.1133 17.3359 17.4648 17.3359 17.8984C17.3359 18.3672 16.9844 18.707 16.5156 18.707H11.9688ZM13.8203 8.57031C13.0117 8.57031 12.3555 7.91406 12.3555 7.09375C12.3555 6.27344 13.0117 5.61719 13.8203 5.61719C14.6406 5.61719 15.2852 6.27344 15.2852 7.09375C15.2852 7.91406 14.6406 8.57031 13.8203 8.57031Z" fill="white"/>
</g>
<defs>
<clipPath id="clip0_2201_1335">
<rect width="25.8281" height="25.8867" fill="white" transform="translate(1 1)"/>
</clipPath>
</defs>
</svg>
