<svg width="28" height="28" viewBox="0 0 28 28" fill="none" xmlns="http://www.w3.org/2000/svg">
<g clipPath="url(#clip0_2201_1334)">
<path d="M8.20703 26.7461C8.78125 26.7461 9.17969 26.4414 9.89453 25.8086L13.9375 22.2109H21.4609C24.9531 22.2109 26.8281 20.2773 26.8281 16.8438V7.86719C26.8281 4.43359 24.9531 2.5 21.4609 2.5H6.36719C2.875 2.5 1 4.42188 1 7.86719V16.8438C1 20.2891 2.875 22.2109 6.36719 22.2109H6.92969V25.2578C6.92969 26.1602 7.38672 26.7461 8.20703 26.7461ZM8.6875 24.6016V21.2031C8.6875 20.5703 8.44141 20.3242 7.80859 20.3242H6.36719C4 20.3242 2.88672 19.1172 2.88672 16.832V7.86719C2.88672 5.58203 4 4.38672 6.36719 4.38672H21.4609C23.8164 4.38672 24.9414 5.58203 24.9414 7.86719V16.832C24.9414 19.1172 23.8164 20.3242 21.4609 20.3242H13.8672C13.2109 20.3242 12.8828 20.418 12.4375 20.875L8.6875 24.6016Z" fill="black" fillOpacity="0.85"/>
<path d="M12.0273 18.4375H16.4453C16.8906 18.4375 17.2422 18.1211 17.2422 17.6758C17.2422 17.2422 16.8906 16.9141 16.4453 16.9141H15.0977V11.3828C15.0977 10.7969 14.8047 10.4102 14.2539 10.4102H12.2148C11.7695 10.4102 11.418 10.75 11.418 11.1719C11.418 11.6172 11.7695 11.9336 12.2148 11.9336H13.375V16.9141H12.0273C11.582 16.9141 11.2422 17.2422 11.2422 17.6758C11.2422 18.1211 11.582 18.4375 12.0273 18.4375ZM13.832 8.60547C14.6289 8.60547 15.25 7.97266 15.25 7.1875C15.25 6.39062 14.6289 5.76953 13.832 5.76953C13.0469 5.76953 12.4141 6.39062 12.4141 7.1875C12.4141 7.97266 13.0469 8.60547 13.832 8.60547Z" fill="black" fillOpacity="0.85"/>
</g>
<defs>
<clipPath id="clip0_2201_1334">
<rect width="25.8281" height="25.7461" fill="white" transform="translate(1 1)"/>
</clipPath>
</defs>
</svg>
