<svg width="28" height="28" viewBox="0 0 28 28" fill="none" xmlns="http://www.w3.org/2000/svg">
<g clipPath="url(#clip0_2201_1286)">
<path d="M5.64062 26.4336C7.04688 26.4336 10.5508 24.8984 12.543 23.4688C12.7422 23.3281 12.9062 23.2695 13.0703 23.2695C13.2227 23.2812 13.375 23.293 13.5273 23.293C21.9766 23.293 27.5781 18.4883 27.5781 12.6523C27.5781 6.75781 21.6719 2 14.2891 2C6.90625 2 1 6.75781 1 12.6523C1 16.4023 3.30859 19.6953 7.07031 21.7109C7.24609 21.8047 7.30469 21.9805 7.21094 22.1562C6.55469 23.2344 5.38281 24.5234 4.9375 25.1094C4.48047 25.6953 4.73828 26.4336 5.64062 26.4336Z" fill="black" fillOpacity="0.85"/>
</g>
<defs>
<clipPath id="clip0_2201_1286">
<rect width="26.5781" height="24.4336" fill="white" transform="translate(1 2)"/>
</clipPath>
</defs>
</svg>
