<svg width="28" height="28" viewBox="0 0 28 28" fill="none" xmlns="http://www.w3.org/2000/svg">
<g clipPath="url(#clip0_2201_1287)">
<path d="M13.9531 25.9062C20.4922 25.9062 25.9062 20.4805 25.9062 13.9531C25.9062 7.41406 20.4805 2 13.9414 2C7.41406 2 2 7.41406 2 13.9531C2 20.4805 7.42578 25.9062 13.9531 25.9062ZM13.9531 23.9141C8.42188 23.9141 4.00391 19.4844 4.00391 13.9531C4.00391 8.42188 8.41016 3.99219 13.9414 3.99219C19.4727 3.99219 23.9141 8.42188 23.9141 13.9531C23.9141 19.4844 19.4844 23.9141 13.9531 23.9141Z" fill="black" fillOpacity="0.85"/>
<path d="M13.9414 18.8984C17.5742 18.8984 20.4219 16.5195 20.4219 13.6016C20.4219 10.6836 17.5742 8.30469 13.9414 8.30469C10.3086 8.30469 7.46094 10.6836 7.46094 13.6016C7.46094 15.4414 8.62109 17.0234 10.3437 18.0195C10.4844 18.1016 10.4844 18.2305 10.4141 18.3594C10.2266 18.7461 9.88672 19.1094 9.64062 19.3789C9.3125 19.7539 9.40625 20.1641 9.92188 20.1641C10.5664 20.1641 11.7383 19.6836 12.8984 18.9688C13.0156 18.8984 13.0859 18.8633 13.2148 18.875C13.4375 18.8867 13.6836 18.8984 13.9414 18.8984Z" fill="black" fillOpacity="0.85"/>
</g>
<defs>
<clipPath id="clip0_2201_1287">
<rect width="23.9062" height="23.918" fill="white" transform="translate(2 2)"/>
</clipPath>
</defs>
</svg>
