<svg width="28" height="28" viewBox="0 0 28 28" fill="none" xmlns="http://www.w3.org/2000/svg">
<g clipPath="url(#clip0_2201_1288)">
<path d="M13.9531 25.918C20.4922 25.918 25.9062 20.5039 25.9062 13.9648C25.9062 7.4375 20.4805 2.01172 13.9414 2.01172C7.41406 2.01172 2 7.4375 2 13.9648C2 20.5039 7.42578 25.918 13.9531 25.918Z" fill="black" fillOpacity="0.85"/>
<path d="M13.9531 19.0625C13.6836 19.0625 13.4375 19.0508 13.2031 19.0391C13.0742 19.0273 13.0039 19.0625 12.875 19.1562C11.6797 19.8711 10.4727 20.375 9.80469 20.375C9.27734 20.375 9.18359 19.9648 9.52344 19.5664C9.76953 19.2852 10.1211 18.9102 10.3203 18.5117C10.3906 18.3828 10.3906 18.2422 10.2383 18.1602C8.46875 17.1289 7.27344 15.5 7.27344 13.6016C7.27344 10.5898 10.2031 8.15234 13.9531 8.15234C17.7031 8.15234 20.6328 10.5898 20.6328 13.6016C20.6328 16.6133 17.7031 19.0625 13.9531 19.0625Z" fill="white"/>
</g>
<defs>
<clipPath id="clip0_2201_1288">
<rect width="23.9062" height="23.918" fill="white" transform="translate(2 2)"/>
</clipPath>
</defs>
</svg>
