<svg width="28" height="28" viewBox="0 0 28 28" fill="none" xmlns="http://www.w3.org/2000/svg">
<g clipPath="url(#clip0_2201_1269)">
<path d="M6 13.3867C6 17.9805 9.03516 21.2031 13.5 21.5781V24.3086H9.15234C8.66016 24.3086 8.26172 24.707 8.26172 25.1992C8.26172 25.6914 8.66016 26.0781 9.15234 26.0781H19.6172C20.1094 26.0781 20.5078 25.6914 20.5078 25.1992C20.5078 24.707 20.1094 24.3086 19.6172 24.3086H15.2695V21.5781C19.7461 21.2031 22.7695 17.9805 22.7695 13.3867V11.0078C22.7695 10.5156 22.3828 10.1289 21.8906 10.1289C21.3984 10.1289 21 10.5156 21 11.0078V13.3164C21 17.3125 18.3984 19.9609 14.3906 19.9609C10.3711 19.9609 7.76953 17.3125 7.76953 13.3164V11.0078C7.76953 10.5156 7.38281 10.1289 6.87891 10.1289C6.38672 10.1289 6 10.5156 6 11.0078V13.3867ZM10.125 12.9648C10.125 15.6602 11.8594 17.5586 14.3906 17.5586C16.9102 17.5586 18.6445 15.6602 18.6445 12.9648V5.59375C18.6445 2.88672 16.9102 1 14.3906 1C11.8594 1 10.125 2.88672 10.125 5.59375V12.9648ZM11.8945 12.9648V5.59375C11.8945 3.85938 12.8906 2.74609 14.3906 2.74609C15.8906 2.74609 16.875 3.85938 16.875 5.59375V12.9648C16.875 14.6992 15.8906 15.8125 14.3906 15.8125C12.8906 15.8125 11.8945 14.6992 11.8945 12.9648Z" fill="black" fillOpacity="0.85"/>
</g>
<defs>
<clipPath id="clip0_2201_1269">
<rect width="16.7695" height="26.7539" fill="white" transform="translate(6 1)"/>
</clipPath>
</defs>
</svg>
