<svg width="28" height="28" viewBox="0 0 28 28" fill="none" xmlns="http://www.w3.org/2000/svg">
<g clipPath="url(#clip0_2201_1283)">
<path d="M3.96875 7.17578C5.04688 7.17578 5.92578 6.29688 5.92578 5.21875C5.92578 4.12891 5.04688 3.25 3.96875 3.25C2.87891 3.25 2 4.12891 2 5.21875C2 6.29688 2.87891 7.17578 3.96875 7.17578Z" fill="black" fillOpacity="0.85"/>
<path d="M3.96875 13.2695C5.04688 13.2695 5.92578 12.3906 5.92578 11.3125C5.92578 10.2227 5.04688 9.34375 3.96875 9.34375C2.87891 9.34375 2 10.2227 2 11.3125C2 12.3906 2.87891 13.2695 3.96875 13.2695Z" fill="black" fillOpacity="0.85"/>
<path d="M3.96875 19.3867C5.04688 19.3867 5.92578 18.5078 5.92578 17.4297C5.92578 16.3398 5.04688 15.4609 3.96875 15.4609C2.87891 15.4609 2 16.3398 2 17.4297C2 18.5078 2.87891 19.3867 3.96875 19.3867Z" fill="black" fillOpacity="0.85"/>
<path d="M3.96875 25.4805C5.04688 25.4805 5.92578 24.6016 5.92578 23.5234C5.92578 22.4336 5.04688 21.5547 3.96875 21.5547C2.87891 21.5547 2 22.4336 2 23.5234C2 24.6016 2.87891 25.4805 3.96875 25.4805Z" fill="black" fillOpacity="0.85"/>
<path d="M9.88672 13.3867C9.88672 17.9805 12.9102 21.2031 17.3867 21.5781V24.3086H13.0391C12.5469 24.3086 12.1484 24.707 12.1484 25.1992C12.1484 25.6914 12.5469 26.0781 13.0391 26.0781H23.5039C23.9961 26.0781 24.3945 25.6914 24.3945 25.1992C24.3945 24.707 23.9961 24.3086 23.5039 24.3086H19.1562V21.5781C23.6211 21.2031 26.6562 17.9805 26.6562 13.3867V11.0078C26.6562 10.5156 26.2695 10.1289 25.7656 10.1289C25.2734 10.1289 24.8867 10.5156 24.8867 11.0078V13.3164C24.8867 17.3125 22.2852 19.9609 18.2656 19.9609C14.2578 19.9609 11.6562 17.3125 11.6562 13.3164V11.0078C11.6562 10.5156 11.2578 10.1289 10.7656 10.1289C10.2734 10.1289 9.88672 10.5156 9.88672 11.0078V13.3867ZM14.0117 12.9648C14.0117 15.6602 15.7461 17.5586 18.2656 17.5586C20.7969 17.5586 22.5312 15.6602 22.5312 12.9648V5.59375C22.5312 2.88672 20.7969 1 18.2656 1C15.7461 1 14.0117 2.88672 14.0117 5.59375V12.9648ZM15.7812 12.9648V5.59375C15.7812 3.85938 16.7656 2.74609 18.2656 2.74609C19.7656 2.74609 20.7617 3.85938 20.7617 5.59375V12.9648C20.7617 14.6992 19.7656 15.8125 18.2656 15.8125C16.7656 15.8125 15.7812 14.6992 15.7812 12.9648Z" fill="black" fillOpacity="0.85"/>
</g>
<defs>
<clipPath id="clip0_2201_1283">
<rect width="24.6562" height="26.7539" fill="white" transform="translate(2 1)"/>
</clipPath>
</defs>
</svg>
