<svg width="28" height="28" viewBox="0 0 28 28" fill="none" xmlns="http://www.w3.org/2000/svg">
<g clipPath="url(#clip0_2201_1270)">
<path d="M6 13.2695C6 17.8633 9.03516 21.0859 13.5 21.4609V24.1914H9.15234C8.66016 24.1914 8.26172 24.5898 8.26172 25.082C8.26172 25.5742 8.66016 25.9609 9.15234 25.9609H19.6172C20.1094 25.9609 20.5078 25.5742 20.5078 25.082C20.5078 24.5898 20.1094 24.1914 19.6172 24.1914H15.2695V21.4609C19.7461 21.0859 22.7695 17.8633 22.7695 13.2695V10.8906C22.7695 10.3984 22.3828 10.0117 21.8906 10.0117C21.3984 10.0117 21 10.3984 21 10.8906V13.1992C21 17.1953 18.3984 19.8438 14.3906 19.8438C10.3711 19.8438 7.76953 17.1953 7.76953 13.1992V10.8906C7.76953 10.3984 7.38281 10.0117 6.87891 10.0117C6.38672 10.0117 6 10.3984 6 10.8906V13.2695ZM14.3906 17.3242C16.7227 17.3242 18.293 15.5781 18.293 13.082V5.24219C18.293 2.73438 16.7227 1 14.3906 1C12.0469 1 10.4766 2.73438 10.4766 5.24219V13.082C10.4766 15.5781 12.0469 17.3242 14.3906 17.3242Z" fill="black" fillOpacity="0.85"/>
</g>
<defs>
<clipPath id="clip0_2201_1270">
<rect width="16.7695" height="26.5195" fill="white" transform="translate(6 1)"/>
</clipPath>
</defs>
</svg>
