<svg width="28" height="28" viewBox="0 0 28 28" fill="none" xmlns="http://www.w3.org/2000/svg">
<g clipPath="url(#clip0_2201_1278)">
<path d="M13.955 25.91C12.3219 25.91 10.7826 25.5975 9.33709 24.9724C7.89936 24.3473 6.62963 23.4838 5.5279 22.3821C4.42616 21.2804 3.56275 20.0106 2.93765 18.5729C2.31255 17.1274 2 15.5881 2 13.955C2 12.3219 2.31255 10.7865 2.93765 9.34881C3.56275 7.90327 4.42226 6.62963 5.51618 5.5279C6.61791 4.42616 7.88764 3.56275 9.32537 2.93765C10.7709 2.31255 12.3102 2 13.9433 2C15.5763 2 17.1157 2.31255 18.5612 2.93765C20.0067 3.56275 21.2804 4.42616 22.3821 5.5279C23.4838 6.62963 24.3473 7.90327 24.9724 9.34881C25.5975 10.7865 25.91 12.3219 25.91 13.955C25.91 15.5881 25.5975 17.1274 24.9724 18.5729C24.3473 20.0106 23.4838 21.2804 22.3821 22.3821C21.2804 23.4838 20.0067 24.3473 18.5612 24.9724C17.1235 25.5975 15.5881 25.91 13.955 25.91ZM18.9128 19.323C19.03 19.4246 19.1628 19.4754 19.3113 19.4754C19.4598 19.4754 19.5848 19.4246 19.6864 19.323C19.7958 19.2136 19.8505 19.0847 19.8505 18.9363C19.8505 18.78 19.7958 18.6471 19.6864 18.5378L9.2316 8.07126C9.1144 7.96187 8.97766 7.90718 8.82138 7.90718C8.67292 7.90718 8.5479 7.96187 8.44632 8.07126C8.33693 8.18066 8.28224 8.31349 8.28224 8.46976C8.28224 8.61823 8.33693 8.74715 8.44632 8.85654L18.9128 19.323ZM15.4435 17.1782C15.2325 17.2797 15.002 17.3618 14.752 17.4243C14.502 17.479 14.2324 17.5063 13.9433 17.5063C13.2791 17.5063 12.6931 17.3657 12.1852 17.0844C11.6773 16.7953 11.2788 16.3968 10.9897 15.8889C10.7006 15.381 10.556 14.795 10.556 14.1308V12.5837C10.556 12.4118 10.4896 12.2633 10.3568 12.1383C10.2318 12.0055 10.0833 11.9391 9.9114 11.9391C9.7395 11.9391 9.59103 12.0055 9.46601 12.1383C9.341 12.2633 9.27849 12.4118 9.27849 12.5837V14.1308C9.27849 14.9513 9.44648 15.6896 9.78247 16.346C10.1185 17.0024 10.5873 17.5376 11.1889 17.9517C11.7906 18.358 12.4938 18.6081 13.2986 18.7018V19.9091H10.8725C10.7006 19.9091 10.5482 19.9755 10.4154 20.1083C10.2825 20.2411 10.2161 20.3974 10.2161 20.5771C10.2161 20.749 10.2825 20.8975 10.4154 21.0225C10.5482 21.1475 10.7006 21.21 10.8725 21.21H17.0258C17.1977 21.21 17.3501 21.1475 17.4829 21.0225C17.6157 20.8897 17.6821 20.7412 17.6821 20.5771C17.6821 20.3974 17.6157 20.2411 17.4829 20.1083C17.3579 19.9755 17.2055 19.9091 17.0258 19.9091H14.6114V18.7018C15.2677 18.6315 15.8615 18.4401 16.3929 18.1275L15.4435 17.1782ZM11.9391 13.662V14.1425C11.9391 14.752 12.1227 15.2638 12.4899 15.6779C12.865 16.0842 13.3494 16.2874 13.9433 16.2874C14.1152 16.2874 14.291 16.2561 14.4707 16.1936L11.9391 13.662ZM15.9592 13.4862V8.96203C15.9592 8.34475 15.7717 7.83685 15.3966 7.43835C15.0216 7.03204 14.5371 6.82888 13.9433 6.82888C13.3494 6.82888 12.865 7.03204 12.4899 7.43835C12.1227 7.83685 11.9391 8.34475 11.9391 8.96203V9.45429L15.9592 13.4862ZM18.3151 15.842C18.5182 15.3185 18.6198 14.7481 18.6198 14.1308V12.5837C18.6198 12.4118 18.5534 12.2633 18.4205 12.1383C18.2955 12.0055 18.1471 11.9391 17.9752 11.9391C17.8033 11.9391 17.6509 12.0055 17.5181 12.1383C17.393 12.2633 17.3305 12.4118 17.3305 12.5837V14.1308C17.3305 14.248 17.3227 14.3613 17.3071 14.4707C17.2915 14.5801 17.2719 14.6817 17.2485 14.7754L18.3151 15.842Z" fill="black" fillOpacity="0.85"/>
</g>
<defs>
<clipPath id="clip0_2201_1278">
<rect width="23.9062" height="23.918" fill="white" transform="translate(2 2)"/>
</clipPath>
</defs>
</svg>
