<svg width="28" height="28" viewBox="0 0 28 28" fill="none" xmlns="http://www.w3.org/2000/svg">
<g clipPath="url(#clip0_2201_1276)">
<path d="M5.78027 13.2695C5.78027 17.8633 8.80371 21.0859 13.2803 21.4609V24.1914H8.9209C8.42871 24.1914 8.04199 24.5898 8.04199 25.082C8.04199 25.5742 8.42871 25.9609 8.9209 25.9609H19.3975C19.8896 25.9609 20.2764 25.5742 20.2764 25.082C20.2764 24.5898 19.8896 24.1914 19.3975 24.1914H15.0498V21.4609C19.5146 21.0859 22.5498 17.8633 22.5498 13.2695V10.8906C22.5498 10.3984 22.1514 10.0117 21.6592 10.0117C21.167 10.0117 20.7803 10.3984 20.7803 10.8906V13.1992C20.7803 17.1953 18.167 19.8438 14.1592 19.8438C10.1514 19.8438 7.5498 17.1953 7.5498 13.1992V10.8906C7.5498 10.3984 7.15137 10.0117 6.65918 10.0117C6.16699 10.0117 5.78027 10.3984 5.78027 10.8906V13.2695ZM14.1592 17.3242C16.5029 17.3242 18.0732 15.5781 18.0732 13.082V5.24219C18.0732 2.73438 16.5029 1 14.1592 1C11.8272 1 10.2451 2.73438 10.2451 5.24219V13.082C10.2451 15.5781 11.8272 17.3242 14.1592 17.3242Z" fill="black" fillOpacity="0.85"/>
<path d="M21.7998 23.582C22.6904 24.4727 24.1553 24.4727 25.0225 23.5586C25.8896 22.6797 25.8896 21.2617 25.0107 20.3711L6.88184 2.26562C6.00293 1.375 4.5498 1.375 3.65918 2.26562C2.78027 3.13281 2.78027 4.59766 3.65918 5.47656L21.7998 23.582Z" fill="white"/>
<path d="M22.7725 22.6211C23.124 22.9727 23.6982 22.9727 24.0498 22.6211C24.3896 22.2578 24.4014 21.6953 24.0498 21.3438L5.9209 3.22658C5.56934 2.88674 4.9834 2.87502 4.63184 3.22658C4.29199 3.57814 4.29199 4.16408 4.63184 4.50393L22.7725 22.6211Z" fill="black" fillOpacity="0.85"/>
</g>
<defs>
<clipPath id="clip0_2201_1276">
<rect width="22.6714" height="26.5195" fill="white" transform="translate(3 1)"/>
</clipPath>
</defs>
</svg>
