<svg width="28" height="28" viewBox="0 0 28 28" fill="none" xmlns="http://www.w3.org/2000/svg">
<g clipPath="url(#clip0_2201_1274)">
<path d="M6.67969 24.5977H20.8945C23.3555 24.5977 24.5742 23.3789 24.5742 20.9648V6.65625C24.5742 4.24219 23.3555 3.02344 20.8945 3.02344H6.67969C4.23047 3.02344 3 4.23047 3 6.65625V20.9648C3 23.3906 4.23047 24.5977 6.67969 24.5977Z" fill="black" fillOpacity="0.85"/>
<path d="M10.7227 21.0469C10.3711 21.0469 10.0664 20.7539 10.0664 20.4023C10.0664 20.0508 10.3711 19.7461 10.7227 19.7461H13.1484V18.5273C10.7461 18.2578 9.12891 16.4297 9.12891 13.9688V12.4102C9.12891 12.0703 9.43359 11.7773 9.77344 11.7773C10.125 11.7773 10.4062 12.0703 10.4062 12.4102V13.9688C10.4062 15.9492 11.8008 17.3438 13.793 17.3438C15.7969 17.3438 17.1914 15.9492 17.1914 13.9688V12.4102C17.1914 12.0703 17.4727 11.7773 17.8242 11.7773C18.1641 11.7773 18.4688 12.0703 18.4688 12.4102V13.9688C18.4688 16.4297 16.8633 18.2461 14.4609 18.5273V19.7461H16.875C17.2266 19.7461 17.5312 20.0508 17.5312 20.4023C17.5312 20.7422 17.2148 21.0469 16.875 21.0469H10.7227ZM13.793 16.125C12.6094 16.125 11.7891 15.1992 11.7891 13.9688V8.78906C11.7891 7.57031 12.6094 6.66797 13.793 6.66797C14.9766 6.66797 15.7969 7.57031 15.7969 8.78906V13.9688C15.7969 15.1992 14.9766 16.125 13.793 16.125Z" fill="white"/>
</g>
<defs>
<clipPath id="clip0_2201_1274">
<rect width="21.5742" height="21.5977" fill="white" transform="translate(3 3)"/>
</clipPath>
</defs>
</svg>
