<svg width="28" height="28" viewBox="0 0 28 28" fill="none" xmlns="http://www.w3.org/2000/svg">
<g clipPath="url(#clip0_2201_1275)">
<path d="M5.78027 13.3867C5.78027 17.9805 8.80371 21.2031 13.2803 21.5781V24.3086H8.9209C8.42871 24.3086 8.04199 24.707 8.04199 25.1992C8.04199 25.6914 8.42871 26.0781 8.9209 26.0781H19.3975C19.8896 26.0781 20.2764 25.6914 20.2764 25.1992C20.2764 24.707 19.8896 24.3086 19.3975 24.3086H15.0498V21.5781C19.5146 21.2031 22.5498 17.9805 22.5498 13.3867V11.0078C22.5498 10.5156 22.1514 10.1289 21.6592 10.1289C21.167 10.1289 20.7803 10.5156 20.7803 11.0078V13.3164C20.7803 17.3125 18.167 19.9609 14.1592 19.9609C10.1514 19.9609 7.5498 17.3125 7.5498 13.3164V11.0078C7.5498 10.5156 7.15137 10.1289 6.65918 10.1289C6.16699 10.1289 5.78027 10.5156 5.78027 11.0078V13.3867ZM9.89355 12.9648C9.89355 15.6602 11.6397 17.5586 14.1592 17.5586C16.6904 17.5586 18.4248 15.6602 18.4248 12.9648V5.59375C18.4248 2.88672 16.6904 1 14.1592 1C11.6397 1 9.89355 2.88672 9.89355 5.59375V12.9648ZM11.6631 12.9648V5.59375C11.6631 3.85938 12.6592 2.74609 14.1592 2.74609C15.6592 2.74609 16.6553 3.85938 16.6553 5.59375V12.9648C16.6553 14.6992 15.6592 15.8125 14.1592 15.8125C12.6592 15.8125 11.6631 14.6992 11.6631 12.9648Z" fill="black" fillOpacity="0.85"/>
<path d="M21.7998 23.6992C22.6904 24.5898 24.1553 24.5898 25.0225 23.6758C25.8896 22.7969 25.8896 21.3789 25.0107 20.4883L6.88184 2.38281C6.00293 1.49219 4.5498 1.49219 3.65918 2.38281C2.78027 3.25 2.78027 4.71484 3.65918 5.59375L21.7998 23.6992Z" fill="white"/>
<path d="M22.7725 22.7383C23.124 23.0898 23.6982 23.0898 24.0498 22.7383C24.3896 22.375 24.4014 21.8125 24.0498 21.4609L5.9209 3.34377C5.56934 3.00393 4.9834 2.99221 4.63184 3.34377C4.29199 3.69533 4.29199 4.28127 4.63184 4.62111L22.7725 22.7383Z" fill="black" fillOpacity="0.85"/>
</g>
<defs>
<clipPath id="clip0_2201_1275">
<rect width="22.6714" height="26.7539" fill="white" transform="translate(3 1)"/>
</clipPath>
</defs>
</svg>
