<svg width="28" height="28" viewBox="0 0 28 28" fill="none" xmlns="http://www.w3.org/2000/svg">
<g clipPath="url(#clip0_2201_1273)">
<path d="M6.67969 24.5977H20.8945C23.3555 24.5977 24.5742 23.3789 24.5742 20.9648V6.65625C24.5742 4.24219 23.3555 3.02344 20.8945 3.02344H6.67969C4.23047 3.02344 3 4.23047 3 6.65625V20.9648C3 23.3906 4.23047 24.5977 6.67969 24.5977ZM6.70312 22.7109C5.53125 22.7109 4.88672 22.0898 4.88672 20.8711V6.75C4.88672 5.53125 5.53125 4.91016 6.70312 4.91016H20.8711C22.0312 4.91016 22.6875 5.53125 22.6875 6.75V20.8711C22.6875 22.0898 22.0312 22.7109 20.8711 22.7109H6.70312Z" fill="black" fillOpacity="0.85"/>
<path d="M10.8164 20.8359H16.7812C17.1094 20.8359 17.4141 20.5312 17.4141 20.2031C17.4141 19.8633 17.1211 19.5703 16.7812 19.5703H14.4375V18.3867C16.7695 18.1172 18.3281 16.3477 18.3281 13.9688V12.457C18.3281 12.1289 18.0352 11.8477 17.707 11.8477C17.3672 11.8477 17.0859 12.1289 17.0859 12.457V13.9688C17.0859 15.8906 15.7383 17.2383 13.793 17.2383C11.8594 17.2383 10.5117 15.8906 10.5117 13.9688V12.457C10.5117 12.1289 10.2305 11.8477 9.89062 11.8477C9.55078 11.8477 9.26953 12.1289 9.26953 12.457V13.9688C9.26953 16.3477 10.8398 18.1289 13.1719 18.3867V19.5703H10.8164C10.4766 19.5703 10.1836 19.8633 10.1836 20.2031C10.1836 20.543 10.4766 20.8359 10.8164 20.8359ZM13.793 16.0547C14.9414 16.0547 15.7383 15.1641 15.7383 13.9688V8.94141C15.7383 7.75781 14.9414 6.87891 13.793 6.87891C12.6445 6.87891 11.8477 7.75781 11.8477 8.94141V13.9688C11.8477 15.1641 12.6445 16.0547 13.793 16.0547Z" fill="black" fillOpacity="0.85"/>
</g>
<defs>
<clipPath id="clip0_2201_1273">
<rect width="21.5742" height="21.5977" fill="white" transform="translate(3 3)"/>
</clipPath>
</defs>
</svg>
