<svg width="28" height="28" viewBox="0 0 28 28" fill="none" xmlns="http://www.w3.org/2000/svg">
<g clipPath="url(#clip0_2201_1271)">
<path d="M13.9531 25.9062C20.4922 25.9062 25.9062 20.4805 25.9062 13.9531C25.9062 7.41406 20.4805 2 13.9414 2C7.41406 2 2 7.41406 2 13.9531C2 20.4805 7.42578 25.9062 13.9531 25.9062ZM13.9531 23.9141C8.42188 23.9141 4.00391 19.4844 4.00391 13.9531C4.00391 8.42188 8.41016 3.99219 13.9414 3.99219C19.4727 3.99219 23.9141 8.42188 23.9141 13.9531C23.9141 19.4844 19.4844 23.9141 13.9531 23.9141Z" fill="black" fillOpacity="0.85"/>
<path d="M10.9648 20.9961H16.9297C17.2578 20.9961 17.5508 20.6914 17.5508 20.3633C17.5508 20.0234 17.2695 19.7305 16.9297 19.7305H14.5859V18.5469C16.9062 18.2773 18.4766 16.5078 18.4766 14.1289V12.6172C18.4766 12.2891 18.1836 12.0078 17.8555 12.0078C17.5156 12.0078 17.2344 12.2891 17.2344 12.6172V14.1289C17.2344 16.0508 15.875 17.3984 13.9414 17.3984C12.0078 17.3984 10.6602 16.0508 10.6602 14.1289V12.6172C10.6602 12.2891 10.3672 12.0078 10.0273 12.0078C9.69922 12.0078 9.41797 12.2891 9.41797 12.6172V14.1289C9.41797 16.5078 10.9883 18.2891 13.3203 18.5469V19.7305H10.9648C10.625 19.7305 10.332 20.0234 10.332 20.3633C10.332 20.7031 10.625 20.9961 10.9648 20.9961ZM13.9414 16.2148C15.0898 16.2148 15.8867 15.3242 15.8867 14.1289V9.10156C15.8867 7.91797 15.0898 7.03906 13.9414 7.03906C12.793 7.03906 11.9961 7.91797 11.9961 9.10156V14.1289C11.9961 15.3242 12.793 16.2148 13.9414 16.2148Z" fill="black" fillOpacity="0.85"/>
</g>
<defs>
<clipPath id="clip0_2201_1271">
<rect width="23.9062" height="23.918" fill="white" transform="translate(2 2)"/>
</clipPath>
</defs>
</svg>
