<svg width="28" height="28" viewBox="0 0 28 28" fill="none" xmlns="http://www.w3.org/2000/svg">
<g clipPath="url(#clip0_2201_1284)">
<path d="M9.99219 13.2695C9.99219 17.8633 13.0156 21.0859 17.4922 21.4609V24.1914H13.1445C12.6523 24.1914 12.2539 24.5898 12.2539 25.082C12.2539 25.5742 12.6523 25.9609 13.1445 25.9609H23.6094C24.1016 25.9609 24.5 25.5742 24.5 25.082C24.5 24.5898 24.1016 24.1914 23.6094 24.1914H19.2617V21.4609C23.7266 21.0859 26.7617 17.8633 26.7617 13.2695V10.8906C26.7617 10.3984 26.375 10.0117 25.8711 10.0117C25.3789 10.0117 24.9922 10.3984 24.9922 10.8906V13.1992C24.9922 17.1953 22.3906 19.8438 18.3711 19.8438C14.3633 19.8438 11.7617 17.1953 11.7617 13.1992V10.8906C11.7617 10.3984 11.3633 10.0117 10.8711 10.0117C10.3789 10.0117 9.99219 10.3984 9.99219 10.8906V13.2695ZM18.3711 17.3242C20.7148 17.3242 22.2852 15.5781 22.2852 13.082V5.24219C22.2852 2.73438 20.7148 1 18.3711 1C16.0391 1 14.4688 2.73438 14.4688 5.24219V13.082C14.4688 15.5781 16.0391 17.3242 18.3711 17.3242Z" fill="black" fillOpacity="0.85"/>
<path d="M3.96875 7.05859C5.04688 7.05859 5.92578 6.17969 5.92578 5.10156C5.92578 4.01172 5.04688 3.13281 3.96875 3.13281C2.87891 3.13281 2 4.01172 2 5.10156C2 6.17969 2.87891 7.05859 3.96875 7.05859Z" fill="black" fillOpacity="0.85"/>
<path d="M3.96875 13.1523C5.04688 13.1523 5.92578 12.2734 5.92578 11.1953C5.92578 10.1055 5.04688 9.22656 3.96875 9.22656C2.87891 9.22656 2 10.1055 2 11.1953C2 12.2734 2.87891 13.1523 3.96875 13.1523Z" fill="black" fillOpacity="0.85"/>
<path d="M3.96875 19.2695C5.04688 19.2695 5.92578 18.3906 5.92578 17.3125C5.92578 16.2227 5.04688 15.3438 3.96875 15.3438C2.87891 15.3438 2 16.2227 2 17.3125C2 18.3906 2.87891 19.2695 3.96875 19.2695Z" fill="black" fillOpacity="0.85"/>
<path d="M3.96875 25.3633C5.04688 25.3633 5.92578 24.4844 5.92578 23.4062C5.92578 22.3164 5.04688 21.4375 3.96875 21.4375C2.87891 21.4375 2 22.3164 2 23.4062C2 24.4844 2.87891 25.3633 3.96875 25.3633Z" fill="black" fillOpacity="0.85"/>
</g>
<defs>
<clipPath id="clip0_2201_1284">
<rect width="24.7617" height="26.5195" fill="white" transform="translate(2 1)"/>
</clipPath>
</defs>
</svg>
