<svg width="28" height="28" viewBox="0 0 28 28" fill="none" xmlns="http://www.w3.org/2000/svg">
<g clipPath="url(#clip0_2201_1272)">
<path d="M13.9531 25.9062C20.4922 25.9062 25.9062 20.4805 25.9062 13.9531C25.9062 7.41406 20.4805 2 13.9414 2C7.41406 2 2 7.41406 2 13.9531C2 20.4805 7.42578 25.9062 13.9531 25.9062Z" fill="black" fillOpacity="0.85"/>
<path d="M10.8828 21.207C10.5313 21.207 10.2266 20.9141 10.2266 20.5625C10.2266 20.2109 10.5313 19.9062 10.8828 19.9062H13.3086V18.6875C10.9063 18.418 9.28906 16.5898 9.28906 14.1289V12.5703C9.28906 12.2305 9.58203 11.9375 9.92188 11.9375C10.2734 11.9375 10.5664 12.2305 10.5664 12.5703V14.1289C10.5664 16.1094 11.9609 17.5039 13.9531 17.5039C15.9453 17.5039 17.3516 16.1094 17.3516 14.1289V12.5703C17.3516 12.2305 17.6328 11.9375 17.9844 11.9375C18.3242 11.9375 18.6289 12.2305 18.6289 12.5703V14.1289C18.6289 16.5898 17.0117 18.4062 14.6211 18.6875V19.9062H17.0352C17.3867 19.9062 17.6797 20.2109 17.6797 20.5625C17.6797 20.9023 17.375 21.207 17.0352 21.207H10.8828ZM13.9531 16.2852C12.7695 16.2852 11.9492 15.3594 11.9492 14.1289V8.94922C11.9492 7.73047 12.7695 6.82812 13.9531 6.82812C15.1367 6.82812 15.957 7.73047 15.957 8.94922V14.1289C15.957 15.3594 15.1367 16.2852 13.9531 16.2852Z" fill="white"/>
</g>
<defs>
<clipPath id="clip0_2201_1272">
<rect width="23.9062" height="23.918" fill="white" transform="translate(2 2)"/>
</clipPath>
</defs>
</svg>
