<svg width="28" height="28" viewBox="0 0 28 28" fill="none" xmlns="http://www.w3.org/2000/svg">
<g clipPath="url(#clip0_2201_1355)">
<path d="M7.96094 26.8867C8.41797 26.8867 8.75781 26.6523 9.30859 26.1367L13.5391 22.2695H21.4609C24.9531 22.2695 26.8281 20.3477 26.8281 16.9141V7.9375C26.8281 4.50391 24.9531 2.57031 21.4609 2.57031H6.36719C2.875 2.57031 1 4.49219 1 7.9375V16.9141C1 20.3594 2.875 22.2695 6.36719 22.2695H6.91797V25.6797C6.91797 26.4062 7.29297 26.8867 7.96094 26.8867Z" fill="black" fillOpacity="0.85"/>
<path d="M8.61719 18.5195C8.14844 18.5195 7.9375 18.2148 7.9375 17.793C7.9375 16.5273 9.84766 13.2227 13.9258 13.2227C18.0039 13.2227 19.9141 16.5273 19.9141 17.793C19.9141 18.2148 19.6914 18.5195 19.2227 18.5195H8.61719ZM13.9258 12.2734C12.2734 12.2617 10.9375 10.8789 10.9375 9.01562C10.9375 7.28126 12.2734 5.82812 13.9258 5.82812C15.5664 5.82812 16.9023 7.28126 16.9023 9.01562C16.9023 10.8789 15.5664 12.2852 13.9258 12.2734Z" fill="white"/>
</g>
<defs>
<clipPath id="clip0_2201_1355">
<rect width="25.8281" height="25.8867" fill="white" transform="translate(1 1)"/>
</clipPath>
</defs>
</svg>
