<svg width="28" height="28" viewBox="0 0 28 28" fill="none" xmlns="http://www.w3.org/2000/svg">
<g clipPath="url(#clip0_2201_1381)">
<path d="M13.9531 25.918C20.4922 25.918 25.9062 20.5039 25.9062 13.9648C25.9062 7.4375 20.4805 2.01172 13.9414 2.01172C7.41406 2.01172 2 7.4375 2 13.9648C2 20.5039 7.42578 25.918 13.9531 25.918Z" fill="black" fillOpacity="0.85"/>
<path d="M10.1914 17.7383C7.37891 14.9141 5.57422 11.3281 7.70703 9.20703C7.75391 9.16016 7.80078 9.11328 7.85938 9.06641C8.66797 8.46875 9.40625 8.32812 9.91016 9.04297L11.3984 11.1406C11.9141 11.8555 11.7852 12.2891 11.2461 12.8516L10.7773 13.3672C10.6133 13.5195 10.6602 13.7422 10.7539 13.8711C10.9883 14.2695 11.5859 15.0195 12.2422 15.6875C12.9219 16.3555 13.625 16.9297 14.0586 17.1758C14.2109 17.2812 14.457 17.293 14.5859 17.1523L15.0781 16.6719C15.6172 16.1445 16.0742 16.0156 16.7773 16.5195C17.7734 17.1992 18.3711 17.6211 18.9219 18.0312C19.625 18.5586 19.4844 19.3789 18.9336 20C18.8633 20.082 18.8047 20.1523 18.7227 20.2344C16.6016 22.3555 13.0039 20.5625 10.1914 17.7383ZM14.4805 14.1523C14.1055 14.1523 13.8359 13.9062 13.8359 13.5547C13.8359 13.3555 13.8945 13.2148 14.0352 13.0742L16.9766 10.1328L17.8086 9.35938L16.2148 9.44141H15.1719C14.8203 9.44141 14.5508 9.18359 14.5391 8.84375C14.5156 8.49219 14.8086 8.1875 15.1719 8.1875H19.1328C19.5547 8.1875 19.8008 8.43359 19.8008 8.86719V12.8047C19.8008 13.168 19.5078 13.4609 19.1445 13.4492C18.8047 13.4141 18.5586 13.1445 18.5586 12.8047V11.7969L18.6289 10.1797L17.8555 11.0352L14.9141 13.9883C14.8203 14.1055 14.6562 14.1523 14.4805 14.1523Z" fill="white"/>
</g>
<defs>
<clipPath id="clip0_2201_1381">
<rect width="23.9062" height="23.918" fill="white" transform="translate(2 2)"/>
</clipPath>
</defs>
</svg>
