<svg width="28" height="28" viewBox="0 0 28 28" fill="none" xmlns="http://www.w3.org/2000/svg">
<g clipPath="url(#clip0_2201_1378)">
<path d="M19.0391 25.0039C21.0898 25.0039 22.4375 24.4531 23.6211 23.1172C23.7148 23.0234 23.8086 22.918 23.8906 22.8242C24.5938 22.0391 24.9219 21.2656 24.9219 20.5273C24.9219 19.6836 24.4297 18.8984 23.3867 18.1719L19.9766 15.8047C18.9219 15.0781 17.6914 14.9961 16.707 15.9688L15.8047 16.8711C15.5352 17.1406 15.3008 17.1523 15.043 16.9883C14.4102 16.5898 13.1328 15.4766 12.2656 14.6094C11.3516 13.707 10.4727 12.6992 10.0039 11.9609C9.85156 11.6914 9.86328 11.4687 10.1328 11.1992L11.0234 10.2969C12.0078 9.31249 11.9258 8.0703 11.1992 7.02733L8.83203 3.61718C8.10547 2.57421 7.32031 2.09374 6.47656 2.08202C5.73828 2.0703 4.96484 2.41014 4.17969 3.11327C4.07422 3.20702 3.98047 3.28905 3.88672 3.37108C2.55078 4.5664 2 5.91405 2 7.9414C2 11.293 4.0625 15.3711 7.84766 19.1562C11.6094 22.918 15.6992 25.0039 19.0391 25.0039ZM19.0508 23.1992C16.0625 23.2578 12.2305 20.9609 9.19531 17.9375C6.13672 14.8906 3.73438 10.9297 3.79297 7.9414C3.81641 6.65233 4.27344 5.53905 5.1875 4.74218C5.26953 4.67187 5.32812 4.61327 5.41016 4.55468C5.76172 4.24999 6.13672 4.08593 6.47656 4.08593C6.81641 4.08593 7.12109 4.21483 7.34375 4.5664L9.61719 7.97655C9.86328 8.33983 9.88672 8.74999 9.52344 9.11327L8.49219 10.1445C7.68359 10.9531 7.74219 11.9375 8.32812 12.7227C8.99609 13.625 10.1562 14.9375 11.0586 15.8281C11.9492 16.7305 13.3672 17.9961 14.2812 18.6758C15.0664 19.2617 16.0508 19.3203 16.8594 18.5117L17.8906 17.4805C18.2539 17.1172 18.6523 17.1406 19.0273 17.375L22.4375 19.6484C22.7891 19.8828 22.918 20.1758 22.918 20.5273C22.918 20.8672 22.7539 21.2422 22.4492 21.5938C22.3789 21.6758 22.332 21.7344 22.2617 21.8164C21.4648 22.7305 20.3516 23.1758 19.0508 23.1992Z" fill="black" fillOpacity="0.85"/>
<path d="M16.1094 11.8086C16.3438 11.8086 16.543 11.7266 16.7188 11.5508L21.7695 6.48828L23.5625 4.54297L23.3633 7.97656V9.72266C23.3633 10.1797 23.7148 10.5312 24.1719 10.5547C24.6406 10.5781 25.0391 10.2031 25.0391 9.72266V2.9375C25.0391 2.31641 24.7344 2 24.125 2H17.3164C16.8242 2 16.4492 2.39844 16.4727 2.87891C16.4961 3.33594 16.8477 3.67578 17.3164 3.67578H19.0859L22.5312 3.48828L20.5625 5.28125L15.5117 10.3438C15.3242 10.5312 15.2305 10.7422 15.2305 10.9883C15.2305 11.4453 15.6172 11.8086 16.1094 11.8086Z" fill="black" fillOpacity="0.85"/>
</g>
<defs>
<clipPath id="clip0_2201_1378">
<rect width="23.0391" height="23.0273" fill="white" transform="translate(2 2)"/>
</clipPath>
</defs>
</svg>
