<svg width="47" height="28" viewBox="0 0 47 28" fill="none" xmlns="http://www.w3.org/2000/svg">
<g clipPath="url(#clip0_2201_1390)">
<path d="M0 14.3384C0 17.3735 1.10156 20.1743 3.04688 22.2954C3.49219 22.7876 4.14844 22.7876 4.52344 22.354C4.89844 21.9321 4.78125 21.3814 4.35938 20.9009C2.78906 19.1548 1.91016 16.8579 1.91016 14.3384C1.91016 11.8189 2.78906 9.52198 4.35938 7.77589C4.78125 7.29542 4.89844 6.74463 4.52344 6.32276C4.14844 5.87745 3.49219 5.88917 3.04688 6.38135C1.10156 8.49073 0 11.3032 0 14.3384ZM46.4297 14.3384C46.4297 11.3032 45.3398 8.49073 43.3945 6.38135C42.9375 5.88917 42.2812 5.87745 41.9062 6.32276C41.5312 6.74463 41.6484 7.29542 42.0703 7.77589C43.6406 9.52198 44.5195 11.8189 44.5195 14.3384C44.5195 16.8579 43.6406 19.1548 42.0703 20.9009C41.6484 21.3814 41.5312 21.9321 41.9062 22.354C42.2812 22.7876 42.9375 22.7876 43.3945 22.2954C45.3398 20.1743 46.4297 17.3735 46.4297 14.3384Z" fill="black" fillOpacity="0.85"/>
<path d="M4.69922 14.3384C4.69922 16.061 5.28516 17.6665 6.30469 18.9321C6.71484 19.4595 7.41797 19.4478 7.80469 19.0142C8.17969 18.5923 8.02734 18.0649 7.65234 17.561C6.94922 16.6821 6.60938 15.5571 6.60938 14.3384C6.60938 13.1079 6.96094 11.9712 7.65234 11.1157C8.02734 10.6118 8.17969 10.0845 7.80469 9.66257C7.41797 9.21726 6.71484 9.21726 6.30469 9.74461C5.28516 11.0102 4.69922 12.6157 4.69922 14.3384ZM41.7422 14.3384C41.7422 12.6157 41.1445 11.0102 40.125 9.74461C39.7148 9.21726 39.0117 9.21726 38.625 9.66257C38.25 10.0845 38.4023 10.6118 38.7773 11.1157C39.4805 11.9829 39.832 13.1196 39.832 14.3384C39.832 15.5571 39.4805 16.6821 38.7773 17.561C38.4023 18.0649 38.25 18.5923 38.625 19.0142C39.0117 19.4478 39.7148 19.4595 40.125 18.9321C41.1445 17.6665 41.7422 16.061 41.7422 14.3384Z" fill="black" fillOpacity="0.85"/>
<path d="M9.44532 15.1938C9.4922 16.1314 9.78517 16.9751 10.3359 17.5376C10.7578 17.9478 11.3203 18.1939 11.9883 18.0767L16.3359 17.3384C16.9922 17.2329 17.4492 17.0337 17.7422 16.7407C18.1289 16.3657 18.2461 15.8032 18.2461 15.0532L18.2578 13.8813C18.2578 13.6938 18.3398 13.5532 18.4453 13.436C18.5625 13.2954 18.7383 13.2368 18.8672 13.2017C19.6641 13.0142 21.293 12.8267 23.2148 12.8267C25.1484 12.8267 26.7656 13.0142 27.5625 13.2017C27.6914 13.2368 27.8672 13.2954 27.9844 13.436C28.1016 13.5532 28.1836 13.6938 28.1836 13.8813V15.0532C28.1836 15.8032 28.3008 16.3657 28.6875 16.7407C28.9805 17.0337 29.4375 17.2329 30.0938 17.3384L34.4414 18.0767C35.1094 18.1939 35.6836 17.9478 36.0938 17.5376C36.6445 16.9751 36.9375 16.1314 36.9844 15.1938C37.0547 13.6118 36.5156 12.311 35.4375 11.2446C33.0586 8.86573 28.2891 7.79932 23.2148 7.7876C18.1406 7.79932 13.3711 8.86573 10.9922 11.2446C9.92579 12.311 9.37501 13.6118 9.44532 15.1938Z" fill="black" fillOpacity="0.85"/>
</g>
<defs>
<clipPath id="clip0_2201_1390">
<rect width="46.4297" height="16.6885" fill="white" transform="translate(0 6)"/>
</clipPath>
</defs>
</svg>
