<svg width="28" height="28" viewBox="0 0 28 28" fill="none" xmlns="http://www.w3.org/2000/svg">
<g clipPath="url(#clip0_2201_1383)">
<path d="M8.95312 19.6055C12.3398 22.9922 16.4531 25.6055 19.8164 25.6055C21.3281 25.6055 22.6523 25.0781 23.7188 23.9062C24.3398 23.2148 24.7266 22.4062 24.7266 21.6094C24.7266 21.0234 24.5039 20.4609 23.9531 20.0625L20.3555 17.5078C19.8047 17.1328 19.3477 16.9453 18.9258 16.9453C18.3984 16.9453 17.918 17.25 17.3789 17.7773L16.5469 18.5977C16.418 18.7266 16.2539 18.7852 16.1016 18.7852C15.9258 18.7852 15.75 18.7148 15.6328 18.6562C14.9062 18.2695 13.6641 17.2031 12.5039 16.0547C11.3555 14.9062 10.2891 13.6641 9.91406 12.9375C9.85547 12.8086 9.78516 12.6445 9.78516 12.4688C9.78516 12.3164 9.83203 12.1641 9.96094 12.0352L10.793 11.1797C11.3086 10.6406 11.625 10.1719 11.625 9.63281C11.625 9.21094 11.4258 8.75391 11.0391 8.20312L8.51953 4.65234C8.10938 4.08984 7.53516 3.84375 6.90234 3.84375C6.12891 3.84375 5.33203 4.19531 4.64062 4.86328C3.50391 5.95312 3 7.30078 3 8.78906C3 12.1523 5.56641 16.2305 8.95312 19.6055Z" fill="black" fillOpacity="0.85"/>
<path d="M24.4219 3.39844C24.1758 3.39844 23.9883 3.48047 23.8125 3.65625L18.7617 8.71875L16.9688 10.6641L17.1562 7.23047V5.48438C17.1562 5.02734 16.8164 4.67578 16.3594 4.65234C15.8906 4.62891 15.4805 5.00391 15.4805 5.48438V12.2695C15.4805 12.8906 15.7852 13.1953 16.4062 13.1953H23.2148C23.6953 13.1953 24.082 12.8086 24.0586 12.3281C24.0352 11.8711 23.6719 11.5312 23.2148 11.5312H21.4453L18 11.7187L19.9688 9.92578L25.0078 4.86328C25.207 4.67578 25.3008 4.46484 25.3008 4.21875C25.3008 3.76172 24.9141 3.39844 24.4219 3.39844Z" fill="black" fillOpacity="0.85"/>
</g>
<defs>
<clipPath id="clip0_2201_1383">
<rect width="22.3008" height="22.6055" fill="white" transform="translate(3 3)"/>
</clipPath>
</defs>
</svg>
