<svg width="28" height="28" viewBox="0 0 28 28" fill="none" xmlns="http://www.w3.org/2000/svg">
<g clipPath="url(#clip0_2201_1374)">
<path d="M19.0391 25.8818C21.0781 25.8818 22.4258 25.3311 23.6211 23.9951C23.7148 23.9014 23.7969 23.7959 23.8906 23.7021C24.5938 22.917 24.9219 22.1436 24.9219 21.4053C24.9219 20.5615 24.4297 19.7764 23.3867 19.0498L19.9766 16.6826C18.9219 15.9561 17.6914 15.874 16.707 16.8467L15.8047 17.749C15.5352 18.0186 15.3008 18.0303 15.0312 17.8662C14.4102 17.4678 13.1328 16.3545 12.2656 15.4873C11.3516 14.585 10.4609 13.5771 10.0039 12.8389C9.83984 12.5693 9.86328 12.3467 10.1328 12.0771L11.0234 11.1748C12.0078 10.1904 11.9258 8.94823 11.1992 7.90526L8.82031 4.49511C8.10547 3.45214 7.32031 2.97167 6.47656 2.95995C5.73828 2.94823 4.96484 3.28808 4.17969 3.9912C4.07422 4.08495 3.98047 4.16698 3.875 4.24901C2.55078 5.44433 2 6.79198 2 8.81933C2 12.1709 4.0625 16.249 7.84766 20.0342C11.6094 23.7959 15.6992 25.8818 19.0391 25.8818ZM19.0508 24.0771C16.0625 24.1357 12.2305 21.8389 9.19531 18.8154C6.13672 15.7686 3.73438 11.8076 3.79297 8.81933C3.81641 7.53026 4.26172 6.41698 5.1875 5.62011C5.25781 5.54979 5.32812 5.4912 5.41016 5.43261C5.75 5.12792 6.13672 4.96386 6.46484 4.96386C6.81641 4.96386 7.12109 5.09276 7.34375 5.44433L9.61719 8.85448C9.86328 9.21776 9.88672 9.62792 9.52344 9.9912L8.49219 11.0225C7.67188 11.8311 7.74219 12.8154 8.32812 13.6006C8.99609 14.5029 10.1562 15.8154 11.0469 16.7061C11.9492 17.6084 13.3672 18.874 14.2695 19.5537C15.0547 20.1396 16.0508 20.1982 16.8594 19.3896L17.8906 18.3584C18.2539 17.9951 18.6523 18.0186 19.0156 18.2529L22.4258 20.5264C22.7773 20.7607 22.918 21.0537 22.918 21.4053C22.918 21.7451 22.7539 22.1201 22.4375 22.4717C22.3789 22.5537 22.332 22.6123 22.2617 22.6943C21.4531 23.6084 20.3398 24.0537 19.0508 24.0771Z" fill="black" fillOpacity="0.85"/>
<path d="M14.75 13.1318C15.3828 13.7646 16.3906 13.7646 17.0234 13.1318C17.6445 12.499 17.6445 11.4912 17.0234 10.8818C16.3906 10.2373 15.3828 10.2373 14.75 10.8584C14.1172 11.4912 14.1172 12.499 14.75 13.1318ZM15.9102 6.63965C15.5352 7.00293 15.5352 7.6123 15.9102 7.97559L19.9062 11.9834C20.2695 12.3467 20.8789 12.3467 21.2422 11.9834C21.6055 11.6201 21.6055 11.0107 21.2422 10.6475L17.2344 6.63965C16.8711 6.27637 16.2617 6.27637 15.9102 6.63965ZM20.1289 7.77637C20.7617 8.37402 21.7695 8.38574 22.3906 7.75293C23.0117 7.13184 23.0117 6.12402 22.3906 5.50293C21.7695 4.87012 20.75 4.87012 20.1289 5.49121C19.4961 6.12402 19.4961 7.12012 20.1289 7.77637ZM21.2891 1.27246C20.9258 1.63574 20.9258 2.2334 21.2891 2.6084L25.2734 6.60449C25.6484 6.97949 26.2578 6.97949 26.6211 6.60449C26.9844 6.24121 26.9844 5.64355 26.6211 5.28027L22.625 1.27246C22.25 0.90918 21.6406 0.90918 21.2891 1.27246Z" fill="black" fillOpacity="0.85"/>
</g>
<defs>
<clipPath id="clip0_2201_1374">
<rect width="24.8936" height="26.7832" fill="white" transform="translate(2 1)"/>
</clipPath>
</defs>
</svg>
