<svg width="28" height="28" viewBox="0 0 28 28" fill="none" xmlns="http://www.w3.org/2000/svg">
<g clipPath="url(#clip0_2201_1368)">
<path d="M13.9531 25.9062C20.4922 25.9062 25.9062 20.4805 25.9062 13.9531C25.9062 7.41406 20.4805 2 13.9414 2C7.41406 2 2 7.41406 2 13.9531C2 20.4805 7.42578 25.9062 13.9531 25.9062ZM13.9531 23.9141C8.42188 23.9141 4.00391 19.4844 4.00391 13.9531C4.00391 8.42188 8.41016 3.99219 13.9414 3.99219C19.4727 3.99219 23.9141 8.42188 23.9141 13.9531C23.9141 19.4844 19.4844 23.9141 13.9531 23.9141Z" fill="black" fillOpacity="0.85"/>
<path d="M11.0938 16.6953C13.8242 19.4375 17.3047 21.1719 19.3672 19.1211C19.4492 19.0391 19.5078 18.9688 19.5664 18.8867C20.1055 18.2891 20.2461 17.5039 19.5664 16.9766C19.0273 16.5898 18.4531 16.1797 17.4805 15.5117C16.8008 15.0312 16.3555 15.1484 15.8281 15.6758L15.3594 16.1328C15.2305 16.2617 14.9961 16.25 14.8438 16.1562C14.4219 15.9102 13.7422 15.3594 13.0859 14.7031C12.4414 14.0586 11.8672 13.332 11.6328 12.9453C11.5508 12.8164 11.5039 12.6055 11.6563 12.4531L12.1133 11.961C12.6406 11.4102 12.7578 10.9883 12.2656 10.2969L10.8242 8.25784C10.332 7.56644 9.6172 7.70706 8.83204 8.28128C8.77345 8.32815 8.72657 8.37503 8.6797 8.42191C6.60548 10.4844 8.36329 13.9648 11.0938 16.6953Z" fill="black" fillOpacity="0.85"/>
</g>
<defs>
<clipPath id="clip0_2201_1368">
<rect width="23.9062" height="23.918" fill="white" transform="translate(2 2)"/>
</clipPath>
</defs>
</svg>
