<svg width="28" height="28" viewBox="0 0 28 28" fill="none" xmlns="http://www.w3.org/2000/svg">
<g clipPath="url(#clip0_2201_1348)">
<path d="M8.20703 26.7461C8.78125 26.7461 9.17969 26.4414 9.89453 25.8086L13.9375 22.2109H21.4609C24.9531 22.2109 26.8281 20.2773 26.8281 16.8438V7.86719C26.8281 4.43359 24.9531 2.5 21.4609 2.5H6.36719C2.875 2.5 1 4.42188 1 7.86719V16.8438C1 20.2891 2.875 22.2109 6.36719 22.2109H6.92969V25.2578C6.92969 26.1602 7.38672 26.7461 8.20703 26.7461ZM8.6875 24.6016V21.2031C8.6875 20.5703 8.44141 20.3242 7.80859 20.3242H6.36719C4 20.3242 2.88672 19.1172 2.88672 16.832V7.86719C2.88672 5.58203 4 4.38672 6.36719 4.38672H21.4609C23.8164 4.38672 24.9414 5.58203 24.9414 7.86719V16.832C24.9414 19.1172 23.8164 20.3242 21.4609 20.3242H13.8672C13.2109 20.3242 12.8828 20.418 12.4375 20.875L8.6875 24.6016Z" fill="black" fillOpacity="0.85"/>
<path d="M11.0664 15.0977C13.8086 17.8398 17.2891 19.5742 19.3516 17.5234C19.4219 17.4414 19.4805 17.3711 19.5508 17.2891C20.0781 16.6914 20.2305 15.9062 19.5391 15.3789C19 14.9922 18.4375 14.5938 17.4648 13.9258C16.7734 13.4336 16.3281 13.5508 15.8008 14.0781L15.3438 14.5352C15.2031 14.6758 14.9688 14.6523 14.8164 14.5586C14.4062 14.3125 13.7148 13.7617 13.0586 13.1055C12.4141 12.4609 11.8398 11.7344 11.6172 11.3477C11.5352 11.2188 11.4766 11.0078 11.6289 10.8555L12.0977 10.3633C12.625 9.81253 12.7305 9.39065 12.2383 8.69925L10.7969 6.66019C10.3164 5.96878 9.60158 6.10941 8.80471 6.68362C8.74611 6.7305 8.69924 6.77737 8.65236 6.82425C6.58986 8.88675 8.33596 12.3672 11.0664 15.0977Z" fill="black" fillOpacity="0.85"/>
</g>
<defs>
<clipPath id="clip0_2201_1348">
<rect width="25.8281" height="25.7461" fill="white" transform="translate(1 1)"/>
</clipPath>
</defs>
</svg>
