<svg width="28" height="28" viewBox="0 0 28 28" fill="none" xmlns="http://www.w3.org/2000/svg">
<g clipPath="url(#clip0_2201_1388)">
<path d="M13.9531 25.9062C20.4922 25.9062 25.9062 20.4805 25.9062 13.9531C25.9062 7.41406 20.4805 2 13.9414 2C7.41406 2 2 7.41406 2 13.9531C2 20.4805 7.42578 25.9062 13.9531 25.9062ZM13.9531 23.9141C8.42188 23.9141 4.00391 19.4844 4.00391 13.9531C4.00391 8.42188 8.41016 3.99219 13.9414 3.99219C19.4727 3.99219 23.9141 8.42188 23.9141 13.9531C23.9141 19.4844 19.4844 23.9141 13.9531 23.9141Z" fill="black" fillOpacity="0.85"/>
<path d="M5.96094 15.0664C5.96094 15.9336 6.39453 16.625 7.28516 16.625C7.94141 16.625 8.71484 16.5898 10.0273 16.1914C10.7891 15.9453 11.1172 15.5938 11.1289 14.7734L11.1406 14.0352C11.1406 13.9062 11.2109 13.8125 11.3867 13.7539C11.7852 13.625 12.6992 13.4609 13.9414 13.4609C15.1836 13.4609 16.0977 13.625 16.4961 13.7539C16.6719 13.8125 16.7422 13.9062 16.7422 14.0352L16.7539 14.7734C16.7773 15.5938 17.1055 15.9453 17.8555 16.1914C19.168 16.5898 19.9414 16.625 20.5977 16.625C21.4883 16.625 21.9219 15.9336 21.9219 15.0664V14.9492C21.9219 11.8086 17.7969 10.3438 13.9414 10.3438C10.0859 10.3438 5.96094 11.8086 5.96094 14.9492V15.0664Z" fill="black" fillOpacity="0.85"/>
</g>
<defs>
<clipPath id="clip0_2201_1388">
<rect width="23.9062" height="23.918" fill="white" transform="translate(2 2)"/>
</clipPath>
</defs>
</svg>
