<svg width="28" height="28" viewBox="0 0 28 28" fill="none" xmlns="http://www.w3.org/2000/svg">
<g clipPath="url(#clip0_2201_1369)">
<path d="M13.9531 25.918C20.4922 25.918 25.9062 20.5039 25.9062 13.9648C25.9062 7.4375 20.4805 2.01172 13.9414 2.01172C7.41406 2.01172 2 7.4375 2 13.9648C2 20.5039 7.42578 25.918 13.9531 25.918Z" fill="black" fillOpacity="0.85"/>
<path d="M11.0234 16.7891C8.1992 13.9766 6.40623 10.3906 8.52732 8.25783C8.5742 8.21096 8.62107 8.16408 8.69139 8.11721C9.49998 7.51955 10.25 7.37893 10.7422 8.09377L12.2305 10.1914C12.7344 10.9063 12.6289 11.3399 12.0664 11.9141L11.5976 12.418C11.4453 12.582 11.5039 12.793 11.5742 12.9336C11.8203 13.3438 12.4062 14.0703 13.0742 14.7383C13.7539 15.418 14.457 15.9805 14.8789 16.2383C15.043 16.332 15.2891 16.3555 15.418 16.2148L15.8984 15.7461C16.4375 15.207 16.9062 15.0898 17.6211 15.582C18.5938 16.2734 19.1914 16.6836 19.7539 17.0938C20.457 17.6211 20.3047 18.4414 19.7656 19.0508C19.6953 19.1328 19.6367 19.2148 19.5547 19.2969C17.4336 21.418 13.8359 19.625 11.0234 16.7891Z" fill="white"/>
</g>
<defs>
<clipPath id="clip0_2201_1369">
<rect width="23.9062" height="23.918" fill="white" transform="translate(2 2)"/>
</clipPath>
</defs>
</svg>
