<svg width="28" height="28" viewBox="0 0 28 28" fill="none" xmlns="http://www.w3.org/2000/svg">
<g clipPath="url(#clip0_2201_1389)">
<path d="M13.9531 25.918C20.4922 25.918 25.9062 20.5039 25.9062 13.9648C25.9062 7.4375 20.4805 2.01172 13.9414 2.01172C7.41406 2.01172 2 7.4375 2 13.9648C2 20.5039 7.42578 25.918 13.9531 25.918Z" fill="black" fillOpacity="0.85"/>
<path d="M5.72656 15.125V15.0078C5.72656 11.7734 9.98047 10.2617 13.9531 10.2617C17.9258 10.2617 22.1797 11.7734 22.1797 15.0078V15.125C22.1797 16.0273 21.7344 16.7305 20.8203 16.7305C20.1406 16.7305 19.3438 16.6953 17.9844 16.2852C17.2109 16.0508 16.8711 15.6758 16.8477 14.8203L16.8359 14.0586C16.8359 13.9297 16.7656 13.8359 16.5898 13.7773C16.1797 13.6484 15.2305 13.4844 13.9531 13.4844C12.6758 13.4844 11.7266 13.6484 11.3164 13.7773C11.1406 13.8359 11.0703 13.9297 11.0703 14.0586L11.0586 14.8203C11.0469 15.6758 10.707 16.0508 9.92188 16.2852C8.5625 16.6953 7.76562 16.7305 7.08594 16.7305C6.17188 16.7305 5.72656 16.0273 5.72656 15.125Z" fill="white"/>
</g>
<defs>
<clipPath id="clip0_2201_1389">
<rect width="23.9062" height="23.918" fill="white" transform="translate(2 2)"/>
</clipPath>
</defs>
</svg>
