<svg width="28" height="28" viewBox="0 0 28 28" fill="none" xmlns="http://www.w3.org/2000/svg">
<g clipPath="url(#clip0_2201_1349)">
<path d="M7.96094 26.8867C8.41797 26.8867 8.75781 26.6523 9.30859 26.1367L13.5391 22.2695H21.4609C24.9531 22.2695 26.8281 20.3477 26.8281 16.9141V7.9375C26.8281 4.50391 24.9531 2.57031 21.4609 2.57031H6.36719C2.875 2.57031 1 4.49219 1 7.9375V16.9141C1 20.3594 2.875 22.2695 6.36719 22.2695H6.91797V25.6797C6.91797 26.4062 7.29297 26.8867 7.96094 26.8867Z" fill="black" fillOpacity="0.85"/>
<path d="M10.9844 15.2383C8.16018 12.4258 6.36721 8.83986 8.50002 6.70705C8.53518 6.66018 8.58205 6.6133 8.66408 6.56643C9.47268 5.96877 10.211 5.82814 10.7149 6.54299L12.2031 8.64064C12.707 9.35549 12.5898 9.78908 12.0391 10.3633L11.5703 10.8672C11.4062 11.0312 11.4648 11.2422 11.5469 11.3711C11.7812 11.7812 12.3672 12.5195 13.0352 13.1875C13.7266 13.8672 14.418 14.4297 14.8398 14.6875C15.0156 14.7812 15.25 14.8047 15.3906 14.6641L15.8594 14.1953C16.3984 13.6445 16.8672 13.5273 17.582 14.0312C18.5664 14.7227 19.1523 15.1328 19.7266 15.5312C20.4297 16.0703 20.2773 16.8906 19.7266 17.5C19.668 17.582 19.6094 17.6641 19.5273 17.7461C17.3945 19.8555 13.8086 18.0742 10.9844 15.2383Z" fill="white"/>
</g>
<defs>
<clipPath id="clip0_2201_1349">
<rect width="25.8281" height="25.8867" fill="white" transform="translate(1 1)"/>
</clipPath>
</defs>
</svg>
