<svg width="28" height="28" viewBox="0 0 28 28" fill="none" xmlns="http://www.w3.org/2000/svg">
<g clipPath="url(#clip0_2201_1380)">
<path d="M13.9531 25.9062C20.4922 25.9062 25.9062 20.4805 25.9062 13.9531C25.9062 7.41406 20.4805 2 13.9414 2C7.41406 2 2 7.41406 2 13.9531C2 20.4805 7.42578 25.9062 13.9531 25.9062ZM13.9531 23.9141C8.42188 23.9141 4.00391 19.4844 4.00391 13.9531C4.00391 8.42188 8.41016 3.99219 13.9414 3.99219C19.4727 3.99219 23.9141 8.42188 23.9141 13.9531C23.9141 19.4844 19.4844 23.9141 13.9531 23.9141Z" fill="black" fillOpacity="0.85"/>
<path d="M10.2735 17.6328C13.0156 20.3633 16.4961 22.1094 18.5469 20.0469C18.6289 19.9766 18.6875 19.8945 18.7578 19.8242C19.2852 19.2148 19.4258 18.4297 18.7461 17.9141C18.207 17.5273 17.6445 17.1172 16.6719 16.4492C15.9805 15.9688 15.5352 16.0859 15.0078 16.6016L14.5391 17.0703C14.4102 17.1992 14.1758 17.1758 14.0234 17.082C13.6133 16.8359 12.9219 16.2969 12.2656 15.6406C11.6211 14.9844 11.0469 14.2695 10.8125 13.8828C10.7422 13.7539 10.6836 13.543 10.836 13.3789L11.3047 12.8984C11.832 12.3359 11.9375 11.9141 11.4453 11.2344L10.0039 9.18359C9.52345 8.49219 8.79689 8.64453 8.01173 9.21875C7.95313 9.26562 7.90626 9.3125 7.85939 9.34766C5.79689 11.4219 7.54298 14.9023 10.2735 17.6328ZM14.4336 14.1523C14.5977 14.1523 14.7617 14.1055 14.8672 14L17.7266 11.1172L18.4766 10.2969L18.3945 11.8672V12.8516C18.3945 13.1797 18.6289 13.4375 18.957 13.4727C19.3086 13.4844 19.6016 13.2031 19.6016 12.8516V9.03125C19.6016 8.60938 19.3672 8.375 18.9453 8.375H15.1016C14.75 8.375 14.4805 8.65625 14.5039 9.00781C14.5156 9.33594 14.7617 9.58203 15.1016 9.58203H16.1328L17.6797 9.5L16.8594 10.25L14.0117 13.1094C13.8711 13.2383 13.8242 13.3906 13.8242 13.5781C13.8242 13.918 14.082 14.1523 14.4336 14.1523Z" fill="black" fillOpacity="0.85"/>
</g>
<defs>
<clipPath id="clip0_2201_1380">
<rect width="23.9062" height="23.918" fill="white" transform="translate(2 2)"/>
</clipPath>
</defs>
</svg>
