<svg width="28" height="28" viewBox="0 0 28 28" fill="none" xmlns="http://www.w3.org/2000/svg">
<g clipPath="url(#clip0_2201_1366)">
<path d="M20.0391 25.9805C22.0898 25.9805 23.4375 25.4297 24.6211 24.0938C24.7148 24 24.8086 23.8945 24.8906 23.8008C25.5938 23.0156 25.9219 22.2422 25.9219 21.5039C25.9219 20.6602 25.4297 19.875 24.3867 19.1484L20.9766 16.7812C19.9336 16.0547 18.6914 15.9727 17.707 16.9453L16.8047 17.8477C16.5352 18.1172 16.3008 18.1289 16.043 17.9648C15.4102 17.5664 14.1328 16.4531 13.2656 15.5859C12.3516 14.6836 11.4727 13.6758 11.0039 12.9375C10.8516 12.668 10.8633 12.4453 11.1328 12.1758L12.0234 11.2734C13.0078 10.289 12.9258 9.04687 12.1992 8.0039L9.83203 4.59374C9.10547 3.55077 8.32031 3.0703 7.47656 3.05858C6.73828 3.04686 5.96484 3.38671 5.17969 4.08983C5.07422 4.18358 4.98047 4.26561 4.88672 4.34765C3.55078 5.54296 3 6.89061 3 8.91796C3 12.2695 5.0625 16.3477 8.84766 20.1328C12.6094 23.8945 16.6992 25.9805 20.0391 25.9805ZM20.0508 24.1758C17.0625 24.2344 13.2305 21.9375 10.1953 18.9141C7.13672 15.8672 4.73438 11.9062 4.79297 8.91796C4.81641 7.6289 5.27344 6.51561 6.1875 5.71874C6.26953 5.64843 6.32812 5.58983 6.41016 5.53124C6.76172 5.22655 7.13672 5.06249 7.47656 5.06249C7.81641 5.06249 8.12109 5.1914 8.34375 5.54296L10.6172 8.95311C10.8633 9.3164 10.8867 9.72655 10.5234 10.0898L9.49219 11.1211C8.68359 11.9297 8.74219 12.914 9.32812 13.6992C9.99609 14.6016 11.1562 15.9141 12.0586 16.8047C12.9492 17.707 14.3672 18.9727 15.2812 19.6523C16.0664 20.2383 17.0508 20.2969 17.8594 19.4883L18.8906 18.457C19.2539 18.0938 19.6523 18.1172 20.0273 18.3516L23.4375 20.625C23.7773 20.8594 23.918 21.1523 23.918 21.5039C23.918 21.8438 23.7539 22.2188 23.4492 22.5703C23.3789 22.6523 23.332 22.7109 23.2617 22.793C22.4648 23.707 21.3516 24.1523 20.0508 24.1758Z" fill="black" fillOpacity="0.85"/>
</g>
<defs>
<clipPath id="clip0_2201_1366">
<rect width="22.9219" height="22.9805" fill="white" transform="translate(3 3)"/>
</clipPath>
</defs>
</svg>
