<svg width="28" height="28" viewBox="0 0 28 28" fill="none" xmlns="http://www.w3.org/2000/svg">
<g clipPath="url(#clip0_2201_1384)">
<path d="M3.00008 14.2188C2.98836 18.6367 4.24227 22.9961 6.77352 25.5156C8.09774 26.8398 9.33993 27.4375 11.3438 27.4375C13.7462 27.4375 15.047 26.1602 14.6602 23.7578L13.9337 19.668C13.6993 18.4023 12.879 17.4766 11.4845 17.4648H10.3126C9.70321 17.4648 9.43368 17.1367 9.37508 16.2578C9.35164 15.9062 9.32821 15.0859 9.32821 14.2188C9.32821 13.3516 9.35164 12.5312 9.37508 12.1797C9.43368 11.3008 9.70321 10.9727 10.3126 10.9727H11.4845C12.879 10.9727 13.6993 10.0352 13.9337 8.76953L14.6602 4.69141C15.047 2.30078 13.7813 1 11.3438 1C9.33993 1 8.09774 1.59766 6.77352 2.92188C4.24227 5.45312 2.98836 9.80078 3.00008 14.2188ZM4.81649 14.2188C4.81649 10.2344 5.87118 6.29688 8.03914 4.1875C8.89461 3.36719 9.86727 2.88672 11.086 2.88672C12.4102 2.88672 13.172 3.33203 12.8907 4.5625L12.1407 8.33594C12.0587 8.76953 11.7774 9.0625 11.2735 9.0625H9.92586C8.6368 9.0625 8.03914 9.85938 7.81649 10.9844C7.66414 11.7578 7.60555 12.9648 7.60555 14.2188C7.60555 15.4727 7.66414 16.6797 7.81649 17.4648C8.03914 18.5781 8.6368 19.375 9.92586 19.375H11.2735C11.7774 19.375 12.0587 19.668 12.1407 20.1016L12.8907 23.875C13.1602 25.082 12.4337 25.5508 11.086 25.5508C9.86727 25.5508 8.89461 25.0703 8.03914 24.25C5.87118 22.1406 4.81649 18.2031 4.81649 14.2188Z" fill="black" fillOpacity="0.85"/>
<path d="M14.0274 15.0508H20.3321L22.7931 14.9336L20.2384 17.2305L19.0079 18.4609C18.8438 18.625 18.7501 18.8477 18.7501 19.0938C18.7501 19.5742 19.1016 19.9023 19.5587 19.9023C19.7931 19.9023 20.0157 19.8086 20.1798 19.6445L24.9845 14.8398C25.1954 14.6406 25.3009 14.418 25.3009 14.2188C25.3009 14.0195 25.1954 13.7852 24.9845 13.5859L20.1798 8.79297C20.0157 8.62891 19.7931 8.53516 19.5587 8.53516C19.1016 8.53516 18.7501 8.86328 18.7501 9.33203C18.7501 9.58984 18.8438 9.80078 19.0079 9.96484L20.2384 11.207L22.7931 13.4922L20.3321 13.375H14.0274C13.5001 13.375 13.1837 13.7852 13.1837 14.2188C13.1837 14.6523 13.5001 15.0508 14.0274 15.0508Z" fill="black" fillOpacity="0.85"/>
</g>
<defs>
<clipPath id="clip0_2201_1384">
<rect width="22.3009" height="26.4492" fill="white" transform="translate(3 1)"/>
</clipPath>
</defs>
</svg>
