<svg width="28" height="28" viewBox="0 0 28 28" fill="none" xmlns="http://www.w3.org/2000/svg">
<g clipPath="url(#clip0_2201_1379)">
<path d="M8.95312 19.6055C12.3398 22.9922 16.4531 25.6055 19.8164 25.6055C21.3281 25.6055 22.6523 25.0781 23.7188 23.9062C24.3398 23.2148 24.7266 22.4062 24.7266 21.6094C24.7266 21.0234 24.5039 20.4609 23.9531 20.0625L20.3555 17.5078C19.8047 17.1328 19.3477 16.9453 18.9258 16.9453C18.3984 16.9453 17.918 17.25 17.3789 17.7773L16.5469 18.5977C16.418 18.7266 16.2539 18.7852 16.1016 18.7852C15.9258 18.7852 15.75 18.7148 15.6328 18.6562C14.9062 18.2695 13.6641 17.2031 12.5039 16.0547C11.3555 14.9062 10.2891 13.6641 9.91406 12.9375C9.85547 12.8086 9.78516 12.6445 9.78516 12.4688C9.78516 12.3164 9.83203 12.1641 9.96094 12.0352L10.793 11.1797C11.3086 10.6406 11.625 10.1719 11.625 9.63281C11.625 9.21094 11.4258 8.75391 11.0391 8.20312L8.51953 4.65234C8.10938 4.08984 7.53516 3.84375 6.90234 3.84375C6.12891 3.84375 5.33203 4.19531 4.64062 4.86328C3.50391 5.95312 3 7.30078 3 8.78906C3 12.1523 5.56641 16.2305 8.95312 19.6055Z" fill="black" fillOpacity="0.85"/>
<path d="M16.3594 13.1953C16.5938 13.1953 16.793 13.125 16.9688 12.9492L22.0195 7.88672L23.8125 5.94141L23.625 9.375V11.1211C23.625 11.5781 23.9648 11.9297 24.4219 11.9531C24.8906 11.9766 25.3008 11.6016 25.3008 11.1211V4.33594C25.3008 3.71484 24.9961 3.39844 24.375 3.39844H17.5664C17.0859 3.39844 16.6992 3.79687 16.7227 4.27734C16.7461 4.73438 17.1094 5.07422 17.5664 5.07422H19.3359L22.7812 4.88672L20.8125 6.67969L15.7734 11.7422C15.5742 11.9297 15.4805 12.1406 15.4805 12.3867C15.4805 12.8437 15.8672 13.1953 16.3594 13.1953Z" fill="black" fillOpacity="0.85"/>
</g>
<defs>
<clipPath id="clip0_2201_1379">
<rect width="22.3008" height="22.6055" fill="white" transform="translate(3 3)"/>
</clipPath>
</defs>
</svg>
