<svg width="29" height="28" viewBox="0 0 29 28" fill="none" xmlns="http://www.w3.org/2000/svg">
<g clipPath="url(#clip0_2201_1386)">
<path d="M0 17.3164C0 18.6992 0.832031 19.8477 2.29688 19.8477C2.57812 19.8477 3.01172 19.8242 3.62109 19.7188L7.76953 19.0977C9.48047 18.8516 9.94922 18.1484 9.94922 16.6836C9.94922 16.2383 9.94922 15.8164 9.96094 15.3711C9.96094 15.0078 10.125 14.8555 10.3945 14.7852C12.1172 14.3984 16.2422 14.3984 17.9648 14.7852C18.2344 14.8555 18.3984 15.0078 18.3984 15.3711C18.4102 15.8164 18.4102 16.2383 18.4102 16.6836C18.4102 18.1484 18.8789 18.8516 20.5898 19.0977L24.7383 19.7188C25.3477 19.8242 25.7812 19.8477 26.0625 19.8477C27.5273 19.8477 28.3594 18.6992 28.3594 17.3164C28.3594 16.9883 28.3594 16.6719 28.3594 16.3555C28.3594 10.9062 22.2656 8.19922 14.1797 8.19922C6.10547 8.19922 0 10.9062 0 16.3555C0 16.6719 0 16.9883 0 17.3164ZM1.89844 17.0352C1.89844 16.8359 1.89844 16.6484 1.89844 16.4492C1.89844 11.7383 7.95703 9.96875 14.1797 9.96875C20.4023 9.96875 26.4609 11.7383 26.4609 16.4492C26.4609 16.6484 26.4609 16.8359 26.4609 17.0352C26.4609 17.6094 26.1914 18.1133 25.5938 18.1133C25.4297 18.1133 25.2539 18.0898 24.9258 18.0312L20.9883 17.293C20.6016 17.2109 20.3086 17.0117 20.3086 16.4375C20.3086 15.957 20.3086 15.4531 20.3086 14.9727C20.3086 13.8125 19.8867 13.3437 19.2773 13.168C17.3906 12.6289 10.9688 12.6289 9.08203 13.168C8.47266 13.3437 8.05078 13.8125 8.05078 14.9727C8.05078 15.4531 8.05078 15.957 8.05078 16.4375C8.05078 17.0117 7.75781 17.2109 7.37109 17.293L3.43359 18.0312C3.10547 18.0898 2.94141 18.1133 2.76562 18.1133C2.16797 18.1133 1.89844 17.6094 1.89844 17.0352Z" fill="black" fillOpacity="0.85"/>
</g>
<defs>
<clipPath id="clip0_2201_1386">
<rect width="28.3594" height="11.8477" fill="white" transform="translate(0 8)"/>
</clipPath>
</defs>
</svg>
