<svg width="28" height="28" viewBox="0 0 28 28" fill="none" xmlns="http://www.w3.org/2000/svg">
<g clipPath="url(#clip0_2201_1387)">
<path d="M13.7756 9C8.70141 9 3.93188 10.0664 1.55297 12.4453C0.474848 13.5234 -0.0642142 14.8242 0.00609831 16.3945C0.0529733 17.3438 0.345942 18.1875 0.896723 18.7383C1.30688 19.1602 1.8811 19.3945 2.54907 19.2891L6.89672 18.5508C7.55297 18.4453 8.01 18.2461 8.30297 17.9414C8.68969 17.5664 8.80688 17.0039 8.80688 16.2656V15.082C8.80688 14.8945 8.88891 14.7539 9.0061 14.6367C9.12329 14.4961 9.29907 14.4375 9.42797 14.4023C10.2248 14.2148 11.842 14.0391 13.7756 14.0391C15.7092 14.0391 17.3147 14.1797 18.1233 14.4141C18.2405 14.4492 18.4045 14.5195 18.5334 14.6367C18.6389 14.7539 18.7092 14.8828 18.7209 15.0703L18.7327 16.2656C18.7444 17.0039 18.8616 17.5664 19.2366 17.9414C19.5413 18.2461 19.9983 18.4453 20.6545 18.5508L24.9436 19.2773C25.635 19.3945 26.2209 19.1484 26.678 18.7031C27.2288 18.1641 27.5334 17.3438 27.5569 16.3828C27.592 14.8008 26.9827 13.5 25.928 12.4453C23.5491 10.0664 18.8498 9 13.7756 9Z" fill="black" fillOpacity="0.85"/>
</g>
<defs>
<clipPath id="clip0_2201_1387">
<rect width="27.5583" height="10.3477" fill="white" transform="translate(0 9)"/>
</clipPath>
</defs>
</svg>
