<svg width="28" height="28" viewBox="0 0 28 28" fill="none" xmlns="http://www.w3.org/2000/svg">
<g clipPath="url(#clip0_2201_1375)">
<path d="M7.94141 19.085C11.3281 22.4717 15.4531 25.085 18.8164 25.085C20.3281 25.085 21.6523 24.5576 22.7188 23.3857C23.3398 22.6943 23.7266 21.8857 23.7266 21.0889C23.7266 20.5029 23.5039 19.9404 22.9414 19.542L19.3555 16.9873C18.8047 16.6123 18.3477 16.4248 17.9258 16.4248C17.3867 16.4248 16.918 16.7295 16.3789 17.2568L15.5469 18.0771C15.418 18.2061 15.2539 18.2646 15.1016 18.2646C14.9141 18.2646 14.75 18.1943 14.6211 18.1357C13.9062 17.749 12.6641 16.6826 11.5039 15.5342C10.3555 14.3857 9.28906 13.1436 8.91406 12.417C8.84375 12.2881 8.78516 12.124 8.78516 11.9482C8.78516 11.7959 8.83203 11.6436 8.96094 11.5146L9.78125 10.6592C10.3086 10.1201 10.6133 9.65137 10.6133 9.1123C10.6133 8.69043 10.4258 8.2334 10.0391 7.68262L7.51953 4.13184C7.10938 3.56934 6.53516 3.32324 5.90234 3.32324C5.12891 3.32324 4.32031 3.6748 3.64062 4.34277C2.50391 5.43262 2 6.78027 2 8.26855C2 11.6318 4.56641 15.71 7.94141 19.085Z" fill="black" fillOpacity="0.85"/>
<path d="M14 13.1318C14.6328 13.7646 15.6406 13.7646 16.2734 13.1318C16.9062 12.499 16.9062 11.4912 16.2734 10.8818C15.6406 10.2373 14.6328 10.2373 14 10.8584C13.3789 11.4912 13.3789 12.499 14 13.1318ZM15.1602 6.63965C14.7852 7.00293 14.7852 7.6123 15.1602 7.97559L19.1562 11.9834C19.5195 12.3467 20.1289 12.3467 20.4922 11.9834C20.8555 11.6201 20.8555 11.0107 20.4922 10.6475L16.4844 6.63965C16.1211 6.27637 15.5234 6.27637 15.1602 6.63965ZM19.3789 7.77637C20.0117 8.37402 21.0195 8.38574 21.6406 7.75293C22.2617 7.13184 22.2617 6.12402 21.6406 5.50293C21.0195 4.87012 20 4.87012 19.3789 5.49121C18.7461 6.12402 18.7461 7.12012 19.3789 7.77637ZM20.5391 1.27246C20.1758 1.63574 20.1758 2.2334 20.5391 2.6084L24.5352 6.60449C24.8984 6.97949 25.5078 6.97949 25.8711 6.60449C26.2344 6.24121 26.2344 5.64355 25.8711 5.28027L21.875 1.27246C21.5 0.90918 20.8906 0.90918 20.5391 1.27246Z" fill="black" fillOpacity="0.85"/>
</g>
<defs>
<clipPath id="clip0_2201_1375">
<rect width="24.1436" height="25.5645" fill="white" transform="translate(2 1)"/>
</clipPath>
</defs>
</svg>
