<svg width="28" height="28" viewBox="0 0 28 28" fill="none" xmlns="http://www.w3.org/2000/svg">
<g clipPath="url(#clip0_2201_1385)">
<path d="M3 13.8099C3 18.2162 4.03125 22.5521 6.35156 24.8842C7.45312 25.9974 8.83594 26.6537 10.582 26.6185C12.2578 26.5834 13.5469 25.517 13.2539 23.8763L12.5391 19.7162C12.3047 18.3217 11.7188 17.806 10.2422 17.806H9.46875C8.20312 17.806 8.02734 16.6224 8.02734 13.8099C8.02734 10.9974 8.20312 9.81384 9.46875 9.81384H10.2422C11.6953 9.81384 12.293 9.30994 12.5391 7.90369L13.2539 3.74353C13.5469 2.09119 12.2578 1.0365 10.582 1.00134C8.83594 0.966188 7.45312 1.62244 6.35156 2.724C4.03125 5.05603 3 9.39197 3 13.8099Z" fill="black" fillOpacity="0.85"/>
<path d="M13.1133 14.642H19.418L21.8789 14.5248L19.3242 16.8217L18.0938 18.0521C17.9297 18.2162 17.8477 18.4388 17.8477 18.6849C17.8477 19.1654 18.1875 19.4935 18.6445 19.4935C18.8789 19.4935 19.1016 19.3998 19.2656 19.2357L24.082 14.431C24.2812 14.2318 24.3867 14.0092 24.3867 13.8099C24.3867 13.6107 24.2812 13.3763 24.082 13.1771L19.2656 8.38416C19.1016 8.22009 18.8789 8.12634 18.6445 8.12634C18.1875 8.12634 17.8477 8.45447 17.8477 8.92322C17.8477 9.18103 17.9297 9.39197 18.0938 9.55603L19.3242 10.7982L21.8789 13.0834L19.418 12.9662H13.1133C12.5859 12.9662 12.2695 13.3763 12.2695 13.8099C12.2695 14.2435 12.5859 14.642 13.1133 14.642Z" fill="black" fillOpacity="0.85"/>
</g>
<defs>
<clipPath id="clip0_2201_1385">
<rect width="21.3867" height="25.6316" fill="white" transform="translate(3 1)"/>
</clipPath>
</defs>
</svg>
