<svg width="28" height="28" viewBox="0 0 28 28" fill="none" xmlns="http://www.w3.org/2000/svg">
<g clipPath="url(#clip0_2201_1338)">
<path d="M8.20703 26.7461C8.78125 26.7461 9.17969 26.4414 9.89453 25.8086L13.9375 22.2109H21.4609C24.9531 22.2109 26.8281 20.2773 26.8281 16.8438V7.86719C26.8281 4.43359 24.9531 2.5 21.4609 2.5H6.36719C2.875 2.5 1 4.42188 1 7.86719V16.8438C1 20.2891 2.875 22.2109 6.36719 22.2109H6.92969V25.2578C6.92969 26.1602 7.38672 26.7461 8.20703 26.7461ZM8.6875 24.6016V21.2031C8.6875 20.5703 8.44141 20.3242 7.80859 20.3242H6.36719C4 20.3242 2.88672 19.1172 2.88672 16.832V7.86719C2.88672 5.58203 4 4.38672 6.36719 4.38672H21.4609C23.8164 4.38672 24.9414 5.58203 24.9414 7.86719V16.832C24.9414 19.1172 23.8164 20.3242 21.4609 20.3242H13.8672C13.2109 20.3242 12.8828 20.418 12.4375 20.875L8.6875 24.6016Z" fill="black" fillOpacity="0.85"/>
<path d="M8.48828 12.3555C8.48828 12.9297 8.89844 13.3164 9.49609 13.3164H12.9414V16.7734C12.9414 17.3594 13.3398 17.7695 13.9023 17.7695C14.5 17.7695 14.8984 17.3711 14.8984 16.7734V13.3164H18.3555C18.9414 13.3164 19.3516 12.9297 19.3516 12.3555C19.3516 11.7695 18.9531 11.3594 18.3555 11.3594H14.8984V7.91406C14.8984 7.31641 14.5 6.90625 13.9023 6.90625C13.3398 6.90625 12.9414 7.31641 12.9414 7.91406V11.3594H9.49609C8.89844 11.3594 8.48828 11.7695 8.48828 12.3555Z" fill="black" fillOpacity="0.85"/>
</g>
<defs>
<clipPath id="clip0_2201_1338">
<rect width="25.8281" height="25.7461" fill="white" transform="translate(1 1)"/>
</clipPath>
</defs>
</svg>
