<svg width="28" height="28" viewBox="0 0 28 28" fill="none" xmlns="http://www.w3.org/2000/svg">
<g clipPath="url(#clip0_2201_1303)">
<path d="M5.64062 26.4336C7.04688 26.4336 10.5508 24.8984 12.543 23.4688C12.7422 23.3281 12.9062 23.2695 13.0703 23.2695C13.2227 23.2812 13.375 23.293 13.5273 23.293C21.9766 23.293 27.5781 18.4883 27.5781 12.6523C27.5781 6.75781 21.6719 2 14.2891 2C6.90625 2 1 6.75781 1 12.6523C1 16.4023 3.30859 19.6953 7.07031 21.7109C7.24609 21.8047 7.30469 21.9805 7.21094 22.1562C6.55469 23.2344 5.38281 24.5234 4.9375 25.1094C4.48047 25.6953 4.73828 26.4336 5.64062 26.4336Z" fill="black" fillOpacity="0.85"/>
<path d="M8.57031 12.7812C8.57031 12.1602 8.99219 11.7383 9.60156 11.7383H13.2695V8.08203C13.2695 7.47266 13.6797 7.03906 14.2773 7.03906C14.8867 7.03906 15.3086 7.46094 15.3086 8.08203V11.7383H18.9883C19.5859 11.7383 20.0195 12.1602 20.0195 12.7812C20.0195 13.3672 19.5859 13.7773 18.9883 13.7773H15.3086V17.457C15.3086 18.0547 14.8867 18.4883 14.2773 18.4883C13.6797 18.4883 13.2695 18.0547 13.2695 17.457V13.7773H9.60156C8.99219 13.7773 8.57031 13.3672 8.57031 12.7812Z" fill="white"/>
</g>
<defs>
<clipPath id="clip0_2201_1303">
<rect width="26.5781" height="24.4336" fill="white" transform="translate(1 2)"/>
</clipPath>
</defs>
</svg>
