<svg width="28" height="28" viewBox="0 0 28 28" fill="none" xmlns="http://www.w3.org/2000/svg">
<g clipPath="url(#clip0_2201_1337)">
<path d="M7.96094 26.8867C8.41797 26.8867 8.75781 26.6523 9.30859 26.1367L13.5391 22.2695H21.4609C24.9531 22.2695 26.8281 20.3477 26.8281 16.9141V7.9375C26.8281 4.50391 24.9531 2.57031 21.4609 2.57031H6.36719C2.875 2.57031 1 4.49219 1 7.9375V16.9141C1 20.3594 2.875 22.2695 6.36719 22.2695H6.91797V25.6797C6.91797 26.4062 7.29297 26.8867 7.96094 26.8867Z" fill="black" fillOpacity="0.85"/>
<path d="M13.6797 14.9219C13.0469 14.9219 12.707 14.5938 12.707 13.9609C12.707 13.9141 12.707 13.8555 12.707 13.8086C12.707 12.6133 13.3633 11.9805 14.2188 11.3711C15.2852 10.6328 15.7891 10.2344 15.7891 9.41406C15.7891 8.5 15.0742 7.87891 13.9727 7.87891C13.1758 7.87891 12.543 8.27734 12.1094 8.98047L11.8984 9.27344C11.6758 9.55469 11.418 9.75391 11.0078 9.75391C10.5977 9.75391 10.1641 9.46094 10.1641 8.92188C10.1641 8.71094 10.2109 8.51172 10.2695 8.32422C10.6094 7.21094 11.9688 6.23828 14.0547 6.23828C16.1172 6.23828 17.9102 7.30469 17.9102 9.32031C17.9102 10.7734 17.0664 11.4766 15.8945 12.25C15.0508 12.8008 14.6523 13.2344 14.6523 13.9141C14.6523 13.9492 14.6523 14.0078 14.6523 14.0547C14.6523 14.5352 14.2891 14.9219 13.6797 14.9219ZM13.6445 18.5195C12.9531 18.5195 12.3438 17.9688 12.3438 17.2656C12.3438 16.5742 12.9414 16.0117 13.6445 16.0117C14.3594 16.0117 14.957 16.5625 14.957 17.2656C14.957 17.9805 14.3477 18.5195 13.6445 18.5195Z" fill="white"/>
</g>
<defs>
<clipPath id="clip0_2201_1337">
<rect width="25.8281" height="25.8867" fill="white" transform="translate(1 1)"/>
</clipPath>
</defs>
</svg>
