<svg width="29" height="28" viewBox="0 0 29 28" fill="none" xmlns="http://www.w3.org/2000/svg">
<g clipPath="url(#clip0_2201_1420)">
<path d="M3.76172 23.0312H16.3477C18.7031 23.0312 20.1094 21.6719 20.1094 19.3164V7.70312C20.1094 5.35938 18.8203 4 16.4648 4H3.76172C1.51172 4 0 5.35938 0 7.70312V19.3164C0 21.6719 1.40625 23.0312 3.76172 23.0312ZM21.7031 16.9727L25.9688 20.6641C26.3672 21.0156 26.8359 21.2383 27.2578 21.2383C28.1719 21.2383 28.7695 20.5703 28.7695 19.6094V7.42188C28.7695 6.46094 28.1719 5.79297 27.2578 5.79297C26.8359 5.79297 26.3672 6.01562 25.9688 6.36719L21.7031 10.0469V16.9727Z" fill="black" fillOpacity="0.85"/>
<path d="M9.73828 15.8359C9.16406 15.8359 8.85938 15.543 8.85938 14.957C8.85938 14.9219 8.85938 14.8633 8.85938 14.8164C8.85938 13.75 9.44531 13.1758 10.2305 12.6133C11.1797 11.957 11.6484 11.5937 11.6484 10.8437C11.6484 10.0117 11.0039 9.46094 10.0078 9.46094C9.28125 9.46094 8.75391 9.8125 8.39062 10.3984C8.03906 10.8203 7.93359 11.1602 7.3125 11.1602C6.94922 11.1602 6.55078 10.8906 6.55078 10.3984C6.55078 10.2109 6.58594 10.0234 6.64453 9.84766C6.97266 8.83984 8.17969 7.96094 10.0664 7.96094C11.9414 7.96094 13.5703 8.93359 13.5703 10.7617C13.5703 12.0742 12.8086 12.7187 11.7539 13.4219C10.9805 13.9258 10.6289 14.3008 10.6289 14.9219C10.6289 14.9688 10.6289 15.0156 10.6289 15.0508C10.6289 15.4961 10.2891 15.8359 9.73828 15.8359ZM9.70312 19.1055C9.07031 19.1055 8.53125 18.5898 8.53125 17.9688C8.53125 17.3359 9.05859 16.8203 9.70312 16.8203C10.3477 16.8203 10.8867 17.3359 10.8867 17.9688C10.8867 18.6016 10.3359 19.1055 9.70312 19.1055Z" fill="white"/>
</g>
<defs>
<clipPath id="clip0_2201_1420">
<rect width="28.7695" height="19.043" fill="white" transform="translate(0 4)"/>
</clipPath>
</defs>
</svg>
