<svg width="28" height="28" viewBox="0 0 28 28" fill="none" xmlns="http://www.w3.org/2000/svg">
<g clipPath="url(#clip0_2201_1336)">
<path d="M8.20703 26.7461C8.78125 26.7461 9.17969 26.4414 9.89453 25.8086L13.9375 22.2109H21.4609C24.9531 22.2109 26.8281 20.2773 26.8281 16.8438V7.86719C26.8281 4.43359 24.9531 2.5 21.4609 2.5H6.36719C2.875 2.5 1 4.42188 1 7.86719V16.8438C1 20.2891 2.875 22.2109 6.36719 22.2109H6.92969V25.2578C6.92969 26.1602 7.38672 26.7461 8.20703 26.7461ZM8.6875 24.6016V21.2031C8.6875 20.5703 8.44141 20.3242 7.80859 20.3242H6.36719C4 20.3242 2.88672 19.1172 2.88672 16.832V7.86719C2.88672 5.58203 4 4.38672 6.36719 4.38672H21.4609C23.8164 4.38672 24.9414 5.58203 24.9414 7.86719V16.832C24.9414 19.1172 23.8164 20.3242 21.4609 20.3242H13.8672C13.2109 20.3242 12.8828 20.418 12.4375 20.875L8.6875 24.6016Z" fill="black" fillOpacity="0.85"/>
<path d="M13.6914 14.7812C14.2773 14.7812 14.6289 14.4062 14.6289 13.9492C14.6289 13.9023 14.6289 13.8438 14.6289 13.8086C14.6289 13.1523 15.0156 12.7305 15.8359 12.1914C16.9727 11.4414 17.7812 10.7617 17.7812 9.35547C17.7812 7.41016 16.0469 6.36719 14.0547 6.36719C12.0391 6.36719 10.7148 7.31641 10.3867 8.39453C10.3281 8.58203 10.293 8.76953 10.293 8.96875C10.293 9.49609 10.7031 9.77734 11.1016 9.77734C11.5 9.77734 11.7461 9.58984 11.957 9.30859L12.168 9.02734C12.5781 8.34766 13.1992 7.94922 13.9727 7.94922C15.0508 7.94922 15.7422 8.55859 15.7422 9.44922C15.7422 10.2461 15.25 10.6328 14.2188 11.3477C13.3867 11.9336 12.7539 12.5547 12.7539 13.7031C12.7539 13.75 12.7539 13.8086 12.7539 13.8555C12.7539 14.4648 13.082 14.7812 13.6914 14.7812ZM13.6562 18.2734C14.3359 18.2734 14.9219 17.7461 14.9219 17.0547C14.9219 16.375 14.3477 15.8477 13.6562 15.8477C12.9766 15.8477 12.4023 16.3867 12.4023 17.0547C12.4023 17.7344 12.9883 18.2734 13.6562 18.2734Z" fill="black" fillOpacity="0.85"/>
</g>
<defs>
<clipPath id="clip0_2201_1336">
<rect width="25.8281" height="25.7461" fill="white" transform="translate(1 1)"/>
</clipPath>
</defs>
</svg>
