<svg width="28" height="28" viewBox="0 0 28 28" fill="none" xmlns="http://www.w3.org/2000/svg">
<g clipPath="url(#clip0_2201_1322)">
<path d="M12.7188 16.6172C12.7188 13.5 10.4102 11.0156 7.43359 11.0156C6.03906 11.0156 4.71484 11.5664 3.74219 12.6445H3.42578C4.10547 10.4297 6.16797 8.57812 8.73438 7.81641C9.09766 7.69922 9.36719 7.59375 9.53125 7.45312C9.71875 7.30078 9.82422 7.11328 9.82422 6.84375C9.82422 6.35156 9.44922 6.01172 8.89844 6.01172C8.53516 6.01172 8.25391 6.08203 7.75 6.24609C6.13281 6.77344 4.67969 7.69922 3.55469 8.88281C1.97266 10.5234 1 12.7148 1 15.3164C1 19.7109 3.78906 22.2539 7.05859 22.2539C10.2812 22.2539 12.7188 19.793 12.7188 16.6172ZM26.793 16.6172C26.793 13.5 24.4727 11.0156 21.5078 11.0156C20.1133 11.0156 18.7773 11.5664 17.8164 12.6445H17.5C18.1797 10.4297 20.2422 8.57812 22.7969 7.81641C23.1602 7.69922 23.4414 7.59375 23.6055 7.45312C23.793 7.30078 23.8867 7.11328 23.8867 6.84375C23.8867 6.35156 23.5234 6.01172 22.9727 6.01172C22.5977 6.01172 22.3281 6.08203 21.8125 6.24609C20.207 6.77344 18.7422 7.69922 17.6172 8.88281C16.0469 10.5234 15.0742 12.7148 15.0742 15.3164C15.0742 19.7109 17.8633 22.2539 21.1328 22.2539C24.3555 22.2539 26.793 19.793 26.793 16.6172Z" fill="black" fillOpacity="0.85"/>
</g>
<defs>
<clipPath id="clip0_2201_1322">
<rect width="25.793" height="16.2539" fill="white" transform="translate(1 6)"/>
</clipPath>
</defs>
</svg>
