<svg width="28" height="28" viewBox="0 0 28 28" fill="none" xmlns="http://www.w3.org/2000/svg">
<g clipPath="url(#clip0_2201_1325)">
<path d="M7.96094 26.8867C8.41797 26.8867 8.75781 26.6523 9.30859 26.1367L13.5391 22.2695H21.4609C24.9531 22.2695 26.8281 20.3477 26.8281 16.9141V7.9375C26.8281 4.50391 24.9531 2.57031 21.4609 2.57031H6.36719C2.875 2.57031 1 4.49219 1 7.9375V16.9141C1 20.3594 2.875 22.2695 6.36719 22.2695H6.91797V25.6797C6.91797 26.4062 7.29297 26.8867 7.96094 26.8867Z" fill="black" fillOpacity="0.85"/>
<path d="M8.07812 11.1484C8.07812 9.70703 9.16797 8.69922 10.6211 8.69922C12.1914 8.69922 13.2461 9.95312 13.2461 11.5938C13.2461 14.6641 10.7969 16.1172 9.57812 16.1172C9.23829 16.1172 8.98047 15.8594 8.98047 15.5547C8.98047 15.2617 9.10938 15.0742 9.56641 14.957C10.3516 14.7461 11.2773 14.1016 11.7227 13.1055H11.6289C11.3125 13.5039 10.8086 13.5859 10.3047 13.5859C8.9336 13.5859 8.07812 12.5195 8.07812 11.1484ZM14.6055 11.1484C14.6055 9.70703 15.6836 8.69922 17.1367 8.69922C18.707 8.69922 19.7734 9.95312 19.7734 11.5938C19.7734 14.6641 17.3242 16.1172 16.1055 16.1172C15.7656 16.1172 15.5078 15.8594 15.5078 15.5547C15.5078 15.2617 15.6484 15.0742 16.082 14.957C16.8789 14.7461 17.8047 14.1016 18.25 13.1055H18.1562C17.8398 13.5039 17.3359 13.5859 16.8203 13.5859C15.4609 13.5859 14.6055 12.5195 14.6055 11.1484Z" fill="white"/>
</g>
<defs>
<clipPath id="clip0_2201_1325">
<rect width="25.8281" height="25.8867" fill="white" transform="translate(1 1)"/>
</clipPath>
</defs>
</svg>
