<svg width="28" height="28" viewBox="0 0 28 28" fill="none" xmlns="http://www.w3.org/2000/svg">
<g clipPath="url(#clip0_2201_1323)">
<path d="M1 11.6484C1 14.7656 3.32031 17.25 6.28516 17.25C7.67969 17.25 9.00391 16.6992 9.97656 15.6211H10.293C9.61328 17.8359 7.55078 19.6875 4.99609 20.4492C4.62109 20.5664 4.35156 20.6719 4.1875 20.8125C4 20.9648 3.90625 21.1523 3.90625 21.4219C3.90625 21.9141 4.26953 22.2539 4.80859 22.2539C5.19531 22.2539 5.46484 22.1836 5.98047 22.0195C7.58594 21.4922 9.05078 20.5664 10.1758 19.3828C11.7461 17.7422 12.7188 15.5508 12.7188 12.9492C12.7188 8.55469 9.92969 6.01172 6.66016 6.01172C3.4375 6.01172 1 8.47266 1 11.6484ZM15.0742 11.6484C15.0742 14.7656 17.3828 17.25 20.3594 17.25C21.7539 17.25 23.0664 16.6992 24.0508 15.6211H24.3555C23.6875 17.8359 21.625 19.6875 19.0586 20.4492C18.6836 20.5664 18.4258 20.6719 18.2617 20.8125C18.0742 20.9648 17.9688 21.1523 17.9688 21.4219C17.9688 21.9141 18.3438 22.2539 18.8945 22.2539C19.2578 22.2539 19.5391 22.1836 20.043 22.0195C21.6602 21.4922 23.1133 20.5664 24.2266 19.3828C25.8203 17.7422 26.793 15.5508 26.793 12.9492C26.793 8.55469 24.0039 6.01172 20.7344 6.01172C17.5117 6.01172 15.0742 8.47266 15.0742 11.6484Z" fill="black" fillOpacity="0.85"/>
</g>
<defs>
<clipPath id="clip0_2201_1323">
<rect width="25.793" height="16.2539" fill="white" transform="translate(1 6)"/>
</clipPath>
</defs>
</svg>
