<svg width="28" height="28" viewBox="0 0 28 28" fill="none" xmlns="http://www.w3.org/2000/svg">
<g clipPath="url(#clip0_2201_1324)">
<path d="M8.20703 26.7461C8.78125 26.7461 9.17969 26.4414 9.89453 25.8086L13.9375 22.2109H21.4609C24.9531 22.2109 26.8281 20.2773 26.8281 16.8438V7.86719C26.8281 4.43359 24.9531 2.5 21.4609 2.5H6.36719C2.875 2.5 1 4.42188 1 7.86719V16.8438C1 20.2891 2.875 22.2109 6.36719 22.2109H6.92969V25.2578C6.92969 26.1602 7.38672 26.7461 8.20703 26.7461ZM8.6875 24.6016V21.2031C8.6875 20.5703 8.44141 20.3242 7.80859 20.3242H6.36719C4 20.3242 2.88672 19.1172 2.88672 16.832V7.86719C2.88672 5.58203 4 4.38672 6.36719 4.38672H21.4609C23.8164 4.38672 24.9414 5.58203 24.9414 7.86719V16.832C24.9414 19.1172 23.8164 20.3242 21.4609 20.3242H13.8672C13.2109 20.3242 12.8828 20.418 12.4375 20.875L8.6875 24.6016Z" fill="black" fillOpacity="0.85"/>
<path d="M8.25391 11.1016C8.25391 12.4375 9.08594 13.4688 10.4102 13.4688C10.9023 13.4688 11.3945 13.3867 11.6992 13H11.793C11.3594 13.9727 10.457 14.5938 9.69531 14.793C9.26172 14.9102 9.13281 15.0977 9.13281 15.3789C9.13281 15.6719 9.37891 15.918 9.70703 15.918C10.8906 15.918 13.2695 14.5117 13.2695 11.5352C13.2695 9.94141 12.2383 8.73438 10.7148 8.73438C9.30859 8.73438 8.25391 9.70702 8.25391 11.1016ZM14.582 11.1016C14.582 12.4375 15.4141 13.4688 16.7383 13.4688C17.2305 13.4688 17.7227 13.3867 18.0273 13H18.1211C17.6875 13.9727 16.7852 14.5938 16.0234 14.793C15.6016 14.9102 15.4609 15.0977 15.4609 15.3789C15.4609 15.6719 15.707 15.918 16.0352 15.918C17.2188 15.918 19.5977 14.5117 19.5977 11.5352C19.5977 9.94141 18.5664 8.73438 17.043 8.73438C15.6367 8.73438 14.582 9.70702 14.582 11.1016Z" fill="black" fillOpacity="0.85"/>
</g>
<defs>
<clipPath id="clip0_2201_1324">
<rect width="25.8281" height="25.7461" fill="white" transform="translate(1 1)"/>
</clipPath>
</defs>
</svg>
