<svg width="28" height="28" viewBox="0 0 28 28" fill="none" xmlns="http://www.w3.org/2000/svg">
<g clipPath="url(#clip0_2201_1451)">
<path d="M13.9531 25.9062C20.4922 25.9062 25.9062 20.4805 25.9062 13.9531C25.9062 7.41406 20.4805 2 13.9414 2C7.41406 2 2 7.41406 2 13.9531C2 20.4805 7.42578 25.9062 13.9531 25.9062ZM13.9531 23.9141C8.42188 23.9141 4.00391 19.4844 4.00391 13.9531C4.00391 8.42188 8.41016 3.99219 13.9414 3.99219C19.4727 3.99219 23.9141 8.42188 23.9141 13.9531C23.9141 19.4844 19.4844 23.9141 13.9531 23.9141Z" fill="black" fillOpacity="0.85"/>
<path d="M6.45312 13.9531C6.45312 15.8398 7.97656 17.375 9.86328 17.375H18.0312C19.918 17.375 21.4414 15.8398 21.4414 13.9531C21.4414 12.0664 19.918 10.5312 18.0312 10.5312C16.1445 10.5312 14.6094 12.0664 14.6094 13.9531C14.6094 14.7383 14.8789 15.4883 15.3828 16.0742H12.5117C13.0156 15.4883 13.2852 14.7383 13.2852 13.9531C13.2852 12.0664 11.7617 10.5312 9.86328 10.5312C7.97656 10.5312 6.45312 12.0664 6.45312 13.9531ZM7.75391 13.9414C7.75391 12.7812 8.71484 11.832 9.875 11.832C11.0352 11.832 11.9844 12.7812 11.9844 13.9414C11.9844 15.125 11.0469 16.0742 9.875 16.0742C8.70312 16.0742 7.75391 15.1133 7.75391 13.9414ZM15.9102 13.9414C15.9102 12.7812 16.8594 11.832 18.0195 11.832C19.1797 11.832 20.1406 12.7812 20.1406 13.9414C20.1406 15.1133 19.1914 16.0742 18.0195 16.0742C16.8477 16.0742 15.9102 15.125 15.9102 13.9414Z" fill="black" fillOpacity="0.85"/>
</g>
<defs>
<clipPath id="clip0_2201_1451">
<rect width="23.9062" height="23.918" fill="white" transform="translate(2 2)"/>
</clipPath>
</defs>
</svg>
