<svg width="28" height="28" viewBox="0 0 28 28" fill="none" xmlns="http://www.w3.org/2000/svg">
<g clipPath="url(#clip0_2201_1452)">
<path d="M13.9531 25.9062C20.4922 25.9062 25.9062 20.4805 25.9062 13.9531C25.9062 7.41406 20.4805 2 13.9414 2C7.41406 2 2 7.41406 2 13.9531C2 20.4805 7.42578 25.9062 13.9531 25.9062Z" fill="black" fillOpacity="0.85"/>
<path d="M6.23047 13.9531C6.23047 12.0078 7.78906 10.4258 9.73438 10.4258C11.6914 10.4258 13.2617 12.0078 13.2617 13.9531C13.2617 14.7617 12.9922 15.5352 12.4766 16.1328H15.418C14.9023 15.5352 14.6328 14.7617 14.6328 13.9531C14.6328 12.0078 16.2148 10.4258 18.1602 10.4258C20.1055 10.4258 21.6758 12.0078 21.6758 13.9531C21.6758 15.8984 20.1055 17.4805 18.1602 17.4805H9.73438C7.78906 17.4805 6.23047 15.8984 6.23047 13.9531ZM7.56641 13.9414C7.56641 15.1484 8.53906 16.1328 9.74609 16.1328C10.9531 16.1328 11.9141 15.1602 11.9141 13.9414C11.9141 12.7461 10.9414 11.7734 9.74609 11.7734C8.55078 11.7734 7.56641 12.7461 7.56641 13.9414ZM15.9805 13.9414C15.9805 15.1602 16.9414 16.1328 18.1484 16.1328C19.3555 16.1328 20.3281 15.1484 20.3281 13.9414C20.3281 12.7461 19.3438 11.7734 18.1484 11.7734C16.9531 11.7734 15.9805 12.7461 15.9805 13.9414Z" fill="white"/>
</g>
<defs>
<clipPath id="clip0_2201_1452">
<rect width="23.9062" height="23.918" fill="white" transform="translate(2 2)"/>
</clipPath>
</defs>
</svg>
