<svg width="35" height="28" viewBox="0 0 35 28" fill="none" xmlns="http://www.w3.org/2000/svg">
<g clipPath="url(#clip0_2201_1450)">
<path d="M0 13.6406C0 17.8594 3.42188 21.2812 7.64062 21.2812H27.1992C31.4297 21.2812 34.8398 17.8594 34.8398 13.6406C34.8398 9.41016 31.4297 6 27.1992 6C22.9805 6 19.5586 9.42188 19.5586 13.6406C19.5586 15.9023 20.5664 17.9297 22.1953 19.2773H12.6445C14.2734 17.9297 15.2812 15.9023 15.2812 13.6406C15.2812 9.41016 11.8594 6 7.64062 6C3.41016 6 0 9.42188 0 13.6406ZM2.00391 13.6289C2.00391 10.5234 4.53516 7.99219 7.65234 7.99219C10.7578 7.99219 13.2773 10.5234 13.2773 13.6289C13.2773 16.7461 10.7578 19.2773 7.65234 19.2773C4.53516 19.2773 2.00391 16.7461 2.00391 13.6289ZM21.5625 13.6289C21.5625 10.5234 24.082 7.99219 27.1875 7.99219C30.3047 7.99219 32.8359 10.5234 32.8359 13.6289C32.8359 16.7461 30.3047 19.2773 27.1875 19.2773C24.082 19.2773 21.5625 16.7461 21.5625 13.6289Z" fill="black" fillOpacity="0.85"/>
</g>
<defs>
<clipPath id="clip0_2201_1450">
<rect width="34.8398" height="15.293" fill="white" transform="translate(0 6)"/>
</clipPath>
</defs>
</svg>
