<svg width="28" height="28" viewBox="0 0 28 28" fill="none" xmlns="http://www.w3.org/2000/svg">
<g clipPath="url(#clip0_2201_1343)">
<path d="M7.96094 26.8867C8.41797 26.8867 8.75781 26.6523 9.30859 26.1367L13.5391 22.2695H21.4609C24.9531 22.2695 26.8281 20.3477 26.8281 16.9141V7.9375C26.8281 4.50391 24.9531 2.57031 21.4609 2.57031H6.36719C2.875 2.57031 1 4.49219 1 7.9375V16.9141C1 20.3594 2.875 22.2695 6.36719 22.2695H6.91797V25.6797C6.91797 26.4062 7.29297 26.8867 7.96094 26.8867Z" fill="black" fillOpacity="0.85"/>
<path d="M6.97656 12.1328C6.08594 12.1328 5.64062 11.7109 5.64062 10.832V8.42969C5.64062 7.5625 6.08594 7.14062 6.97656 7.14062H12.2734C13.1406 7.14062 13.5859 7.5625 13.5859 8.42969V10.832C13.5859 11.7109 13.1406 12.1328 12.2734 12.1328H6.97656ZM8.42969 17.6992C7.5625 17.6992 7.12891 17.2656 7.12891 16.3867V14.7578C7.12891 13.8906 7.5625 13.457 8.42969 13.457H12.9883C13.8555 13.457 14.2891 13.8906 14.2891 14.7578V16.3867C14.2891 17.2656 13.8555 17.6992 12.9883 17.6992H8.42969ZM16.9609 16.9727C16.082 16.9727 15.6367 16.5508 15.6367 15.6719V9.26172C15.6367 8.39453 16.082 7.96094 16.9609 7.96094H20.7227C21.6016 7.96094 22.0352 8.39453 22.0352 9.26172V15.6719C22.0352 16.5508 21.6016 16.9727 20.7227 16.9727H16.9609Z" fill="white"/>
</g>
<defs>
<clipPath id="clip0_2201_1343">
<rect width="25.8281" height="25.8867" fill="white" transform="translate(1 1)"/>
</clipPath>
</defs>
</svg>
