<svg width="28" height="28" viewBox="0 0 28 28" fill="none" xmlns="http://www.w3.org/2000/svg">
<g clipPath="url(#clip0_2201_1342)">
<path d="M8.20703 26.7461C8.78125 26.7461 9.17969 26.4414 9.89453 25.8086L13.9375 22.2109H21.4609C24.9531 22.2109 26.8281 20.2773 26.8281 16.8438V7.86719C26.8281 4.43359 24.9531 2.5 21.4609 2.5H6.36719C2.875 2.5 1 4.42188 1 7.86719V16.8438C1 20.2891 2.875 22.2109 6.36719 22.2109H6.92969V25.2578C6.92969 26.1602 7.38672 26.7461 8.20703 26.7461ZM8.6875 24.6016V21.2031C8.6875 20.5703 8.44141 20.3242 7.80859 20.3242H6.36719C4 20.3242 2.88672 19.1172 2.88672 16.832V7.86719C2.88672 5.58203 4 4.38672 6.36719 4.38672H21.4609C23.8164 4.38672 24.9414 5.58203 24.9414 7.86719V16.832C24.9414 19.1172 23.8164 20.3242 21.4609 20.3242H13.8672C13.2109 20.3242 12.8828 20.418 12.4375 20.875L8.6875 24.6016Z" fill="black" fillOpacity="0.85"/>
<path d="M7.17578 12.0625H12.3203C13.1641 12.0625 13.5859 11.6523 13.5859 10.7969V8.46484C13.5859 7.62109 13.1641 7.22266 12.3203 7.22266H7.17578C6.32031 7.22266 5.88672 7.62109 5.88672 8.46484V10.7969C5.88672 11.6523 6.32031 12.0625 7.17578 12.0625ZM8.59375 17.4531H13.0117C13.8555 17.4531 14.2773 17.043 14.2773 16.1875V14.6055C14.2773 13.7617 13.8555 13.3516 13.0117 13.3516H8.59375C7.75 13.3516 7.32812 13.7617 7.32812 14.6055V16.1875C7.32812 17.043 7.75 17.4531 8.59375 17.4531ZM16.8672 16.75H20.5234C21.3672 16.75 21.7891 16.3398 21.7891 15.4961V9.27344C21.7891 8.42969 21.3672 8.01953 20.5234 8.01953H16.8672C16.0117 8.01953 15.5898 8.42969 15.5898 9.27344V15.4961C15.5898 16.3398 16.0117 16.75 16.8672 16.75Z" fill="black" fillOpacity="0.85"/>
</g>
<defs>
<clipPath id="clip0_2201_1342">
<rect width="25.8281" height="25.7461" fill="white" transform="translate(1 1)"/>
</clipPath>
</defs>
</svg>
