<svg width="28" height="28" viewBox="0 0 28 28" fill="none" xmlns="http://www.w3.org/2000/svg">
<g clipPath="url(#clip0_2201_1352)">
<path d="M8.20703 26.7461C8.78125 26.7461 9.17969 26.4414 9.89453 25.8086L13.9375 22.2109H21.4609C24.9531 22.2109 26.8281 20.2773 26.8281 16.8438V7.86719C26.8281 4.43359 24.9531 2.5 21.4609 2.5H6.36719C2.875 2.5 1 4.42188 1 7.86719V16.8438C1 20.2891 2.875 22.2109 6.36719 22.2109H6.92969V25.2578C6.92969 26.1602 7.38672 26.7461 8.20703 26.7461ZM8.6875 24.6016V21.2031C8.6875 20.5703 8.44141 20.3242 7.80859 20.3242H6.36719C4 20.3242 2.88672 19.1172 2.88672 16.832V7.86719C2.88672 5.58203 4 4.38672 6.36719 4.38672H21.4609C23.8164 4.38672 24.9414 5.58203 24.9414 7.86719V16.832C24.9414 19.1172 23.8164 20.3242 21.4609 20.3242H13.8672C13.2109 20.3242 12.8828 20.418 12.4375 20.875L8.6875 24.6016Z" fill="black" fillOpacity="0.85"/>
<path d="M18.2852 16.5391C18.5781 16.7266 18.9297 16.668 19.1172 16.3867C19.9141 15.2734 20.3594 13.8438 20.3594 12.3438C20.3594 10.8789 19.9258 9.44924 19.1289 8.31252C18.918 8.01955 18.5547 7.94924 18.2852 8.13674C18.0039 8.3594 17.9453 8.71097 18.168 9.01565C18.8008 9.90628 19.1523 11.0898 19.1523 12.3438C19.1523 13.5859 18.8008 14.8164 18.1562 15.6719C17.9336 15.9766 17.9805 16.3516 18.2852 16.5391Z" fill="black" fillOpacity="0.85"/>
<path d="M16.1992 14.9922C16.4688 15.1914 16.832 15.1094 17.043 14.8398C17.5234 14.2188 17.793 13.3047 17.793 12.3438C17.793 11.418 17.5117 10.5039 17.043 9.85938C16.8438 9.57812 16.4688 9.50781 16.1992 9.70703C15.9062 9.92969 15.8594 10.293 16.0703 10.5977C16.3867 11.0078 16.5742 11.6641 16.5742 12.3438C16.5742 13 16.375 13.6562 16.0703 14.1016C15.8594 14.418 15.9062 14.7695 16.1992 14.9922Z" fill="black" fillOpacity="0.85"/>
<path d="M13.5508 17.6406C13.9258 17.6406 14.2188 17.3477 14.2188 16.9609V7.77344C14.2188 7.38672 13.9258 7.07031 13.5391 7.07031C13.2461 7.07031 13.0703 7.19922 12.7656 7.48047L10.2109 9.89453C10.1641 9.92969 10.1172 9.94141 10.0586 9.94141H8.33594C7.52734 9.94141 7.08203 10.3867 7.08203 11.2422V13.4805C7.08203 14.3359 7.52734 14.7812 8.33594 14.7812H10.0586C10.1172 14.7812 10.1641 14.793 10.2109 14.8281L12.7656 17.2656C13.0352 17.5234 13.2578 17.6406 13.5508 17.6406Z" fill="black" fillOpacity="0.85"/>
</g>
<defs>
<clipPath id="clip0_2201_1352">
<rect width="25.8281" height="25.7461" fill="white" transform="translate(1 1)"/>
</clipPath>
</defs>
</svg>
