<svg width="28" height="28" viewBox="0 0 28 28" fill="none" xmlns="http://www.w3.org/2000/svg">
<g clipPath="url(#clip0_2201_1353)">
<path d="M7.96094 26.8867C8.41797 26.8867 8.75781 26.6523 9.30859 26.1367L13.5391 22.2695H21.4609C24.9531 22.2695 26.8281 20.3477 26.8281 16.9141V7.9375C26.8281 4.50391 24.9531 2.57031 21.4609 2.57031H6.36719C2.875 2.57031 1 4.49219 1 7.9375V16.9141C1 20.3594 2.875 22.2695 6.36719 22.2695H6.91797V25.6797C6.91797 26.4062 7.29297 26.8867 7.96094 26.8867Z" fill="black" fillOpacity="0.85"/>
<path d="M18.4141 16.7266C18.0977 16.5391 18.0508 16.1406 18.2734 15.8242C18.9414 14.9453 19.3047 13.6797 19.3047 12.4023C19.3047 11.1133 18.9414 9.8945 18.2852 8.96872C18.0625 8.66403 18.1211 8.28903 18.4141 8.06638C18.6953 7.86716 19.0703 7.93747 19.2812 8.24216C20.1133 9.41403 20.5586 10.8906 20.5586 12.4023C20.5586 13.9492 20.0898 15.4258 19.2695 16.5742C19.082 16.8555 18.7188 16.9258 18.4141 16.7266Z" fill="white"/>
<path d="M16.2695 15.1328C15.9648 14.8984 15.9062 14.5352 16.1289 14.207C16.4453 13.75 16.6445 13.082 16.6445 12.4023C16.6445 11.6992 16.457 11.0312 16.1289 10.6094C15.9062 10.293 15.9648 9.91796 16.2695 9.68358C16.5391 9.47265 16.9258 9.55468 17.1367 9.83593C17.6172 10.5039 17.9102 11.4531 17.9102 12.4023C17.9102 13.3984 17.6289 14.3359 17.1367 14.9805C16.9141 15.25 16.5391 15.3438 16.2695 15.1328Z" fill="white"/>
<path d="M13.5391 17.8516C13.2344 17.8516 13 17.7461 12.7188 17.4766L10.0937 14.9688C10.0469 14.9336 9.98828 14.9219 9.92969 14.9219H8.16016C7.32812 14.9219 6.85938 14.4531 6.85938 13.5742V11.2656C6.85938 10.3867 7.32812 9.91797 8.16016 9.91797H9.92969C9.98828 9.91797 10.0469 9.90625 10.0937 9.87109L12.7188 7.38672C13.0352 7.09375 13.2227 6.96484 13.5156 6.96484C13.9258 6.96484 14.2305 7.29297 14.2305 7.69141V17.1602C14.2305 17.5586 13.9258 17.8516 13.5391 17.8516Z" fill="white"/>
</g>
<defs>
<clipPath id="clip0_2201_1353">
<rect width="25.8281" height="25.8867" fill="white" transform="translate(1 1)"/>
</clipPath>
</defs>
</svg>
