<svg width="28" height="28" viewBox="0 0 28 28" fill="none" xmlns="http://www.w3.org/2000/svg">
<g clipPath="url(#clip0_2201_1327)">
<path d="M7.96094 26.8867C8.41797 26.8867 8.75781 26.6523 9.30859 26.1367L13.5391 22.2695H21.4609C24.9531 22.2695 26.8281 20.3477 26.8281 16.9141V7.9375C26.8281 4.50391 24.9531 2.57031 21.4609 2.57031H6.36719C2.875 2.57031 1 4.49219 1 7.9375V16.9141C1 20.3594 2.875 22.2695 6.36719 22.2695H6.91797V25.6797C6.91797 26.4062 7.29297 26.8867 7.96094 26.8867Z" fill="black" fillOpacity="0.85"/>
<path d="M11.3477 16.9844C10.8437 17.3594 10.2461 17.0195 10.4805 16.3516L11.5 13.3281L8.85154 11.4414C8.31248 11.0547 8.54686 10.4336 9.15623 10.4336H12.4141L13.3867 7.43359C13.5859 6.83594 14.2773 6.83594 14.4648 7.43359L15.4258 10.4336H18.6836C19.293 10.4336 19.5273 11.0547 18.9883 11.4414L16.3633 13.3281L17.3711 16.3516C17.5938 17.0195 17.0078 17.3594 16.4922 16.9844L13.9258 15.0977L11.3477 16.9844Z" fill="white"/>
</g>
<defs>
<clipPath id="clip0_2201_1327">
<rect width="25.8281" height="25.8867" fill="white" transform="translate(1 1)"/>
</clipPath>
</defs>
</svg>
