<svg width="28" height="28" viewBox="0 0 28 28" fill="none" xmlns="http://www.w3.org/2000/svg">
<g clipPath="url(#clip0_2201_1393)">
<path d="M13.9531 25.918C20.4922 25.918 25.9062 20.5039 25.9062 13.9648C25.9062 7.4375 20.4805 2.01172 13.9414 2.01172C7.41406 2.01172 2 7.4375 2 13.9648C2 20.5039 7.42578 25.918 13.9531 25.918Z" fill="black" fillOpacity="0.85"/>
<path d="M13.9531 10.4727C12.0781 10.4727 11.2461 10.7305 11.2461 11.2227V11.4102C11.2461 12.0664 11.0703 12.5 10.2383 12.582L7.98828 12.8164C7.12109 12.9102 6.62891 12.6992 6.62891 11.7734C6.62891 9.20703 9.78125 7.92969 13.9531 7.92969C18.1367 7.92969 21.2891 9.21875 21.2891 11.7734C21.2891 12.6992 20.8086 12.9102 19.9531 12.8164L17.6797 12.582C16.8477 12.5 16.6836 12.0664 16.6836 11.4102V11.2344C16.6836 10.6836 16.0039 10.4727 13.9531 10.4727ZM8.43359 16.3438C7.97656 16.3438 7.70703 16.1094 7.70703 15.6523V14.5156C7.70703 14.082 7.97656 13.8242 8.43359 13.8242H9.54688C9.98047 13.8242 10.2266 14.082 10.2266 14.5156V15.6523C10.2266 16.1094 9.98047 16.3438 9.54688 16.3438H8.43359ZM11.7266 16.3438C11.2695 16.3438 11.0352 16.1094 11.0352 15.6523V14.5156C11.0352 14.082 11.2695 13.8242 11.7266 13.8242H12.8633C13.2969 13.8242 13.5664 14.082 13.5664 14.5156V15.6523C13.5664 16.1094 13.2969 16.3438 12.8633 16.3438H11.7266ZM15.043 16.3438C14.6094 16.3438 14.3398 16.1094 14.3398 15.6523V14.5156C14.3398 14.082 14.6094 13.8242 15.043 13.8242H16.1562C16.6133 13.8242 16.8594 14.082 16.8594 14.5156V15.6523C16.8594 16.1094 16.6133 16.3438 16.1562 16.3438H15.043ZM18.3477 16.3438C17.8906 16.3438 17.6445 16.1094 17.6445 15.6523V14.5156C17.6445 14.082 17.8906 13.8242 18.3477 13.8242H19.4727C19.9062 13.8242 20.1758 14.082 20.1758 14.5156V15.6523C20.1758 16.1094 19.9062 16.3438 19.4727 16.3438H18.3477ZM8.41016 19.6602C7.97656 19.6602 7.70703 19.4258 7.70703 18.9688V17.8203C7.70703 17.3984 7.97656 17.1289 8.41016 17.1289H9.53516C9.98047 17.1289 10.2266 17.3984 10.2266 17.8203V18.9688C10.2266 19.4258 9.98047 19.6602 9.53516 19.6602H8.41016ZM11.7148 19.6602C11.2695 19.6602 11.0352 19.4258 11.0352 18.9688V17.8203C11.0352 17.3984 11.2695 17.1289 11.7148 17.1289H16.1914C16.625 17.1289 16.8594 17.3984 16.8594 17.8203V18.9688C16.8594 19.4258 16.625 19.6602 16.1914 19.6602H11.7148ZM18.3594 19.6602C17.9141 19.6602 17.6445 19.4258 17.6445 18.9688V17.8203C17.6445 17.3984 17.9141 17.1289 18.3594 17.1289H19.4844C19.9297 17.1289 20.1758 17.3984 20.1758 17.8203V18.9688C20.1758 19.4258 19.9297 19.6602 19.4844 19.6602H18.3594Z" fill="white"/>
</g>
<defs>
<clipPath id="clip0_2201_1393">
<rect width="23.9062" height="23.918" fill="white" transform="translate(2 2)"/>
</clipPath>
</defs>
</svg>
