<svg width="28" height="28" viewBox="0 0 28 28" fill="none" xmlns="http://www.w3.org/2000/svg">
<g clipPath="url(#clip0_2201_1395)">
<path d="M13.9531 25.9062C20.4922 25.9062 25.9062 20.4805 25.9062 13.9531C25.9062 7.41406 20.4805 2 13.9414 2C7.41406 2 2 7.41406 2 13.9531C2 20.4805 7.42578 25.9062 13.9531 25.9062ZM13.9531 23.9141C8.42188 23.9141 4.00391 19.4844 4.00391 13.9531C4.00391 8.42188 8.41016 3.99219 13.9414 3.99219C19.4727 3.99219 23.9141 8.42188 23.9141 13.9531C23.9141 19.4844 19.4844 23.9141 13.9531 23.9141Z" fill="black" fillOpacity="0.85"/>
<path d="M15.6992 19.8711C16.3086 19.2969 16.1211 18.8164 15.5 18.3477L13.9062 17.0469C13.3086 16.5664 12.9453 16.7773 12.5117 17.1641L12.4062 17.2578C11.9961 17.5859 11.4688 17.3047 10.1563 16.0273C8.94925 14.8086 8.59769 14.1406 8.92581 13.7773L9.01956 13.6719C9.42972 13.2148 9.6055 12.8516 9.13675 12.2656L7.84769 10.6719C7.34378 10.0742 6.91019 9.88672 6.30081 10.4727C4.66019 12.125 5.8555 14.9609 8.55081 17.6445C11.211 20.3281 14.0586 21.5234 15.6992 19.8711ZM11.1641 12.6172H12.1953C12.6055 12.6172 12.8281 12.3711 12.8281 11.9844V10.9648C12.8281 10.5547 12.6055 10.3437 12.1953 10.3437H11.1641C10.7774 10.3437 10.543 10.5547 10.543 10.9648V11.9844C10.543 12.3711 10.7774 12.6172 11.1641 12.6172ZM14.1758 12.6172H15.207C15.5938 12.6172 15.8164 12.3711 15.8164 11.9844V10.9648C15.8164 10.5547 15.5938 10.3437 15.207 10.3437H14.1758C13.7773 10.3437 13.5195 10.5547 13.5195 10.9648V11.9844C13.5195 12.3711 13.7773 12.6172 14.1758 12.6172ZM17.1523 12.6172H18.1836C18.582 12.6172 18.8281 12.3711 18.8281 11.9844V10.9648C18.8281 10.5547 18.582 10.3437 18.1836 10.3437H17.1523C16.7656 10.3437 16.543 10.5547 16.543 10.9648V11.9844C16.543 12.3711 16.7656 12.6172 17.1523 12.6172ZM20.1523 12.6172H21.1836C21.6055 12.6172 21.8281 12.3711 21.8281 11.9844V10.9648C21.8281 10.5547 21.6055 10.3437 21.1836 10.3437H20.1523C19.7656 10.3437 19.543 10.5547 19.543 10.9648V11.9844C19.543 12.3711 19.7656 12.6172 20.1523 12.6172ZM11.1641 15.6172H12.1836C12.6055 15.6172 12.8281 15.3945 12.8281 14.9844V13.9648C12.8281 13.5547 12.6055 13.3438 12.1836 13.3438H11.1641C10.7539 13.3438 10.543 13.5547 10.543 13.9648V14.9844C10.543 15.3945 10.7539 15.6172 11.1641 15.6172ZM14.1641 15.6172H18.207C18.6055 15.6172 18.8281 15.3945 18.8281 14.9844V13.9648C18.8281 13.5547 18.6055 13.3438 18.207 13.3438H14.1641C13.7656 13.3438 13.5195 13.5547 13.5195 13.9648V14.9844C13.5195 15.3945 13.7656 15.6172 14.1641 15.6172ZM20.1641 15.6172H21.207C21.6172 15.6172 21.8281 15.3945 21.8281 14.9844V13.9648C21.8281 13.5547 21.6172 13.3438 21.207 13.3438H20.1641C19.7891 13.3438 19.543 13.5547 19.543 13.9648V14.9844C19.543 15.3945 19.7891 15.6172 20.1641 15.6172Z" fill="black" fillOpacity="0.85"/>
</g>
<defs>
<clipPath id="clip0_2201_1395">
<rect width="23.9062" height="23.918" fill="white" transform="translate(2 2)"/>
</clipPath>
</defs>
</svg>
