<svg width="34" height="28" viewBox="0 0 34 28" fill="none" xmlns="http://www.w3.org/2000/svg">
<g clipPath="url(#clip0_2201_1394)">
<path d="M20.9388 25.2122C22.181 23.9818 21.7943 23.056 20.5404 22.0247L17.2474 19.3646C16.0169 18.3685 15.2435 18.7786 14.3529 19.599L14.1419 19.7982C13.3568 20.5247 12.1966 19.9271 9.52473 17.2435C7.01692 14.7357 6.2552 13.3177 6.94661 12.6146L7.15755 12.4036C8.03645 11.5247 8.38802 10.7279 7.39192 9.50912L4.73177 6.20443C3.71223 4.95053 2.77473 4.57553 1.54427 5.80599C-1.84245 9.20443 0.630201 15.0872 6.14973 20.6068C11.6693 26.1263 17.5521 28.599 20.9388 25.2122ZM11.6107 10.2357H13.72C14.5404 10.2357 15.0091 9.76693 15.0091 8.9349V6.81381C15.0091 5.98178 14.5404 5.51303 13.72 5.51303H11.6107C10.7786 5.51303 10.2982 5.98178 10.2982 6.81381V8.9349C10.2982 9.76693 10.7786 10.2357 11.6107 10.2357ZM17.7982 10.2357H19.9193C20.7396 10.2357 21.2083 9.76693 21.2083 8.9349V6.81381C21.2083 5.98178 20.7396 5.51303 19.9193 5.51303H17.7982C16.9661 5.51303 16.474 5.98178 16.474 6.81381V8.9349C16.474 9.76693 16.9661 10.2357 17.7982 10.2357ZM23.9857 10.2357H26.0833C26.9154 10.2357 27.4075 9.76693 27.4075 8.9349V6.81381C27.4075 5.98178 26.9154 5.51303 26.0833 5.51303H23.9857C23.1536 5.51303 22.6849 5.98178 22.6849 6.81381V8.9349C22.6849 9.76693 23.1536 10.2357 23.9857 10.2357ZM30.1615 10.2357H32.2708C33.1029 10.2357 33.6068 9.76693 33.6068 8.9349V6.81381C33.6068 5.98178 33.1029 5.51303 32.2708 5.51303H30.1615C29.3411 5.51303 28.8724 5.98178 28.8724 6.81381V8.9349C28.8724 9.76693 29.3411 10.2357 30.1615 10.2357ZM11.5755 16.4349H13.6966C14.5286 16.4349 15.0091 15.9661 15.0091 15.1341V13.0013C15.0091 12.181 14.5286 11.7005 13.6966 11.7005H11.5755C10.7669 11.7005 10.2982 12.181 10.2982 13.0013V15.1341C10.2982 15.9661 10.7669 16.4349 11.5755 16.4349ZM17.7747 16.4349H26.1185C26.9622 16.4349 27.4193 15.9661 27.4193 15.1341V13.0013C27.4193 12.181 26.9622 11.7005 26.1185 11.7005H17.7747C16.9427 11.7005 16.474 12.181 16.474 13.0013V15.1341C16.474 15.9661 16.9427 16.4349 17.7747 16.4349ZM30.2083 16.4349H32.3177C33.1497 16.4349 33.6068 15.9661 33.6068 15.1341V13.0013C33.6068 12.181 33.1497 11.7005 32.3177 11.7005H30.2083C29.3646 11.7005 28.8841 12.181 28.8841 13.0013V15.1341C28.8841 15.9661 29.3646 16.4349 30.2083 16.4349Z" fill="black" fillOpacity="0.85"/>
</g>
<defs>
<clipPath id="clip0_2201_1394">
<rect width="33.6068" height="24.7565" fill="white" transform="translate(0 2)"/>
</clipPath>
</defs>
</svg>
