<svg width="28" height="28" viewBox="0 0 28 28" fill="none" xmlns="http://www.w3.org/2000/svg">
<g clipPath="url(#clip0_2201_1396)">
<path d="M13.9531 25.918C20.4922 25.918 25.9062 20.5039 25.9062 13.9648C25.9062 7.4375 20.4805 2.01172 13.9414 2.01172C7.41406 2.01172 2 7.4375 2 13.9648C2 20.5039 7.42578 25.918 13.9531 25.918Z" fill="black" fillOpacity="0.85"/>
<path d="M15.6406 20.1406C13.9531 21.8398 11.0117 20.6094 8.26955 17.8555C5.49221 15.0898 4.26174 12.1602 5.94924 10.4493C6.57033 9.83987 7.01564 10.0391 7.54299 10.6602L8.87893 12.3008C9.3594 12.8984 9.1719 13.2734 8.75002 13.7422L8.65627 13.8594C8.32814 14.2461 8.67971 14.9258 9.93361 16.1797C11.2813 17.4922 11.8203 17.7852 12.2539 17.4453L12.3594 17.3516C12.8047 16.9531 13.168 16.7305 13.7891 17.2344L15.4414 18.582C16.0742 19.0625 16.2734 19.543 15.6406 20.1406ZM11.1992 12.4414C10.8008 12.4414 10.5664 12.1836 10.5664 11.7735V10.7305C10.5664 10.2969 10.8008 10.086 11.1992 10.086H12.2656C12.6875 10.086 12.9219 10.2969 12.9219 10.7305V11.7735C12.9219 12.1836 12.6875 12.4414 12.2656 12.4414H11.1992ZM14.3047 12.4414C13.8945 12.4414 13.625 12.1836 13.625 11.7735V10.7305C13.625 10.2969 13.8945 10.086 14.3047 10.086H15.3711C15.7695 10.086 16.0039 10.2969 16.0039 10.7305V11.7735C16.0039 12.1836 15.7695 12.4414 15.3711 12.4414H14.3047ZM17.375 12.4414C16.9766 12.4414 16.7422 12.1836 16.7422 11.7735V10.7305C16.7422 10.2969 16.9766 10.086 17.375 10.086H18.4414C18.8516 10.086 19.1094 10.2969 19.1094 10.7305V11.7735C19.1094 12.1836 18.8516 12.4414 18.4414 12.4414H17.375ZM20.4688 12.4414C20.0703 12.4414 19.8359 12.1836 19.8359 11.7735V10.7305C19.8359 10.2969 20.0703 10.086 20.4688 10.086H21.5352C21.9688 10.086 22.2031 10.2969 22.2031 10.7305V11.7735C22.2031 12.1836 21.9688 12.4414 21.5352 12.4414H20.4688ZM11.1992 15.5352C10.7774 15.5352 10.5664 15.3008 10.5664 14.8789V13.8242C10.5664 13.3906 10.7774 13.1797 11.1992 13.1797H12.2422C12.6875 13.1797 12.9219 13.3906 12.9219 13.8242V14.8789C12.9219 15.3008 12.6875 15.5352 12.2422 15.5352H11.1992ZM14.293 15.5352C13.8828 15.5352 13.625 15.3008 13.625 14.8789V13.8242C13.625 13.3906 13.8828 13.1797 14.293 13.1797H18.4648C18.875 13.1797 19.1094 13.3906 19.1094 13.8242V14.8789C19.1094 15.3008 18.875 15.5352 18.4648 15.5352H14.293ZM20.4805 15.5352C20.0938 15.5352 19.8359 15.3008 19.8359 14.8789V13.8242C19.8359 13.3906 20.0938 13.1797 20.4805 13.1797H21.5586C21.9805 13.1797 22.2031 13.3906 22.2031 13.8242V14.8789C22.2031 15.3008 21.9805 15.5352 21.5586 15.5352H20.4805Z" fill="white"/>
</g>
<defs>
<clipPath id="clip0_2201_1396">
<rect width="23.9062" height="23.918" fill="white" transform="translate(2 2)"/>
</clipPath>
</defs>
</svg>
