<svg width="28" height="28" viewBox="0 0 28 28" fill="none" xmlns="http://www.w3.org/2000/svg">
<g clipPath="url(#clip0_2201_1391)">
<path d="M13.7109 3C5.91797 3 0 5.41406 0 10.2188V10.2305C0 11.9648 0.925781 12.3516 2.53125 12.1875L6.75 11.7305C8.32031 11.5664 8.625 10.7812 8.625 9.52734V9.23438C8.625 8.25 10.1953 7.76953 13.7109 7.76953C17.5078 7.76953 18.7969 8.16797 18.7969 9.24609V9.52734C18.7969 10.7461 19.1133 11.5664 20.6836 11.7305L24.9023 12.1875C26.5078 12.3516 27.4336 11.9648 27.4336 10.2188C27.4336 5.41406 21.5156 3 13.7109 3ZM3.35156 18.7852H5.46094C6.29297 18.7852 6.75 18.3164 6.75 17.4844V15.3633C6.75 14.5312 6.29297 14.0625 5.46094 14.0625H3.35156C2.51953 14.0625 2.03906 14.5312 2.03906 15.3633V17.4844C2.03906 18.3164 2.51953 18.7852 3.35156 18.7852ZM9.55078 18.7852H11.6602C12.4805 18.7852 12.9609 18.3164 12.9609 17.4844V15.3633C12.9609 14.5312 12.4805 14.0625 11.6602 14.0625H9.55078C8.70703 14.0625 8.22656 14.5312 8.22656 15.3633V17.4844C8.22656 18.3164 8.70703 18.7852 9.55078 18.7852ZM15.7266 18.7852H17.8242C18.6562 18.7852 19.1484 18.3164 19.1484 17.4844V15.3633C19.1484 14.5312 18.6562 14.0625 17.8242 14.0625H15.7266C14.8945 14.0625 14.4258 14.5312 14.4258 15.3633V17.4844C14.4258 18.3164 14.8945 18.7852 15.7266 18.7852ZM21.9023 18.7852H24.0117C24.8555 18.7852 25.3477 18.3164 25.3477 17.4844V15.3633C25.3477 14.5312 24.8555 14.0625 24.0117 14.0625H21.9023C21.082 14.0625 20.6133 14.5312 20.6133 15.3633V17.4844C20.6133 18.3164 21.082 18.7852 21.9023 18.7852ZM3.32812 24.9844H5.4375C6.26953 24.9844 6.75 24.5156 6.75 23.6836V21.5508C6.75 20.7305 6.26953 20.25 5.4375 20.25H3.32812C2.50781 20.25 2.03906 20.7305 2.03906 21.5508V23.6836C2.03906 24.5156 2.50781 24.9844 3.32812 24.9844ZM9.51562 24.9844H17.8711C18.7031 24.9844 19.1602 24.5156 19.1602 23.6836V21.5508C19.1602 20.7305 18.7031 20.25 17.8711 20.25H9.51562C8.68359 20.25 8.22656 20.7305 8.22656 21.5508V23.6836C8.22656 24.5156 8.68359 24.9844 9.51562 24.9844ZM21.9492 24.9844H24.0586C24.8906 24.9844 25.3477 24.5156 25.3477 23.6836V21.5508C25.3477 20.7305 24.8906 20.25 24.0586 20.25H21.9492C21.1172 20.25 20.625 20.7305 20.625 21.5508V23.6836C20.625 24.5156 21.1172 24.9844 21.9492 24.9844Z" fill="black" fillOpacity="0.85"/>
</g>
<defs>
<clipPath id="clip0_2201_1391">
<rect width="27.4336" height="22.9336" fill="white" transform="translate(0 3)"/>
</clipPath>
</defs>
</svg>
