<svg width="28" height="28" viewBox="0 0 28 28" fill="none" xmlns="http://www.w3.org/2000/svg">
<g clipPath="url(#clip0_2201_1392)">
<path d="M13.9531 25.9062C20.4922 25.9062 25.9062 20.4805 25.9062 13.9531C25.9062 7.41406 20.4805 2 13.9414 2C7.41406 2 2 7.41406 2 13.9531C2 20.4805 7.42578 25.9062 13.9531 25.9062ZM13.9531 23.9141C8.42188 23.9141 4.00391 19.4844 4.00391 13.9531C4.00391 8.42188 8.41016 3.99219 13.9414 3.99219C19.4727 3.99219 23.9141 8.42188 23.9141 13.9531C23.9141 19.4844 19.4844 23.9141 13.9531 23.9141Z" fill="black" fillOpacity="0.85"/>
<path d="M13.9414 10.5664C15.9336 10.5664 16.5898 10.7539 16.5898 11.3047V11.4688C16.5898 12.1016 16.7539 12.5234 17.5625 12.6055L19.7656 12.8398C20.5977 12.9219 21.0547 12.7109 21.0547 11.8203C21.0547 9.33594 18.0078 8.09375 13.9414 8.09375C9.88672 8.09375 6.83984 9.33594 6.83984 11.8203C6.83984 12.7109 7.30859 12.9219 8.15234 12.8398L10.332 12.6055C11.1406 12.5234 11.3164 12.1016 11.3164 11.4688V11.293C11.3164 10.8008 12.125 10.5664 13.9414 10.5664ZM8.58594 16.25H9.66406C10.0859 16.25 10.332 16.0273 10.332 15.582V14.4688C10.332 14.0586 10.0859 13.8125 9.66406 13.8125H8.58594C8.14062 13.8125 7.88281 14.0586 7.88281 14.4688V15.582C7.88281 16.0273 8.14062 16.25 8.58594 16.25ZM11.7852 16.25H12.8867C13.3086 16.25 13.5664 16.0273 13.5664 15.582V14.4688C13.5664 14.0586 13.3086 13.8125 12.8867 13.8125H11.7852C11.3398 13.8125 11.1172 14.0586 11.1172 14.4688V15.582C11.1172 16.0273 11.3398 16.25 11.7852 16.25ZM14.9961 16.25H16.0742C16.5195 16.25 16.7656 16.0273 16.7656 15.582V14.4688C16.7656 14.0586 16.5195 13.8125 16.0742 13.8125H14.9961C14.5742 13.8125 14.3164 14.0586 14.3164 14.4688V15.582C14.3164 16.0273 14.5742 16.25 14.9961 16.25ZM18.207 16.25H19.2969C19.7188 16.25 19.9766 16.0273 19.9766 15.582V14.4688C19.9766 14.0586 19.7188 13.8125 19.2969 13.8125H18.207C17.7617 13.8125 17.5273 14.0586 17.5273 14.4688V15.582C17.5273 16.0273 17.7617 16.25 18.207 16.25ZM8.5625 19.4727H9.65234C10.0859 19.4727 10.332 19.2266 10.332 18.793V17.6914C10.332 17.2695 10.0859 17.0117 9.65234 17.0117H8.5625C8.14062 17.0117 7.88281 17.2695 7.88281 17.6914V18.793C7.88281 19.2266 8.14062 19.4727 8.5625 19.4727ZM11.7734 19.4727H16.1094C16.5312 19.4727 16.7656 19.2266 16.7656 18.793V17.6914C16.7656 17.2695 16.5312 17.0117 16.1094 17.0117H11.7734C11.3398 17.0117 11.1172 17.2695 11.1172 17.6914V18.793C11.1172 19.2266 11.3398 19.4727 11.7734 19.4727ZM18.2188 19.4727H19.3086C19.7422 19.4727 19.9766 19.2266 19.9766 18.793V17.6914C19.9766 17.2695 19.7422 17.0117 19.3086 17.0117H18.2188C17.7852 17.0117 17.5273 17.2695 17.5273 17.6914V18.793C17.5273 19.2266 17.7852 19.4727 18.2188 19.4727Z" fill="black" fillOpacity="0.85"/>
</g>
<defs>
<clipPath id="clip0_2201_1392">
<rect width="23.9062" height="23.918" fill="white" transform="translate(2 2)"/>
</clipPath>
</defs>
</svg>
