<svg width="28" height="28" viewBox="0 0 28 28" fill="none" xmlns="http://www.w3.org/2000/svg">
<g clipPath="url(#clip0_2201_1331)">
<path d="M7.96094 26.8867C8.41797 26.8867 8.75781 26.6523 9.30859 26.1367L13.5391 22.2695H21.4609C24.9531 22.2695 26.8281 20.3477 26.8281 16.9141V7.9375C26.8281 4.50391 24.9531 2.57031 21.4609 2.57031H6.36719C2.875 2.57031 1 4.49219 1 7.9375V16.9141C1 20.3594 2.875 22.2695 6.36719 22.2695H6.91797V25.6797C6.91797 26.4062 7.29297 26.8867 7.96094 26.8867Z" fill="black" fillOpacity="0.85"/>
<path d="M7.69141 9.08594C7.30469 9.08594 6.98828 8.78125 6.98828 8.38281C6.98828 8.00781 7.30469 7.69141 7.69141 7.69141H19.9961C20.3828 7.69141 20.6875 8.00781 20.6875 8.38281C20.6875 8.78125 20.3828 9.08594 19.9961 9.08594H7.69141ZM7.69141 13.0234C7.30469 13.0234 6.98828 12.707 6.98828 12.3086C6.98828 11.9336 7.30469 11.6172 7.69141 11.6172H19.9961C20.3828 11.6172 20.6875 11.9336 20.6875 12.3086C20.6875 12.707 20.3828 13.0234 19.9961 13.0234H7.69141ZM7.69141 16.9492C7.30469 16.9492 6.98828 16.6445 6.98828 16.2578C6.98828 15.8594 7.30469 15.543 7.69141 15.543H15.6953C16.082 15.543 16.3867 15.8594 16.3867 16.2578C16.3867 16.6445 16.082 16.9492 15.6953 16.9492H7.69141Z" fill="white"/>
</g>
<defs>
<clipPath id="clip0_2201_1331">
<rect width="25.8281" height="25.8867" fill="white" transform="translate(1 1)"/>
</clipPath>
</defs>
</svg>
