<svg width="28" height="28" viewBox="0 0 28 28" fill="none" xmlns="http://www.w3.org/2000/svg">
<g clipPath="url(#clip0_2201_1351)">
<path d="M7.96094 26.8867C8.41797 26.8867 8.75781 26.6523 9.30859 26.1367L13.5391 22.2695H21.4609C24.9531 22.2695 26.8281 20.3477 26.8281 16.9141V7.9375C26.8281 4.50391 24.9531 2.57031 21.4609 2.57031H6.36719C2.875 2.57031 1 4.49219 1 7.9375V16.9141C1 20.3594 2.875 22.2695 6.36719 22.2695H6.91797V25.6797C6.91797 26.4062 7.29297 26.8867 7.96094 26.8867Z" fill="black" fillOpacity="0.85"/>
<path d="M8.875 17.2891C7.67969 17.2891 6.95312 16.5859 6.95312 15.3906V9.44922C6.95312 8.24219 7.72656 7.55078 8.875 7.55078H15.3203C16.5391 7.55078 17.1836 8.24219 17.1836 9.44922V15.3906C17.1836 16.5859 16.4688 17.2891 15.2617 17.2891H8.875ZM17.8633 14.0664V10.7734L20.2188 8.74609C20.418 8.58203 20.6758 8.47656 20.8867 8.47656C21.3555 8.47656 21.6602 8.80469 21.6602 9.29688V15.5312C21.6602 16.0352 21.3555 16.375 20.8867 16.375C20.6758 16.375 20.4414 16.2695 20.2188 16.082L17.8633 14.0664Z" fill="white"/>
</g>
<defs>
<clipPath id="clip0_2201_1351">
<rect width="25.8281" height="25.8867" fill="white" transform="translate(1 1)"/>
</clipPath>
</defs>
</svg>
