<svg width="28" height="28" viewBox="0 0 28 28" fill="none" xmlns="http://www.w3.org/2000/svg">
<g clipPath="url(#clip0_2201_1401)">
<path d="M6.67969 24.5977H20.8945C23.3555 24.5977 24.5742 23.3789 24.5742 20.9648V6.65625C24.5742 4.24219 23.3555 3.02344 20.8945 3.02344H6.67969C4.23047 3.02344 3 4.23047 3 6.65625V20.9648C3 23.3906 4.23047 24.5977 6.67969 24.5977ZM6.70312 22.7109C5.53125 22.7109 4.88672 22.0898 4.88672 20.8711V6.75C4.88672 5.53125 5.53125 4.91016 6.70312 4.91016H20.8711C22.0312 4.91016 22.6875 5.53125 22.6875 6.75V20.8711C22.6875 22.0898 22.0312 22.7109 20.8711 22.7109H6.70312Z" fill="black" fillOpacity="0.85"/>
<path d="M8.88281 18.5273H15.082C16.2539 18.5273 16.9453 17.8477 16.9453 16.6875V10.9219C16.9453 9.76172 16.3125 9.09375 15.1406 9.09375H8.88281C7.76953 9.09375 7.01953 9.76172 7.01953 10.9219V16.6875C7.01953 17.8477 7.72266 18.5273 8.88281 18.5273ZM17.6016 15.4102L19.8984 17.3438C20.0977 17.5195 20.3203 17.6367 20.5312 17.6367C20.9883 17.6367 21.2812 17.3086 21.2812 16.8164V10.7812C21.2812 10.3008 20.9883 9.97266 20.5312 9.97266C20.3203 9.97266 20.0859 10.0898 19.8984 10.2539L17.6016 12.1992V15.4102Z" fill="black" fillOpacity="0.85"/>
</g>
<defs>
<clipPath id="clip0_2201_1401">
<rect width="21.5742" height="21.5977" fill="white" transform="translate(3 3)"/>
</clipPath>
</defs>
</svg>
