<svg width="29" height="28" viewBox="0 0 29 28" fill="none" xmlns="http://www.w3.org/2000/svg">
<g clipPath="url(#clip0_2201_1398)">
<path d="M3.76172 23.0312H16.3477C18.7031 23.0312 20.1094 21.6719 20.1094 19.3164V7.70312C20.1094 5.35938 18.8203 4 16.4648 4H3.76172C1.51172 4 0 5.35938 0 7.70312V19.3164C0 21.6719 1.40625 23.0312 3.76172 23.0312ZM21.7031 16.9727L25.9688 20.6641C26.3672 21.0156 26.8359 21.2383 27.2578 21.2383C28.1719 21.2383 28.7695 20.5703 28.7695 19.6094V7.42188C28.7695 6.46094 28.1719 5.79297 27.2578 5.79297C26.8359 5.79297 26.3672 6.01562 25.9688 6.36719L21.7031 10.0469V16.9727Z" fill="black" fillOpacity="0.85"/>
</g>
<defs>
<clipPath id="clip0_2201_1398">
<rect width="28.7695" height="19.043" fill="white" transform="translate(0 4)"/>
</clipPath>
</defs>
</svg>
