<svg width="28" height="28" viewBox="0 0 28 28" fill="none" xmlns="http://www.w3.org/2000/svg">
<g clipPath="url(#clip0_2201_1405)">
<path d="M13.9531 25.9062C20.4922 25.9062 25.9062 20.4805 25.9062 13.9531C25.9062 7.41406 20.4805 2 13.9414 2C7.41406 2 2 7.41406 2 13.9531C2 20.4805 7.42578 25.9062 13.9531 25.9062ZM13.9531 23.9141C8.42188 23.9141 4.00391 19.4844 4.00391 13.9531C4.00391 8.42188 8.41016 3.99219 13.9414 3.99219C19.4727 3.99219 23.9141 8.42188 23.9141 13.9531C23.9141 19.4844 19.4844 23.9141 13.9531 23.9141Z" fill="black" fillOpacity="0.85"/>
<path d="M9.03125 18.6875H15.2305C16.4023 18.6875 17.0938 18.0078 17.0938 16.8477V11.082C17.0938 9.92188 16.4609 9.25391 15.2891 9.25391H9.03125C7.91797 9.25391 7.16797 9.92188 7.16797 11.082V16.8477C7.16797 18.0078 7.87109 18.6875 9.03125 18.6875ZM17.75 15.5703L20.0352 17.5039C20.2461 17.6797 20.4688 17.7969 20.6797 17.7969C21.1367 17.7969 21.4297 17.4688 21.4297 16.9766V10.9414C21.4297 10.4609 21.1367 10.1328 20.6797 10.1328C20.4688 10.1328 20.2344 10.25 20.0352 10.4141L17.75 12.3594V15.5703Z" fill="black" fillOpacity="0.85"/>
<path d="M18.6523 20.5742C19.1914 21.1016 20.0586 21.1133 20.5742 20.5742C21.125 20.0352 21.1133 19.2031 20.5742 18.6641L9.23047 7.32031C8.69141 6.78125 7.83594 6.78125 7.30859 7.32031C6.76953 7.84766 6.76953 8.71484 7.30859 9.24219L18.6523 20.5742Z" fill="white"/>
<path d="M19.2383 20C19.4375 20.1992 19.7891 20.1992 19.9883 20C20.1992 19.7773 20.1992 19.4609 19.9883 19.25L8.65622 7.90625C8.44528 7.69531 8.10544 7.69531 7.8945 7.90625C7.68356 8.10547 7.69528 8.45703 7.8945 8.65625L19.2383 20Z" fill="black" fillOpacity="0.85"/>
</g>
<defs>
<clipPath id="clip0_2201_1405">
<rect width="23.9062" height="23.918" fill="white" transform="translate(2 2)"/>
</clipPath>
</defs>
</svg>
