<svg width="28" height="28" viewBox="0 0 28 28" fill="none" xmlns="http://www.w3.org/2000/svg">
<g clipPath="url(#clip0_2201_1399)">
<path d="M13.9531 25.9062C20.4922 25.9062 25.9062 20.4805 25.9062 13.9531C25.9062 7.41406 20.4805 2 13.9414 2C7.41406 2 2 7.41406 2 13.9531C2 20.4805 7.42578 25.9062 13.9531 25.9062ZM13.9531 23.9141C8.42188 23.9141 4.00391 19.4844 4.00391 13.9531C4.00391 8.42188 8.41016 3.99219 13.9414 3.99219C19.4727 3.99219 23.9141 8.42188 23.9141 13.9531C23.9141 19.4844 19.4844 23.9141 13.9531 23.9141Z" fill="black" fillOpacity="0.85"/>
<path d="M9.03125 18.6875H15.2305C16.4023 18.6875 17.0938 18.0078 17.0938 16.8477V11.082C17.0938 9.92188 16.4609 9.25391 15.2891 9.25391H9.03125C7.91797 9.25391 7.16797 9.92188 7.16797 11.082V16.8477C7.16797 18.0078 7.87109 18.6875 9.03125 18.6875ZM17.75 15.5703L20.0352 17.5039C20.2461 17.6797 20.4688 17.7969 20.6797 17.7969C21.1367 17.7969 21.4297 17.4688 21.4297 16.9766V10.9414C21.4297 10.4609 21.1367 10.1328 20.6797 10.1328C20.4688 10.1328 20.2344 10.25 20.0352 10.4141L17.75 12.3594V15.5703Z" fill="black" fillOpacity="0.85"/>
</g>
<defs>
<clipPath id="clip0_2201_1399">
<rect width="23.9062" height="23.918" fill="white" transform="translate(2 2)"/>
</clipPath>
</defs>
</svg>
