<svg width="33" height="29" viewBox="0 0 33 29" fill="none" xmlns="http://www.w3.org/2000/svg">
<g clipPath="url(#clip0_2201_1403)">
<path d="M7.95996 23.7041H20.2061C23.0654 23.7041 24.7764 22.0401 24.7764 19.1807V8.95023C24.7764 6.10257 23.0654 4.43851 20.2061 4.43851H7.95996C5.22949 4.43851 3.38965 6.10257 3.38965 8.95023V19.1807C3.38965 22.0401 5.10059 23.7041 7.95996 23.7041ZM8.28809 21.9346C6.36621 21.9346 5.27637 20.9385 5.27637 18.9112V9.23148C5.27637 7.19242 6.36621 6.19632 8.28809 6.19632H19.8779C21.7881 6.19632 22.8896 7.19242 22.8896 9.23148V18.9112C22.8896 20.9385 21.7881 21.9346 19.8779 21.9346H8.28809ZM24.5068 10.7901V13.0166L30.085 8.41117C30.1904 8.32914 30.2607 8.27054 30.3662 8.27054C30.5068 8.27054 30.5654 8.38773 30.5654 8.55179V19.5908C30.5654 19.7549 30.5068 19.8604 30.3662 19.8604C30.2607 19.8604 30.1904 19.8018 30.085 19.7315L24.5068 15.126V17.3408L29.2061 21.3252C29.6748 21.7119 30.1904 21.9815 30.6709 21.9815C31.7021 21.9815 32.3818 21.2198 32.3818 20.1299V8.01273C32.3818 6.92289 31.7021 6.16117 30.6709 6.16117C30.1904 6.16117 29.6748 6.4307 29.2061 6.81742L24.5068 10.7901Z" fill="black" fillOpacity="0.85"/>
<path d="M23.8857 27.419C24.8701 28.4033 26.4756 28.4033 27.4365 27.3955C28.374 26.4346 28.4209 24.8643 27.4248 23.8799L4.28027 0.747107C3.2959 -0.237268 1.70215 -0.248987 0.729492 0.747107C-0.243164 1.70804 -0.243164 3.31351 0.729492 4.28617L23.8857 27.419Z" fill="white"/>
<path d="M25.0107 26.2823C25.3623 26.6338 25.9482 26.6338 26.2881 26.2823C26.6396 25.9307 26.6396 25.3565 26.2881 25.0049L3.14355 1.87211C2.79199 1.52054 2.21777 1.52054 1.85449 1.87211C1.51465 2.21195 1.51465 2.80961 1.85449 3.14945L25.0107 26.2823Z" fill="black" fillOpacity="0.85"/>
</g>
<defs>
<clipPath id="clip0_2201_1403">
<rect width="32.3818" height="28.1543" fill="white"/>
</clipPath>
</defs>
</svg>
