<svg width="28" height="28" viewBox="0 0 28 28" fill="none" xmlns="http://www.w3.org/2000/svg">
<g clipPath="url(#clip0_2201_1400)">
<path d="M13.9531 25.918C20.4922 25.918 25.9062 20.5039 25.9062 13.9648C25.9062 7.4375 20.4805 2.01172 13.9414 2.01172C7.41406 2.01172 2 7.4375 2 13.9648C2 20.5039 7.42578 25.918 13.9531 25.918Z" fill="black" fillOpacity="0.85"/>
<path d="M8.91406 18.8398C7.70703 18.8398 6.99219 18.1367 6.99219 16.9531V11C6.99219 9.79297 7.75391 9.10156 8.91406 9.10156H15.3594C16.5781 9.10156 17.2109 9.79297 17.2109 11V16.9531C17.2109 18.1367 16.5078 18.8398 15.3008 18.8398H8.91406ZM17.8906 15.6172V12.3242L20.2578 10.3086C20.4453 10.1328 20.7148 10.0273 20.9258 10.0273C21.3828 10.0273 21.6875 10.3555 21.6875 10.8594V17.082C21.6875 17.5977 21.3828 17.9258 20.9258 17.9258C20.7148 17.9258 20.4688 17.8203 20.2578 17.6328L17.8906 15.6172Z" fill="white"/>
</g>
<defs>
<clipPath id="clip0_2201_1400">
<rect width="23.9062" height="23.918" fill="white" transform="translate(2 2)"/>
</clipPath>
</defs>
</svg>
