<svg width="28" height="28" viewBox="0 0 28 28" fill="none" xmlns="http://www.w3.org/2000/svg">
<g clipPath="url(#clip0_2201_1402)">
<path d="M6.67969 24.5977H20.8945C23.3555 24.5977 24.5742 23.3789 24.5742 20.9648V6.65625C24.5742 4.24219 23.3555 3.02344 20.8945 3.02344H6.67969C4.23047 3.02344 3 4.23047 3 6.65625V20.9648C3 23.3906 4.23047 24.5977 6.67969 24.5977Z" fill="black" fillOpacity="0.85"/>
<path d="M8.75391 18.668C7.55859 18.668 6.83203 17.9648 6.83203 16.7695V10.8281C6.83203 9.62109 7.60547 8.92969 8.75391 8.92969H15.1992C16.418 8.92969 17.0625 9.62109 17.0625 10.8281V16.7695C17.0625 17.9648 16.3477 18.668 15.1406 18.668H8.75391ZM17.7422 15.4453V12.1523L20.0977 10.125C20.2852 9.96094 20.5547 9.85547 20.7656 9.85547C21.2227 9.85547 21.5391 10.1836 21.5391 10.6758V16.9102C21.5391 17.4141 21.2227 17.7539 20.7656 17.7539C20.5547 17.7539 20.3086 17.6484 20.0977 17.4609L17.7422 15.4453Z" fill="white"/>
</g>
<defs>
<clipPath id="clip0_2201_1402">
<rect width="21.5742" height="21.5977" fill="white" transform="translate(3 3)"/>
</clipPath>
</defs>
</svg>
