<svg width="28" height="28" viewBox="0 0 28 28" fill="none" xmlns="http://www.w3.org/2000/svg">
<g clipPath="url(#clip0_2201_1406)">
<path d="M13.955 25.91C12.3219 25.91 10.7826 25.5975 9.33709 24.9724C7.89936 24.3473 6.62963 23.4838 5.5279 22.3821C4.42616 21.2804 3.56275 20.0106 2.93765 18.5729C2.31255 17.1274 2 15.5881 2 13.955C2 12.3219 2.31255 10.7865 2.93765 9.34881C3.56275 7.90327 4.42226 6.62963 5.51618 5.5279C6.61791 4.42616 7.88764 3.56275 9.32537 2.93765C10.7709 2.31255 12.3102 2 13.9433 2C15.5763 2 17.1157 2.31255 18.5612 2.93765C20.0067 3.56275 21.2804 4.42616 22.3821 5.5279C23.4838 6.62963 24.3473 7.90327 24.9724 9.34881C25.5975 10.7865 25.91 12.3219 25.91 13.955C25.91 15.5881 25.5975 17.1274 24.9724 18.5729C24.3473 20.0106 23.4838 21.2804 22.3821 22.3821C21.2804 23.4838 20.0067 24.3473 18.5612 24.9724C17.1235 25.5975 15.5881 25.91 13.955 25.91ZM6.93437 10.9897V16.9438C6.93437 17.5376 7.10236 18.0025 7.43835 18.3385C7.78216 18.6745 8.25489 18.8425 8.85654 18.8425H15.2443C15.76 18.8425 16.1702 18.7253 16.4749 18.4909L7.54384 9.55978C7.13752 9.86451 6.93437 10.3412 6.93437 10.9897ZM17.1664 15.2091V10.9897C17.1664 10.388 17.0063 9.92312 16.6859 9.59494C16.3733 9.26677 15.9123 9.10268 15.3029 9.10268H11.06L17.1664 15.2091ZM17.8462 12.3141V15.6193L20.2021 17.6235C20.3115 17.7095 20.4248 17.7837 20.542 17.8462C20.6592 17.9009 20.7686 17.9283 20.8701 17.9283C21.1046 17.9283 21.2921 17.8501 21.4327 17.6939C21.5734 17.5376 21.6437 17.3305 21.6437 17.0727V10.849C21.6437 10.6068 21.5734 10.4076 21.4327 10.2513C21.2921 10.095 21.1046 10.0169 20.8701 10.0169C20.7686 10.0169 20.6553 10.0442 20.5303 10.0989C20.413 10.1536 20.3037 10.22 20.2021 10.2982L17.8462 12.3141ZM19.3934 20.1904C19.4949 20.2841 19.62 20.3349 19.7684 20.3427C19.9247 20.3427 20.0575 20.2919 20.1669 20.1904C20.2763 20.0731 20.331 19.9403 20.331 19.7919C20.331 19.6434 20.2763 19.5184 20.1669 19.4168L8.46976 7.71965C8.36819 7.61026 8.23926 7.55556 8.08299 7.55556C7.93452 7.55556 7.80169 7.61026 7.68449 7.71965C7.58291 7.82904 7.53212 7.96187 7.53212 8.11815C7.53212 8.26661 7.58291 8.39163 7.68449 8.49321L19.3934 20.1904Z" fill="black" fillOpacity="0.85"/>
</g>
<defs>
<clipPath id="clip0_2201_1406">
<rect width="23.9062" height="23.918" fill="white" transform="translate(2 2)"/>
</clipPath>
</defs>
</svg>
