<svg width="28" height="28" viewBox="0 0 28 28" fill="none" xmlns="http://www.w3.org/2000/svg">
<g clipPath="url(#clip0_2201_1350)">
<path d="M8.20703 26.7461C8.78125 26.7461 9.17969 26.4414 9.89453 25.8086L13.9375 22.2109H21.4609C24.9531 22.2109 26.8281 20.2773 26.8281 16.8438V7.86719C26.8281 4.43359 24.9531 2.5 21.4609 2.5H6.36719C2.875 2.5 1 4.42188 1 7.86719V16.8438C1 20.2891 2.875 22.2109 6.36719 22.2109H6.92969V25.2578C6.92969 26.1602 7.38672 26.7461 8.20703 26.7461ZM8.6875 24.6016V21.2031C8.6875 20.5703 8.44141 20.3242 7.80859 20.3242H6.36719C4 20.3242 2.88672 19.1172 2.88672 16.832V7.86719C2.88672 5.58203 4 4.38672 6.36719 4.38672H21.4609C23.8164 4.38672 24.9414 5.58203 24.9414 7.86719V16.832C24.9414 19.1172 23.8164 20.3242 21.4609 20.3242H13.8672C13.2109 20.3242 12.8828 20.418 12.4375 20.875L8.6875 24.6016Z" fill="black" fillOpacity="0.85"/>
<path d="M9.01562 17.0898H15.2148C16.3867 17.0898 17.0781 16.4102 17.0781 15.25V9.48438C17.0781 8.32422 16.4453 7.65625 15.2734 7.65625H9.01562C7.90234 7.65625 7.15234 8.32422 7.15234 9.48438V15.25C7.15234 16.4102 7.85547 17.0898 9.01562 17.0898ZM17.7344 13.9727L20.0195 15.9062C20.2305 16.082 20.4531 16.1992 20.6641 16.1992C21.1094 16.1992 21.4141 15.8711 21.4141 15.3906V9.34375C21.4141 8.86328 21.1094 8.53516 20.6641 8.53516C20.4531 8.53516 20.2188 8.65234 20.0195 8.81641L17.7344 10.7734V13.9727Z" fill="black" fillOpacity="0.85"/>
</g>
<defs>
<clipPath id="clip0_2201_1350">
<rect width="25.8281" height="25.7461" fill="white" transform="translate(1 1)"/>
</clipPath>
</defs>
</svg>
