<svg width="32" height="28" viewBox="0 0 32 28" fill="none" xmlns="http://www.w3.org/2000/svg">
<g clipPath="url(#clip0_2201_1448)">
<path d="M16.7109 24.0312C17.2383 24.0312 17.6602 23.6094 17.6602 23.0938V5.69141C17.6602 5.17578 17.2383 4.74219 16.7109 4.74219C16.1719 4.74219 15.7734 5.17578 15.7734 5.69141V23.0938C15.7734 23.6094 16.1719 24.0312 16.7109 24.0312Z" fill="black" fillOpacity="0.85"/>
<path d="M12.7734 20.4805C13.3008 20.4805 13.7109 20.0703 13.7109 19.543V9.24219C13.7109 8.71484 13.3008 8.29297 12.7734 8.29297C12.2227 8.29297 11.8242 8.71484 11.8242 9.24219V19.543C11.8242 20.0703 12.2227 20.4805 12.7734 20.4805Z" fill="black" fillOpacity="0.85"/>
<path d="M8.8125 26.6328C9.36328 26.6328 9.77344 26.2109 9.77344 25.6836V3.10156C9.77344 2.57422 9.36328 2.15234 8.8125 2.15234C8.28516 2.15234 7.88672 2.57422 7.88672 3.10156V25.6836C7.88672 26.2109 8.28516 26.6328 8.8125 26.6328Z" fill="black" fillOpacity="0.85"/>
<path d="M4.875 21.9102C5.41406 21.9102 5.83594 21.4883 5.83594 20.9609V7.82422C5.83594 7.29688 5.41406 6.86328 4.875 6.86328C4.34766 6.86328 3.94922 7.29688 3.94922 7.82422V20.9609C3.94922 21.4883 4.34766 21.9102 4.875 21.9102Z" fill="black" fillOpacity="0.85"/>
<path d="M0.9375 17.1172C1.47656 17.1172 1.88672 16.6953 1.88672 16.168V12.6172C1.88672 12.0898 1.47656 11.6562 0.9375 11.6562C0.398438 11.6562 0 12.0898 0 12.6172V16.168C0 16.6953 0.398438 17.1172 0.9375 17.1172Z" fill="black" fillOpacity="0.85"/>
<path d="M17.1445 26.7852H28.4531C30.1992 26.7852 31.4766 25.6836 31.4766 24.0664C31.4766 20.9844 28.043 17.2812 22.8047 17.2812C17.5547 17.2812 14.1094 20.9844 14.1094 24.0664C14.1094 25.6836 15.3984 26.7852 17.1445 26.7852Z" fill="white"/>
<path d="M17.1445 25.1797H28.4531C29.3438 25.1797 29.8828 24.7695 29.8828 24.0664C29.8828 21.8867 27.1758 18.8867 22.8047 18.8867C18.4219 18.8867 15.7148 21.8867 15.7148 24.0664C15.7148 24.7695 16.2539 25.1797 17.1445 25.1797ZM22.8047 17.3867C24.6094 17.3867 26.168 15.7695 26.168 13.6602C26.168 11.5859 24.5977 10.0508 22.8047 10.0508C21.0117 10.0508 19.4297 11.6094 19.4297 13.6836C19.4297 15.7695 21 17.3867 22.8047 17.3867Z" fill="black" fillOpacity="0.85"/>
</g>
<defs>
<clipPath id="clip0_2201_1448">
<rect width="31.4766" height="24.7852" fill="white" transform="translate(0 2)"/>
</clipPath>
</defs>
</svg>
