<svg width="28" height="28" viewBox="0 0 28 28" fill="none" xmlns="http://www.w3.org/2000/svg">
<g clipPath="url(#clip0_2201_1441)">
<path d="M13.9531 25.9062C20.4922 25.9062 25.9062 20.4805 25.9062 13.9531C25.9062 7.41406 20.4805 2 13.9414 2C7.41406 2 2 7.41406 2 13.9531C2 20.4805 7.42578 25.9062 13.9531 25.9062ZM13.9531 23.9141C8.42188 23.9141 4.00391 19.4844 4.00391 13.9531C4.00391 8.42188 8.41016 3.99219 13.9414 3.99219C19.4727 3.99219 23.9141 8.42188 23.9141 13.9531C23.9141 19.4844 19.4844 23.9141 13.9531 23.9141Z" fill="black" fillOpacity="0.85"/>
<path d="M19.8945 16.1445C20.293 16.1445 20.5859 15.8516 20.5859 15.4414V12.4414C20.5859 12.0312 20.293 11.7383 19.8945 11.7383C19.4844 11.7383 19.1797 12.043 19.1797 12.4414V15.4414C19.1797 15.8398 19.4844 16.1445 19.8945 16.1445Z" fill="black" fillOpacity="0.85"/>
<path d="M17.5039 18.793C17.9023 18.793 18.207 18.4883 18.207 18.0898V9.79297C18.207 9.39453 17.9023 9.08984 17.5039 9.08984C17.1055 9.08984 16.8008 9.39453 16.8008 9.79297V18.0898C16.8008 18.4883 17.1055 18.793 17.5039 18.793Z" fill="black" fillOpacity="0.85"/>
<path d="M15.125 16.6016C15.5234 16.6016 15.8281 16.2969 15.8281 15.9102V11.9727C15.8281 11.5859 15.5234 11.2695 15.125 11.2695C14.7383 11.2695 14.4219 11.5859 14.4219 11.9727V15.9102C14.4219 16.2969 14.7383 16.6016 15.125 16.6016Z" fill="black" fillOpacity="0.85"/>
<path d="M12.7578 20.4336C13.1445 20.4336 13.4492 20.1289 13.4492 19.7188V8.16406C13.4492 7.76562 13.1445 7.46094 12.7578 7.46094C12.3594 7.46094 12.043 7.76562 12.043 8.16406V19.7188C12.043 20.1406 12.3477 20.4336 12.7578 20.4336Z" fill="black" fillOpacity="0.85"/>
<path d="M10.3789 17.6797C10.7773 17.6797 11.082 17.3633 11.082 16.9648V10.9063C11.082 10.5078 10.7773 10.2031 10.3789 10.2031C9.98047 10.2031 9.67578 10.5078 9.67578 10.9063V16.9648C9.67578 17.3633 9.98047 17.6797 10.3789 17.6797Z" fill="black" fillOpacity="0.85"/>
<path d="M7.98828 15.6758C8.39844 15.6758 8.70312 15.3594 8.70312 14.9727V12.9102C8.70312 12.5234 8.39844 12.207 7.98828 12.207C7.60156 12.207 7.29688 12.5234 7.29688 12.9102V14.9727C7.29688 15.3594 7.61328 15.6758 7.98828 15.6758Z" fill="black" fillOpacity="0.85"/>
</g>
<defs>
<clipPath id="clip0_2201_1441">
<rect width="23.9062" height="23.918" fill="white" transform="translate(2 2)"/>
</clipPath>
</defs>
</svg>
