<svg width="28" height="28" viewBox="0 0 28 28" fill="none" xmlns="http://www.w3.org/2000/svg">
<g clipPath="url(#clip0_2201_1442)">
<path d="M13.9531 25.918C20.4922 25.918 25.9062 20.5039 25.9062 13.9648C25.9062 7.4375 20.4805 2.01172 13.9414 2.01172C7.41406 2.01172 2 7.4375 2 13.9648C2 20.5039 7.42578 25.918 13.9531 25.918Z" fill="black" fillOpacity="0.85"/>
<path d="M20.0938 16.2266C19.6719 16.2266 19.3555 15.9102 19.3555 15.5V12.418C19.3555 12.0078 19.6719 11.6797 20.0938 11.6797C20.5039 11.6797 20.8086 11.9961 20.8086 12.418V15.5C20.8086 15.9219 20.5039 16.2266 20.0938 16.2266Z" fill="white"/>
<path d="M17.6328 18.957C17.2109 18.957 16.8945 18.6406 16.8945 18.2422V9.67578C16.8945 9.27734 17.2109 8.94922 17.6328 8.94922C18.043 8.94922 18.3594 9.27734 18.3594 9.67578V18.2422C18.3594 18.6406 18.043 18.957 17.6328 18.957Z" fill="white"/>
<path d="M15.1719 16.707C14.7734 16.707 14.4453 16.3906 14.4453 15.9805V11.9258C14.4453 11.5273 14.7734 11.2109 15.1719 11.2109C15.582 11.2109 15.8984 11.5273 15.8984 11.9258V15.9805C15.8984 16.3906 15.582 16.707 15.1719 16.707Z" fill="white"/>
<path d="M12.7344 20.6445C12.3125 20.6445 11.9961 20.3398 11.9961 19.918V8C11.9961 7.58984 12.3242 7.27344 12.7344 7.27344C13.1328 7.27344 13.4492 7.58984 13.4492 8V19.918C13.4492 20.3281 13.1328 20.6445 12.7344 20.6445Z" fill="white"/>
<path d="M10.2734 17.8086C9.86328 17.8086 9.54688 17.4922 9.54688 17.0586V10.8359C9.54688 10.4258 9.86328 10.1094 10.2734 10.1094C10.6953 10.1094 11.0117 10.4258 11.0117 10.8359V17.0586C11.0117 17.4922 10.6953 17.8086 10.2734 17.8086Z" fill="white"/>
<path d="M7.8125 15.7461C7.42578 15.7461 7.09766 15.4297 7.09766 15.0078V12.8867C7.09766 12.4883 7.41406 12.1719 7.8125 12.1719C8.23438 12.1719 8.55078 12.4883 8.55078 12.8867V15.0078C8.55078 15.4297 8.23438 15.7461 7.8125 15.7461Z" fill="white"/>
</g>
<defs>
<clipPath id="clip0_2201_1442">
<rect width="23.9062" height="23.918" fill="white" transform="translate(2 2)"/>
</clipPath>
</defs>
</svg>
