<svg width="28" height="28" viewBox="0 0 28 28" fill="none" xmlns="http://www.w3.org/2000/svg">
<g clipPath="url(#clip0_2201_1440)">
<path d="M23.6484 17.9727C24.1758 17.9727 24.5977 17.5508 24.5977 17.0352V11.4453C24.5977 10.9297 24.1758 10.4961 23.6484 10.4961C23.1094 10.4961 22.7109 10.9297 22.7109 11.4453V17.0352C22.7109 17.5508 23.1094 17.9727 23.6484 17.9727Z" fill="black" fillOpacity="0.85"/>
<path d="M19.7109 23.8789C20.2383 23.8789 20.6484 23.457 20.6484 22.9414V5.53906C20.6484 5.02344 20.2383 4.58984 19.7109 4.58984C19.1602 4.58984 18.7617 5.02344 18.7617 5.53906V22.9414C18.7617 23.457 19.1602 23.8789 19.7109 23.8789Z" fill="black" fillOpacity="0.85"/>
<path d="M15.7617 20.3281C16.3008 20.3281 16.7109 19.918 16.7109 19.3906V9.08984C16.7109 8.5625 16.3008 8.14062 15.7617 8.14062C15.2227 8.14062 14.8242 8.5625 14.8242 9.08984V19.3906C14.8242 19.918 15.2227 20.3281 15.7617 20.3281Z" fill="black" fillOpacity="0.85"/>
<path d="M11.8125 26.4805C12.3516 26.4805 12.7734 26.0586 12.7734 25.5312V2.94922C12.7734 2.42188 12.3516 2 11.8125 2C11.2852 2 10.8867 2.42188 10.8867 2.94922V25.5312C10.8867 26.0586 11.2852 26.4805 11.8125 26.4805Z" fill="black" fillOpacity="0.85"/>
<path d="M7.875 21.7578C8.41406 21.7578 8.82422 21.3359 8.82422 20.8086V7.67188C8.82422 7.14453 8.41406 6.71094 7.875 6.71094C7.34766 6.71094 6.9375 7.14453 6.9375 7.67188V20.8086C6.9375 21.3359 7.34766 21.7578 7.875 21.7578Z" fill="black" fillOpacity="0.85"/>
<path d="M3.92578 16.9648C4.47656 16.9648 4.88672 16.543 4.88672 16.0156V12.4648C4.88672 11.9375 4.47656 11.5039 3.92578 11.5039C3.39844 11.5039 3 11.9375 3 12.4648V16.0156C3 16.543 3.39844 16.9648 3.92578 16.9648Z" fill="black" fillOpacity="0.85"/>
</g>
<defs>
<clipPath id="clip0_2201_1440">
<rect width="21.5977" height="24.4805" fill="white" transform="translate(3 2)"/>
</clipPath>
</defs>
</svg>
