<svg width="28" height="28" viewBox="0 0 28 28" fill="none" xmlns="http://www.w3.org/2000/svg">
<g clipPath="url(#clip0_2201_1443)">
<path d="M22.5186 17.5278C23.0576 17.5278 23.4678 17.106 23.4678 16.5903V11.0005C23.4678 10.4849 23.0576 10.0513 22.5186 10.0513C21.9795 10.0513 21.5811 10.4849 21.5811 11.0005V16.5903C21.5811 17.106 21.9795 17.5278 22.5186 17.5278Z" fill="black" fillOpacity="0.85"/>
<path d="M18.5811 20.4458C19.1084 20.4458 19.5303 20.0239 19.5303 19.4966V5.09424C19.5303 4.57861 19.1084 4.14502 18.5811 4.14502C18.042 4.14502 17.6436 4.57861 17.6436 5.09424V19.4966C17.6436 20.0239 18.042 20.4458 18.5811 20.4458Z" fill="black" fillOpacity="0.85"/>
<path d="M14.6436 20.9028C15.1709 20.9028 15.5811 20.4927 15.5811 19.9653V8.64502C15.5811 8.11767 15.1709 7.6958 14.6436 7.6958C14.0928 7.6958 13.6943 8.11767 13.6943 8.64502V19.9653C13.6943 20.4927 14.0928 20.9028 14.6436 20.9028Z" fill="black" fillOpacity="0.85"/>
<path d="M10.6826 26.0357C11.2334 26.0357 11.6436 25.6138 11.6436 25.0864V2.50439C11.6436 1.97705 11.2334 1.55518 10.6826 1.55518C10.1553 1.55518 9.75684 1.97705 9.75684 2.50439V25.0864C9.75684 25.6138 10.1553 26.0357 10.6826 26.0357Z" fill="black" fillOpacity="0.85"/>
<path d="M6.74512 21.313C7.28418 21.313 7.70605 20.8911 7.70605 20.3638V7.22705C7.70605 6.6997 7.28418 6.26611 6.74512 6.26611C6.21777 6.26611 5.81934 6.6997 5.81934 7.22705V20.3638C5.81934 20.8911 6.21777 21.313 6.74512 21.313Z" fill="black" fillOpacity="0.85"/>
<path d="M2.80762 16.52C3.34668 16.52 3.75684 16.0982 3.75684 15.5708V12.02C3.75684 11.4927 3.34668 11.0591 2.80762 11.0591C2.26855 11.0591 1.87012 11.4927 1.87012 12.02V15.5708C1.87012 16.0982 2.26855 16.52 2.80762 16.52Z" fill="black" fillOpacity="0.85"/>
<path d="M22.6826 25.895C23.585 26.7857 25.0381 26.7857 25.917 25.8716C26.7842 24.981 26.7842 23.5747 25.9053 22.6841L4.88184 1.67237C4.00293 0.781745 2.5498 0.770027 1.65918 1.67237C0.780273 2.53956 0.780273 4.0044 1.65918 4.88331L22.6826 25.895Z" fill="white"/>
<path d="M23.6553 24.9341C24.0068 25.2857 24.5928 25.2857 24.9326 24.9341C25.2842 24.5708 25.2842 24.0083 24.9326 23.6567L3.9209 2.6333C3.56934 2.28174 2.9834 2.28174 2.63184 2.6333C2.28027 2.97314 2.28027 3.5708 2.63184 3.91064L23.6553 24.9341Z" fill="black" fillOpacity="0.85"/>
</g>
<defs>
<clipPath id="clip0_2201_1443">
<rect width="25.5659" height="25.5908" fill="white" transform="translate(1 1)"/>
</clipPath>
</defs>
</svg>
